<?xml version="1.0" encoding="utf-8" ?>
<svg baseProfile="full" height="200mm" version="1.1" viewBox="0,0,200,200" width="200mm" xmlns="http://www.w3.org/2000/svg" xmlns:ev="http://www.w3.org/2001/xml-events" xmlns:xlink="http://www.w3.org/1999/xlink"><defs /><rect fill="#1a1a1a" height="200" width="200" x="0" y="0" /><text alignment-baseline="middle" fill="#e1ed5e" style="dominant-baseline: central; font-size:9.0px; font-family:Arial;" text-anchor="middle" x="100.0" y="100.0">2022</text><line stroke="#e1ed5e" stroke-width="0.3" x1="100.0" x2="100.0" y1="15.0" y2="10.0" /><path d="M 100.0 14.0 a86.0,86.0 0 0,1 42.46469731375804,11.215312516191453" fill="none" id="id13" stroke="none" /><text fill="#e1ed5e" style="font-size:6.75px; font-family:Arial;" text-anchor="middle"><textPath startOffset="22.20632615414155" xlink:href="#id13">January</textPath></text><path d="M 100.72285384407766 79.0124445844662 l 1.2224223621832682 -35.49217767561976 a56.51322278517295,56.51322278517295 0 0,0 0.9719175476233012,0.041852814083529394 l -1.8331807421959008 35.465877135012036" fill="#86ff25" stroke="none" /><path d="M 101.08401301168833 79.027996857942 l 0.7042385023610741 -13.624644653731398 a34.64283305654142,34.64283305654142 0 0,0 0.5952594715482749,0.035907676906896856 l -0.9386600227489608 13.610503707444197" fill="#ff3805" stroke="none" /><line stroke="#e1ed5e" stroke-width="0.3" x1="143.23703022742887" x2="145.7803849466894" y1="26.81831364943548" y2="22.513508569990506" /><path d="M 143.74570117128098 25.957352633546492 a86.0,86.0 0 0,1 28.547481713284135,27.462654790039103" fill="none" id="id14" stroke="none" /><text fill="#e1ed5e" style="font-size:6.75px; font-family:Arial;" text-anchor="middle"><textPath startOffset="19.985693538727396" xlink:href="#id14">February</textPath></text><path d="M 112.77801427241765 83.33499621200491 l 14.679726987411291 -19.14520524366707 a45.12536566038054,45.12536566038054 0 0,0 0.6123457214159538,0.47794554843204046 l -15.007105263986675 18.889681306011806" fill="#ffdc14" stroke="none" /><path d="M 116.38621287248628 86.86637796730983 l 23.076479669245213 -18.49590043650761 a50.57401303310544,50.57401303310544 0 0,0 0.538603411563891,0.6839716366533387 l -23.39143716140307 18.095936405901234" fill="#d4ff1c" stroke="none" /><path d="M 116.60985879189232 87.15038557335679 l 11.797656493891422 -9.12682876981986 a35.91588757471274,35.91588757471274 0 0,0 0.3740794638474042,0.49224472532131186 l -11.95301189796294 8.922399268617514" fill="#ff4d07" stroke="none" /><line stroke="#e1ed5e" stroke-width="0.3" x1="172.23445277983987" x2="176.4835382374775" y1="55.19839476539836" y2="52.563006222186495" /><path d="M 173.08426987136738 54.67131705675599 a86.0,86.0 0 0,1 12.851231095245387,41.99856678651699" fill="none" id="id15" stroke="none" /><text fill="#e1ed5e" style="font-size:6.75px; font-family:Arial;" text-anchor="middle"><textPath startOffset="22.20632615414155" xlink:href="#id15">March</textPath></text><path d="M 117.84615892207809 88.93136811851018 l 12.617578329617551 -7.825736080026868 a35.84740475969685,35.84740475969685 0 0,0 0.32072195365648853,0.5271825636516307 l -12.750416081560264 7.607385743168155" fill="#ff4b07" stroke="none" /><path d="M 118.3937258080291 89.86733742301442 l 36.182861055149885 -19.93227070840364 a62.309742794277575,62.309742794277575 0 0,0 0.5094322941694325,0.9439006717391903 l -36.52060144853778 19.30648905333199" fill="#40ff2d" stroke="none" /><path d="M 118.73160827565052 90.50648371742162 l 20.328803139157547 -10.303003392281893 a43.790614646647725,43.790614646647725 0 0,0 0.33497732236189465,0.6752938412883006 l -20.503140474472847 9.951549962494642" fill="#ffc812" stroke="none" /><path d="M 119.04729006885535 91.15688171328212 l 32.10120542480131 -14.903682134915224 a56.392190252990616,56.392190252990616 0 0,0 0.40118393167423455,0.8839556144988409 l -32.352991673438886 14.34890451157432" fill="#88ff25" stroke="none" /><path d="M 119.61058180528143 92.48833698450437 l 16.57238901373053 -6.347909657597193 a38.74654993635191,38.74654993635191 0 0,0 0.23320886301654883,0.6248838087323787 l -16.679202465248704 6.061702711835482" fill="#ff7a0b" stroke="none" /><path d="M 120.45610955862082 95.25157060432595 l 18.02750593098274 -4.184683253091562 a39.50682425540165,39.50682425540165 0 0,0 0.14806708669638843,0.6637557166218427 l -18.09686740468117 3.873749366919755" fill="#ff860c" stroke="none" /><path d="M 120.87857604477298 97.74499172005257 l 25.85698259927056 -2.7927052942103883 a47.00735957376856,47.00735957376856 0 0,0 0.07996371419352472,0.8052236893171283 l -25.90122343914631 2.347206074188825" fill="#fff717" stroke="none" /><path d="M 120.94382443527127 98.46500227214037 l 17.950470659794945 -1.3156112801629953 a38.99861744547762,38.99861744547762 0 0,0 0.04330593859397281,0.6699237023866429 l -17.970457189393333 1.0064285135233173" fill="#ff7e0b" stroke="none" /><path d="M 120.96714384426684 98.82574320788733 l 18.429761387463877 -1.0321516677228662 a39.458641387275435,39.458641387275435 0 0,0 0.03214261800689065,0.6784798644138661 l -18.444797613704264 0.7147606966860003" fill="#ff860c" stroke="none" /><path d="M 120.98425023603335 99.18683210126433 l 15.477213522695612 -0.5997628248314631 a36.48882997108438,36.48882997108438 0 0,0 0.018919120461008698,0.627833502575533 l -15.485244337612265 0.333259174830931" fill="#ff5608" stroke="none" /><line stroke="#e1ed5e" stroke-width="0.3" x1="184.98032266829074" x2="189.97916517819016" y1="98.17113171792111" y2="98.06355123074" /><path d="M 185.9800911702706 98.14961562048488 a86.0,86.0 0 0,1 -9.607161424134198,41.387399972396054" fill="none" id="id16" stroke="none" /><text fill="#e1ed5e" style="font-size:6.75px; font-family:Arial;" text-anchor="middle"><textPath startOffset="21.466115282336823" xlink:href="#id16">April</textPath></text><path d="M 120.9904718944345 100.63252640178507 l 32.488329753065976 0.9790025885107568 a53.50307702683337,53.50307702683337 0 0,0 -0.035663284013021705,0.9203108941359253 l -32.46666433620175 -1.5380907296606883" fill="#adff20" stroke="none" /><path d="M 120.70491114924044 103.5080841355445 l 14.599818236109895 2.473683193651827 a35.807896578177555,35.807896578177555 0 0,0 -0.10819706810646461,0.6068266175170259 l -14.555074725664241 -2.724628561902071" fill="#ff4b07" stroke="none" /><path d="M 120.41448212921028 104.9243191809786 l 20.083250110669272 4.84442040265388 a41.65926775191576,41.65926775191576 0 0,0 -0.1741529696843257,0.6956545443660328 l -19.996885826689887 -5.1894027864173085" fill="#ffa80f" stroke="none" /><path d="M 119.12269723197855 108.67885076344098 l 23.857789875324073 10.827876180940166 a47.19994351758964,47.19994351758964 0 0,0 -0.34214426129063813,0.7369483002376327 l -23.667870997193603 -11.236944548456629" fill="#fffa17" stroke="none" /><line stroke="#e1ed5e" stroke-width="0.3" x1="174.80103733775053" x2="179.2010983576182" y1="140.37084112569926" y2="142.7455964860345" /><path d="M 175.68104954172406 140.8457921977663 a86.0,86.0 0 0,1 -30.038265399797805,32.042727171017184" fill="none" id="id17" stroke="none" /><text fill="#e1ed5e" style="font-size:6.75px; font-family:Arial;" text-anchor="middle"><textPath startOffset="22.206326154141568" xlink:href="#id17">May</textPath></text><path d="M 114.81725581225074 114.88116024355365 l 13.867212323975405 13.927019371147239 a40.653535208774166,40.653535208774166 0 0,0 -0.5001353693942444,0.48948772349391156 l -13.625427002205367 -14.163657197563722" fill="#ff980e" stroke="none" /><line stroke="#e1ed5e" stroke-width="0.3" x1="143.8653032363475" x2="146.44561519142675" y1="172.8068346515853" y2="177.08958963109032" /><path d="M 144.38136562736335 173.6633856474863 a86.0,86.0 0 0,1 -40.68145358897372,12.25698825130547" fill="none" id="id18" stroke="none" /><text fill="#e1ed5e" style="font-size:6.75px; font-family:Arial;" text-anchor="middle"><textPath startOffset="21.466115282336833" xlink:href="#id18">June</textPath></text><path d="M 107.2578585660854 119.70592522655815 l 5.099078885413325 13.84458877578713 a35.753753551226175,35.753753551226175 0 0,0 -0.579347760359401,0.20773349465887445 l -4.86001156442419 -13.930309811485964" fill="#ff4a06" stroke="none" /><line stroke="#e1ed5e" stroke-width="0.3" x1="102.19456741930631" x2="102.32365962044197" y1="184.97166512339345" y2="189.96999836594603" /><path d="M 102.22038585953345 185.97133177190398 a86.0,86.0 0 0,1 -42.740103519485714,-10.115201625700543" fill="none" id="id19" stroke="none" /><text fill="#e1ed5e" style="font-size:6.75px; font-family:Arial;" text-anchor="middle"><textPath startOffset="22.20632615414155" xlink:href="#id19">July</textPath></text><path d="M 100.18074693466247 120.99922214144158 l 0.09618753106104087 11.175090386786472 a32.175504337343305,32.175504337343305 0 0,0 -0.5538689314469849,0.0 l 0.09618753106103319 -11.175090386786472" fill="#ff0e01" stroke="none" /><path d="M 99.45781275523022 120.99299961872073 l -0.5102376840601187 19.755941531747453 a40.76252940035913,40.76252940035913 0 0,0 -0.70127010888637,-0.024153160475759383 l 0.8502281446211317 -19.7442315728456" fill="#ff9a0e" stroke="none" /><line stroke="#e1ed5e" stroke-width="0.3" x1="58.666819895761336" x2="56.23545636021788" y1="174.27360380694188" y2="178.64263932499728" /><path d="M 58.180547188652646 175.14741091055294 a86.0,86.0 0 0,1 -31.652253787137756,-30.449443065178592" fill="none" id="id20" stroke="none" /><text fill="#e1ed5e" style="font-size:6.75px; font-family:Arial;" text-anchor="middle"><textPath startOffset="22.20632615414155" xlink:href="#id20">August</textPath></text><path d="M 89.1626897886671 117.98757091392108 l -10.156169719509428 16.857026280603716 a40.68011987759334,40.68011987759334 0 0,0 -0.5966820510259949,-0.36653085007832414 l 10.444830970467732 -16.679706963697015" fill="#ff990e" stroke="none" /><path d="M 87.65650970185807 116.9893568818739 l -6.088897461682528 8.380648381862654 a31.359051095505855,31.359051095505855 0 0,0 -0.4339719791317232,-0.32104209535690853 l 6.232254411232815 -8.27459633776598" fill="#ff0000" stroke="none" /><path d="M 85.18274418774928 114.88116024355367 l -10.440880920704453 10.485910753893108 a35.79751055883865,35.79751055883865 0 0,0 -0.43291016219479106,-0.438535708718513 l 10.619831707954777 -10.30463455119393" fill="#ff4b06" stroke="none" /><line stroke="#e1ed5e" stroke-width="0.3" x1="26.63291911575756" x2="22.317208475507996" y1="142.92168965132927" y2="145.44649492493687" /><path d="M 25.769776987707644 143.4266507060508 a86.0,86.0 0 0,1 -11.730757126820373,-40.83630448921669" fill="none" id="id21" stroke="none" /><text fill="#e1ed5e" style="font-size:6.75px; font-family:Arial;" text-anchor="middle"><textPath startOffset="21.46611528233685" xlink:href="#id21">September</textPath></text><path d="M 79.1416061653843 102.43462659150553 l -16.19562729823087 1.8903806879391132 a37.30557827028941,37.30557827028941 0 0,0 -0.0689579376011907,-0.6384648592646268 l 16.225767537333116 -1.6113195067897044" fill="#ff6309" stroke="none" /><path d="M 79.10278846688536 102.07522291339032 l -14.696454065696827 1.459449179350707 a35.768742465499365,35.768742465499365 0 0,0 -0.055569983980868404,-0.6132101426568103 l 14.71939864595477 -1.2062576481453304" fill="#ff4a06" stroke="none" /><line stroke="#e1ed5e" stroke-width="0.3" x1="15.007084014347285" x2="10.007500721073583" y1="101.09737516637583" y2="101.16192664675087" /><path d="M 14.007167355692545 101.11028546245083 a86.0,86.0 0 0,1 10.666146001902534,-42.60595125391555" fill="none" id="id22" stroke="none" /><text fill="#e1ed5e" style="font-size:6.75px; font-family:Arial;" text-anchor="middle"><textPath startOffset="22.20632615414155" xlink:href="#id22">October</textPath></text><path d="M 79.12142395522702 97.74499172005258 l -15.253887200683089 -1.6475089999030823 a36.342599539710505,36.342599539710505 0 0,0 0.07252883417339044,-0.6213827585850026 l 15.223268013506111 1.9098354968129467" fill="#ff5407" stroke="none" /><path d="M 79.3925641242962 95.95851677861259 l -23.768710107333796 -4.661465097948784 a45.221495350738905,45.221495350738905 0 0,0 0.15638175391178374,-0.762572969923341 l 23.68494905750702 5.069913724035527" fill="#ffdd14" stroke="none" /><path d="M 79.54389044137918 95.25157060432595 l -48.85805099124541 -11.341306365090317 a71.1570969727114,71.1570969727114 0 0,0 0.28722799294982854,-1.190745464212153 l 48.65559019803477 12.180637060961867" fill="#3aff95" stroke="none" /><path d="M 80.02781315780177 93.51064311812611 l -28.068077385358873 -9.119871177892506 a50.512523077701246,50.512523077701246 0 0,0 0.2758048854526203,-0.8246215023949005 l 27.90693520613448 9.601665783209729" fill="#d5ff1c" stroke="none" /><line stroke="#e1ed5e" stroke-width="0.3" x1="26.266209847984243" x2="21.928928074336255" y1="57.711370442889674" y2="55.22380399835377" /><path d="M 25.398753493254645 57.213857153982495 a86.0,86.0 0 0,1 29.58750427330803,-30.492523968695096" fill="none" id="id23" stroke="none" /><text fill="#e1ed5e" style="font-size:6.75px; font-family:Arial;" text-anchor="middle"><textPath startOffset="21.46611528233685" xlink:href="#id23">November</textPath></text><path d="M 81.96595687620814 89.24020034530311 l -25.35620021465918 -15.128478535918571 a50.526390773977624,50.526390773977624 0 0,0 0.45205288552606854,-0.7430560845017637 l 25.092031530846892 15.56270239362741" fill="#d5ff1c" stroke="none" /><path d="M 82.15384107792192 88.93136811851018 l -15.059957995113841 -9.340560729423569 a38.72141104863388,38.72141104863388 0 0,0 0.3561860975720355,-0.5634008680826118 l 14.896944301295843 9.598409245220395" fill="#ff7a0b" stroke="none" /><path d="M 82.54541684631803 88.32363383020206 l -24.547501692147467 -16.421223915094526 a50.533649185220156,50.533649185220156 0 0,0 0.4898768873614103,-0.7188338845699195 l 24.261200339117316 16.841335822934862" fill="#d5ff1c" stroke="none" /><path d="M 83.6137871275137 86.86637796730984 l -11.984889991742397 -9.605942293060943 a36.35941780966271,36.35941780966271 0 0,0 0.39562770460630464,-0.48499278630096926 l 11.817763795059701 9.810819248969993" fill="#ff5407" stroke="none" /><path d="M 84.31358615837235 86.03803664274999 l -47.05924152488297 -41.885890071750055 a84.0,84.0 0 0,0 0.9706254375358201,-1.071788850921776 l 46.331272446731106 42.68973170994139" fill="#4dd2ff" stroke="none" /><path d="M 85.83668400450813 84.49514656593479 l -19.928930211319113 -21.81658180348226 a50.548697110966856,50.548697110966856 0 0,0 0.6474782911518737,-0.581312402748571 l 19.550440932571266 22.156393215000108" fill="#d5ff1c" stroke="none" /><path d="M 88.09926311788651 82.69761687909137 l -11.14020106306789 -16.196646371272664 a40.65796106928791,40.65796106928791 0 0,0 0.5800444891123967,-0.39164862831150277 l 10.859751879548952 16.386006911882834" fill="#ff980e" stroke="none" /><line stroke="#e1ed5e" stroke-width="0.3" x1="56.762969772571076" x2="54.21961505331055" y1="26.818313649435495" y2="22.513508569990535" /><path d="M 56.25429882871897 25.957352633546506 a86.0,86.0 0 0,1 42.265352541879196,-11.944610805530505" fill="none" id="id24" stroke="none" /><text fill="#e1ed5e" style="font-size:6.75px; font-family:Arial;" text-anchor="middle"><textPath startOffset="22.20632615414155" xlink:href="#id24">December</textPath></text></svg>