<?xml version="1.0" encoding="utf-8" ?>
<svg baseProfile="full" height="200mm" version="1.1" viewBox="0,0,200,200" width="200mm" xmlns="http://www.w3.org/2000/svg" xmlns:ev="http://www.w3.org/2001/xml-events" xmlns:xlink="http://www.w3.org/1999/xlink"><defs /><rect fill="#1a1a1a" height="200" width="200" x="0" y="0" /><text alignment-baseline="middle" fill="#e1ed5e" style="dominant-baseline: central; font-size:9.0px; font-family:Arial;" text-anchor="middle" x="100.0" y="100.0">2015</text><line stroke="#e1ed5e" stroke-width="0.3" x1="100.0" x2="100.0" y1="15.0" y2="10.0" /><path d="M 100.0 14.0 a86.0,86.0 0 0,1 42.46469731375804,11.215312516191453" fill="none" id="id1" stroke="none" /><text fill="#e1ed5e" style="font-size:6.75px; font-family:Arial;" text-anchor="middle"><textPath startOffset="22.20632615414155" xlink:href="#id1">January</textPath></text><line stroke="#e1ed5e" stroke-width="0.3" x1="143.23703022742887" x2="145.7803849466894" y1="26.81831364943548" y2="22.513508569990506" /><path d="M 143.74570117128098 25.957352633546492 a86.0,86.0 0 0,1 28.547481713284135,27.462654790039103" fill="none" id="id2" stroke="none" /><text fill="#e1ed5e" style="font-size:6.75px; font-family:Arial;" text-anchor="middle"><textPath startOffset="19.985693538727396" xlink:href="#id2">February</textPath></text><line stroke="#e1ed5e" stroke-width="0.3" x1="172.23445277983987" x2="176.4835382374775" y1="55.19839476539836" y2="52.563006222186495" /><path d="M 173.08426987136738 54.67131705675599 a86.0,86.0 0 0,1 12.851231095245387,41.99856678651699" fill="none" id="id3" stroke="none" /><text fill="#e1ed5e" style="font-size:6.75px; font-family:Arial;" text-anchor="middle"><textPath startOffset="22.20632615414155" xlink:href="#id3">March</textPath></text><line stroke="#e1ed5e" stroke-width="0.3" x1="184.98032266829074" x2="189.97916517819016" y1="98.17113171792111" y2="98.06355123074" /><path d="M 185.9800911702706 98.14961562048488 a86.0,86.0 0 0,1 -9.607161424134198,41.387399972396054" fill="none" id="id4" stroke="none" /><text fill="#e1ed5e" style="font-size:6.75px; font-family:Arial;" text-anchor="middle"><textPath startOffset="21.466115282336823" xlink:href="#id4">April</textPath></text><line stroke="#e1ed5e" stroke-width="0.3" x1="174.80103733775053" x2="179.2010983576182" y1="140.37084112569926" y2="142.7455964860345" /><path d="M 175.68104954172406 140.8457921977663 a86.0,86.0 0 0,1 -30.038265399797805,32.042727171017184" fill="none" id="id5" stroke="none" /><text fill="#e1ed5e" style="font-size:6.75px; font-family:Arial;" text-anchor="middle"><textPath startOffset="22.206326154141568" xlink:href="#id5">May</textPath></text><line stroke="#e1ed5e" stroke-width="0.3" x1="143.8653032363475" x2="146.44561519142675" y1="172.8068346515853" y2="177.08958963109032" /><path d="M 144.38136562736335 173.6633856474863 a86.0,86.0 0 0,1 -40.68145358897372,12.25698825130547" fill="none" id="id6" stroke="none" /><text fill="#e1ed5e" style="font-size:6.75px; font-family:Arial;" text-anchor="middle"><textPath startOffset="21.466115282336833" xlink:href="#id6">June</textPath></text><line stroke="#e1ed5e" stroke-width="0.3" x1="102.19456741930631" x2="102.32365962044197" y1="184.97166512339345" y2="189.96999836594603" /><path d="M 102.22038585953345 185.97133177190398 a86.0,86.0 0 0,1 -42.740103519485714,-10.115201625700543" fill="none" id="id7" stroke="none" /><text fill="#e1ed5e" style="font-size:6.75px; font-family:Arial;" text-anchor="middle"><textPath startOffset="22.20632615414155" xlink:href="#id7">July</textPath></text><line stroke="#e1ed5e" stroke-width="0.3" x1="58.666819895761336" x2="56.23545636021788" y1="174.27360380694188" y2="178.64263932499728" /><path d="M 58.180547188652646 175.14741091055294 a86.0,86.0 0 0,1 -31.652253787137756,-30.449443065178592" fill="none" id="id8" stroke="none" /><text fill="#e1ed5e" style="font-size:6.75px; font-family:Arial;" text-anchor="middle"><textPath startOffset="22.20632615414155" xlink:href="#id8">August</textPath></text><line stroke="#e1ed5e" stroke-width="0.3" x1="26.63291911575756" x2="22.317208475507996" y1="142.92168965132927" y2="145.44649492493687" /><path d="M 25.769776987707644 143.4266507060508 a86.0,86.0 0 0,1 -11.730757126820373,-40.83630448921669" fill="none" id="id9" stroke="none" /><text fill="#e1ed5e" style="font-size:6.75px; font-family:Arial;" text-anchor="middle"><textPath startOffset="21.46611528233685" xlink:href="#id9">September</textPath></text><line stroke="#e1ed5e" stroke-width="0.3" x1="15.007084014347285" x2="10.007500721073583" y1="101.09737516637583" y2="101.16192664675087" /><path d="M 14.007167355692545 101.11028546245083 a86.0,86.0 0 0,1 10.666146001902534,-42.60595125391555" fill="none" id="id10" stroke="none" /><text fill="#e1ed5e" style="font-size:6.75px; font-family:Arial;" text-anchor="middle"><textPath startOffset="22.20632615414155" xlink:href="#id10">October</textPath></text><path d="M 79.05617556472873 98.46500227214037 l -15.047506917840824 -1.1028496252068878 a36.08786736879293,36.08786736879293 0 0,0 0.05073871009129233,-0.6191407795536972 l 15.026293723930035 1.3617043219683633" fill="#ff790b" stroke="none" /><path d="M 79.08570108090925 98.10471618934814 l -7.36079642414025 -0.6670459454628269 a28.3909589561162,28.3909589561162 0 0,0 0.04829555516906396,-0.4863296496800572 l 7.348223743288957 0.7936511258473145" fill="#ff0000" stroke="none" /><path d="M 79.21141760316559 97.0276538004421 l -9.470005611015553 -1.3540189826498397 a30.5663145295376,30.5663145295376 0 0,0 0.07895440107181154,-0.5202108544647253 l 9.44529531650444 1.5168289495066571" fill="#ff2303" stroke="none" /><path d="M 79.3925641242962 95.95851677861259 l -29.167381719031265 -5.720240234654659 a50.723009684179715,50.723009684179715 0 0,0 0.17540669888455618,-0.855345358182263 l 29.064595724231715 6.221461249000324" fill="#baff1f" stroke="none" /><path d="M 79.46518482838121 95.60439243477599 l -8.256198289848072 -1.7672916634284377 a29.443229833713747,29.443229833713747 0 0,0 0.11034987870011122,-0.4946768687758159 l 8.224554024145922 1.9091467017542127" fill="#ff1101" stroke="none" /><path d="M 79.81627453868168 94.20196356495316 l -44.15837782424279 -12.685065699501514 a66.94424037754077,66.94424037754077 0 0,0 0.3276891968165499,-1.1048050686395903 l 43.93348273031453 13.443300154887643" fill="#35ff69" stroke="none" /><path d="M 79.91906864156998 93.8553929516997 l -18.704230228638153 -5.723347331082515 a40.560289699237856,40.560289699237856 0 0,0 0.2100337657888155,-0.6658644344527936 l 18.602940979081133 6.044461931961723" fill="#ffba11" stroke="none" /><path d="M 80.14247586403 93.16781622104843 l -28.233780435638728 -9.714120219118062 a50.858172906581785,50.858172906581785 0 0,0 0.29194266950144987,-0.8253612401032806 l 28.06238468532747 10.198679085647955" fill="#b9ff1f" stroke="none" /><path d="M 80.38941819471856 92.48833698450439 l -58.37148283951679 -22.35868946464145 a83.50712762125829,83.50712762125829 0 0,0 0.5257229001134828,-1.3379074374508968 l 57.97796638952161 23.36014590698811" fill="#4cd7ff" stroke="none" /><path d="M 80.803312248108 91.48605970444005 l -8.031163581244943 -3.5619086020636903 a29.785600796654172,29.785600796654172 0 0,0 0.21189998794641338,-0.46689353503212533 l 7.968661276335179 3.6996241459378867" fill="#ff1702" stroke="none" /><path d="M 81.26839172434947 90.50648371742162 l -26.46919230700422 -13.415063162509794 a50.67460296346522,50.67460296346522 0 0,0 0.40103052337545003,-0.7746633257095036 l 26.234352350468658 13.868699210479633" fill="#bbff1f" stroke="none" /><line stroke="#e1ed5e" stroke-width="0.3" x1="26.266209847984243" x2="21.928928074336255" y1="57.711370442889674" y2="55.22380399835377" /><path d="M 25.398753493254645 57.213857153982495 a86.0,86.0 0 0,1 29.58750427330803,-30.492523968695096" fill="none" id="id11" stroke="none" /><text fill="#e1ed5e" style="font-size:6.75px; font-family:Arial;" text-anchor="middle"><textPath startOffset="21.46611528233685" xlink:href="#id11">November</textPath></text><path d="M 81.78341655067845 89.55222093294921 l -28.326765096813485 -16.246283735865696 a53.65497444611318,53.65497444611318 0 0,0 0.4663903096038045,-0.7972122217530072 l 28.042915112739355 16.731475369972596" fill="#96ff23" stroke="none" /><path d="M 83.17141714833178 87.43820079747576 l -50.48574855500465 -37.6853976075727 a84.0,84.0 0 0,0 0.8748962391035646,-1.1512608964758937 l 49.82957637567698 38.54884327992962" fill="#4dd2ff" stroke="none" /><path d="M 83.84228863543731 86.58626213691792 l -25.686386855960052 -21.32421183678512 a54.38431488250319,54.38431488250319 0 0,0 0.6041563549934396,-0.7151305635883493 l 25.31551988747949 21.763201350002586" fill="#8dff24" stroke="none" /><path d="M 86.93701828274178 83.55741782278169 l -8.369131425795748 -10.534358402935105 a34.45418402519199,34.45418402519199 0 0,0 0.46753908503456654,-0.3649216718515592 l 8.186559785601757 10.676858464009886" fill="#ff6008" stroke="none" /><line stroke="#e1ed5e" stroke-width="0.3" x1="56.762969772571076" x2="54.21961505331055" y1="26.818313649435495" y2="22.513508569990535" /><path d="M 56.25429882871897 25.957352633546506 a86.0,86.0 0 0,1 42.265352541879196,-11.944610805530505" fill="none" id="id12" stroke="none" /><text fill="#e1ed5e" style="font-size:6.75px; font-family:Arial;" text-anchor="middle"><textPath startOffset="22.20632615414155" xlink:href="#id12">December</textPath></text><path d="M 90.91171255644093 81.06846463323043 l -12.709036579209982 -26.47380785115879 a50.366343199516244,50.366343199516244 0 0,0 0.7848078529544527,-0.36847781008652447 l 12.251450514955922 26.688650643885317" fill="#bfff1e" stroke="none" /><path d="M 92.23578459929587 80.48803036053334 l -3.5189060532842706 -8.843235862517583 a30.517642582696503,30.517642582696503 0 0,0 0.48975996737578464,-0.19001925846418868 l 3.3661629209088098 8.902497824872322" fill="#ff2203" stroke="none" /><path d="M 92.91201910852362 80.23233633223022 l -10.48302177366278 -29.2360901950047 a52.05869790248036,52.05869790248036 0 0,0 0.8461224018642595,-0.29519549196157296 l 9.978217367735237 29.412206540138484" fill="#aaff21" stroke="none" /><path d="M 94.28887869178378 79.79150937346287 l -8.620145038278997 -30.50191211222233 a52.69658566758731,52.69658566758731 0 0,0 0.8750195549043155,-0.23917589841053238 l 8.093827594150959 30.645774551459155" fill="#a2ff22" stroke="none" /><path d="M 95.33964822691252 79.52364482259891 l -2.781081057581955 -12.219335853796155 a33.53182271486113,33.53182271486113 0 0,0 0.5639051030546401,-0.12324781418236372 l 2.570333230373794 12.265397166074386" fill="#ff5207" stroke="none" /><path d="M 96.75951476605007 79.25152402106235 l -2.382623762144629 -15.25568188917348 a36.44061934948181,36.44061934948181 0 0,0 0.6205855167507947,-0.09145817334801022 l 2.119669264965186 15.29443454668246" fill="#ff7e0b" stroke="none" /><path d="M 98.55514903715128 79.0497635885617 l -1.0120360666811175 -14.67445113651599 a35.70930770492816,35.70930770492816 0 0,0 0.6135844490286544,-0.03701308959185332 l 0.7592895688128402 14.68969749548815" fill="#ff730a" stroke="none" /><path d="M 99.27714615592234 79.0124445844662 l -0.8241776601965165 -23.929421496942293 a44.94361046279134,44.94361046279134 0 0,0 0.773401130449026,-0.019974669443907217 l 0.41214989455261136 23.94006295852856" fill="#fff817" stroke="none" /></svg>