<?xml version="1.0" encoding="utf-8" ?>
<svg baseProfile="full" height="200mm" version="1.1" viewBox="0,0,200,200" width="200mm" xmlns="http://www.w3.org/2000/svg" xmlns:ev="http://www.w3.org/2001/xml-events" xmlns:xlink="http://www.w3.org/1999/xlink"><defs /><rect fill="#1a1a1a" height="200" width="200" x="0" y="0" /><text alignment-baseline="middle" fill="#e1ed5e" style="dominant-baseline: central; font-size:9.0px; font-family:Arial;" text-anchor="middle" x="100.0" y="100.0">2024</text><line stroke="#e1ed5e" stroke-width="0.3" x1="100.0" x2="100.0" y1="15.0" y2="10.0" /><path d="M 100.0 14.0 a86.0,86.0 0 0,1 42.35913384403234,11.155469271406648" fill="none" id="id109" stroke="none" /><text fill="#e1ed5e" style="font-size:6.75px; font-family:Arial;" text-anchor="middle"><textPath startOffset="22.145653131862478" xlink:href="#id109">January</textPath></text><path d="M 100.0 79.0 l 0.0 -5.9407157218007285 a26.94071572180073,26.94071572180073 0 0,0 0.4624732099082605,0.003969776289824971 l -0.10198028505940572 5.939840343705338" fill="#ff4b07" stroke="none" /><path d="M 100.72087961077811 79.0123766808444 l 0.10391032515479329 -3.025235740772034 a24.027019762558265,24.027019762558265 0 0,0 0.41209112228609995,0.01769696590993229 l -0.1558272080417295 3.023006206436271" fill="#ff2203" stroke="none" /><path d="M 102.15924093988457 79.11130261209362 l 2.6340665620086985 -25.482204554876613 a46.617983051553196,46.617983051553196 0 0,0 0.7953118889120975,0.08911635601445357 l -3.0711143525215925 25.43323243835519" fill="#bbff1f" stroke="none" /><path d="M 102.87502721639298 79.19773525538626 l 0.4185618898813757 -3.0285053288094153 a24.05729268835813,24.05729268835813 0 0,0 0.4086015394754867,0.060050355336113186 l -0.4704885349645444 3.02087390017442" fill="#ff2303" stroke="none" /><path d="M 103.23170211078529 79.25015418208739 l 0.7227903103574393 -4.640832287278372 a25.696780828545442,25.696780828545442 0 0,0 0.43528204951562727,0.07162549560355044 l -0.8023498629261372 4.627740793179154" fill="#ff3a05" stroke="none" /><path d="M 103.58742460773223 79.30868818359171 l 0.6151958295985809 -3.548286063194767 a24.60122200024071,24.60122200024071 0 0,0 0.41548566455643104,0.07571532863787671 l -0.6760162277060656 3.5372025606255244" fill="#ff2a04" stroke="none" /><path d="M 103.94208987418118 79.37332000966035 l 1.2253499568289044 -6.4115487577350745 a27.52759067263832,27.52759067263832 0 0,0 0.46338571655442357,0.09269012118476698 l -1.3352321589142848 6.389569239887448" fill="#ff5307" stroke="none" /><path d="M 104.29559338865022 79.4440306129975 l 1.398452348695338 -6.69210073395611 a27.836657165968425,27.836657165968425 0 0,0 0.46691032616868483,0.10176093243156975 l -1.5131250914831569 6.667108343390822" fill="#ff5708" stroke="none" /><path d="M 104.64783097203109 79.52079915486377 l 0.7104968195483529 -3.130580082391156 a24.210192732976097,24.210192732976097 0 0,0 0.4045037229410291,0.09546177720754763 l -0.7641326962292669 3.117922161537381" fill="#ff2503" stroke="none" /><path d="M 104.9986988182912 79.60360301121754 l 2.146267232100927 -8.757502722460613 a30.016668839737612,30.016668839737612 0 0,0 0.4994126289338363,0.12694873733708767 l -2.2962851542601577 8.719368753288258" fill="#ff750a" stroke="none" /><path d="M 105.3480935250658 79.69241777938227 l 1.8393576431095782 -6.984340568372877 a28.222482240496323,28.222482240496323 0 0,0 0.4674430588111878,0.12740368430594182 l -1.9589821028554586 6.951736389922793" fill="#ff5d08" stroke="none" /><path d="M 106.04205211174951 79.88797359093562 l 2.0433819611151014 -6.801753974586787 a28.102060755148308,28.102060755148308 0 0,0 0.4608194217450414,0.14276303481067354 l -2.159842015731773 6.765674351969467" fill="#ff5b08" stroke="none" /><path d="M 106.72888874123014 80.10723608172694 l 4.4606858765359725 -13.187225182041418 a34.92122934553536,34.92122934553536 0 0,0 0.5662131916784244,0.19695834001509258 l -4.686404840259415 13.108708409457735" fill="#ffb610" stroke="none" /><path d="M 107.06938296918511 80.22567764915836 l 2.9423416606433763 -8.230253293319537 a29.74039150840251,29.74039150840251 0 0,0 0.4792605295474743,0.17599110489987604 l -3.0831913418449752 8.178531339410938" fill="#ff710a" stroke="none" /><path d="M 107.74402155503746 80.48000691201159 l 3.33406943311866 -8.404032946811034 a30.041227170906698,30.041227170906698 0 0,0 0.4777206568613733,0.19428483227645257 l -3.4778445511704734 8.345560857955288" fill="#ff750a" stroke="none" /><path d="M 108.07796709384702 80.6158196554323 l 2.7741852627562364 -6.657034723930651 a28.211949472071495,28.211949472071495 0 0,0 0.445432995523953,0.19012885870600854 l -2.8880533334506193 6.608431215565241" fill="#ff5d08" stroke="none" /><path d="M 108.4095320186766 80.7573450057729 l 2.8429104508816136 -6.505135465838493 a28.099220186798103,28.099220186798103 0 0,0 0.4403369882706539,0.1969571339930872 l -2.954160842007899 6.455374580935554" fill="#ff5b08" stroke="none" /><path d="M 109.06512990194946 81.05736502329252 l 9.615196998225487 -20.092063647907604 a43.27426844918267,43.27426844918267 0 0,0 0.6673299194261767,0.3264245039200556 l -9.95868716691373 19.924045393890328" fill="#e2ff1b" stroke="none" /><path d="M 109.3889696526874 81.21577127319529 l 3.2850198663138044 -6.572240280196639 a28.347496024001344,28.347496024001344 0 0,0 0.43340996694711376,0.2213022172914751 l -3.397357054974497 6.51488011123233" fill="#ff5e08" stroke="none" /><path d="M 110.02825361518725 81.54914285379988 l 1.4300744899471314 -2.6311759888560435 a23.994695331937812,23.994695331937812 0 0,0 0.3602127217531946,0.1998039246555174 l -1.4750313998564262 2.6062391487673797" fill="#ff2203" stroke="none" /><path d="M 110.34350942703115 81.72400993836675 l 2.219821427223211 -3.922211762722434 a25.506811764473586,25.506811764473586 0 0,0 0.37921041684455625,0.21893723624471476 l -2.286824311928165 3.8835276292015473" fill="#ff3705" stroke="none" /><line stroke="#e1ed5e" stroke-width="0.3" x1="143.13028292997686" x2="145.6673583964461" y1="26.7553504044142" y2="22.446841604673864" /><path d="M 143.63769802327073 25.89364864446614 a86.0,86.0 0 0,1 29.32050498858742,28.57503671076993" fill="none" id="id110" stroke="none" /><text fill="#e1ed5e" style="font-size:6.75px; font-family:Arial;" text-anchor="middle"><textPath startOffset="20.669276256404974" xlink:href="#id110">February</textPath></text><path d="M 110.65571695917076 81.90426304109057 l 6.440027640098858 -10.936574857409154 a33.691833028248965,33.691833028248965 0 0,0 0.49585914097943334,0.29774916696783094 l -6.6268195376357255 10.824411689905402" fill="#ffa60f" stroke="none" /><path d="M 110.96478420261332 82.08984904055464 l 2.2964511603904727 -3.7510803854930446 a25.39821463670083,25.39821463670083 0 0,0 0.36988976669529866,0.23083857134672872 l -2.360505055875484 3.7111060173047705" fill="#ff3605" stroke="none" /><path d="M 111.27062007382361 82.28071324371311 l 5.843224920478514 -9.186520108854564 a31.887397723133404,31.887397723133404 0 0,0 0.4593521886277641,0.29774653893281927 l -6.000062741363285 9.08485972821785" fill="#ff8e0d" stroke="none" /><path d="M 111.8722381534696 82.67804972795209 l 6.228989414103226 -9.08828171078056 a32.018038553913236,32.018038553913236 0 0,0 0.4506994936916445,0.3146232496833962 l -6.384083998968631 8.980013645292036" fill="#ff900d" stroke="none" /><path d="M 112.16784306229584 82.88440491214696 l 5.097565628236467 -7.170364441747702 a29.797687284829898,29.797687284829898 0 0,0 0.4143566921004043,0.29996229080378 l -5.219903330710839 7.081801379570847" fill="#ff720a" stroke="none" /><path d="M 112.7482090630111 83.31218511350987 l 2.565262226601574 -3.3580106006452044 a25.225731355076235,25.225731355076235 0 0,0 0.3418567753789553,0.2658298962368959 l -2.622528946615755 3.313479652787518" fill="#ff3304" stroke="none" /><path d="M 113.31354834802062 83.75963576809568 l 39.94064504406186 -48.72109269571298 a84.0,84.0 0 0,0 1.1073026633524292,0.9237512643525192 l -40.77112204157618 48.028279247448594" fill="#4dd2ff" stroke="none" /><path d="M 114.91283532996326 85.21462403516908 l 4.604197639675742 -4.564845759559574 a27.48355247636392,27.48355247636392 0 0,0 0.32929640734845017,0.33788712336964666 l -4.681880848175004 4.485135944122186" fill="#ff5307" stroke="none" /><path d="M 115.41159269507618 85.73525988315684 l 5.196438519730323 -4.8097459155398345 a28.080722354491044,28.080722354491044 0 0,0 0.3244022764390673,0.35657492872097457 l -5.278238497011268 4.719833411261188" fill="#ff5b08" stroke="none" /><path d="M 115.6541949942343 86.00192230759917 l 4.496729313295498 -4.0210030801577785 a27.03233290590708,27.03233290590708 0 0,0 0.3063521974759056,0.34857256443034657 l -4.565092574729994 3.9432182379161342" fill="#ff4c07" stroke="none" /><path d="M 115.8921839302757 86.27271002978787 l 2.7370335802957517 -2.3641844179358062 a24.616727910926816,24.616727910926816 0 0,0 0.27348649763263977,0.32216640653923495 l -2.7772146414355037 2.3168512289470193" fill="#ff2b04" stroke="none" /><path d="M 116.1254893667686 86.54754324733833 l 4.613442442174736 -3.848697768028493 a27.008021777331262,27.008021777331262 0 0,0 0.293941394441975,0.35856070701701465 l -4.6788306558553385 3.768934779312983" fill="#ff4c07" stroke="none" /><path d="M 116.35404254752997 86.82634096563983 l 5.173723583109826 -4.167585489877003 a27.643506945120183,27.643506945120183 0 0,0 0.2945133561150754,0.3721080044591217 l -5.244503369866461 4.078157541503202" fill="#ff5507" stroke="none" /><path d="M 116.57777611688842 87.10902102172516 l 4.745727448679192 -3.690306368368794 a27.011679474952935,27.011679474952935 0 0,0 0.2814977448301289,0.3684895841816443 l -4.808377170863628 3.6082958709462676" fill="#ff4c07" stroke="none" /><path d="M 117.01052211995028 87.68569379921539 l 8.118698358302298 -5.877311515246659 a31.022776745011903,31.022776745011903 0 0,0 0.3085804601766114,0.43405706182815734 l -8.21839391700887 5.7370772267089984" fill="#ff830c" stroke="none" /><path d="M 117.21940702142032 87.97951657250589 l 5.932533977787943 -4.141369460303496 a28.235046676030702,28.235046676030702 0 0,0 0.27402820447968573,0.39981533976797196 l -6.002751919082955 4.0389193854654755" fill="#ff5d08" stroke="none" /><path d="M 117.42321728460499 88.27688183743584 l 5.690375316638026 -3.8287384664156994 a27.858542810861106,27.858542810861106 0 0,0 0.2635624582761358,0.39906715417427524 l -5.755262213834887 3.7304914339023654" fill="#ff5808" stroke="none" /><path d="M 117.81537515405839 88.88188828441811 l 6.134045476486366 -3.828098049369412 a28.230549673654746,28.230549673654746 0 0,0 0.25304256331499575,0.41332601028813803 l -6.198856004256765 3.7222349229567193" fill="#ff5d08" stroke="none" /><line stroke="#e1ed5e" stroke-width="0.3" x1="172.87174338648825" x2="177.1583165268699" y1="56.24261187166439" y2="53.66864786411523" /><path d="M 173.72905801456457 55.72781907015455 a86.0,86.0 0 0,1 12.242430191666344,42.057860355516425" fill="none" id="id111" stroke="none" /><text fill="#e1ed5e" style="font-size:6.75px; font-family:Arial;" text-anchor="middle"><textPath startOffset="22.145653131862474" xlink:href="#id111">March</textPath></text><path d="M 118.18653347947321 89.5 l 10.436077714689635 -6.0252722778599175 a33.05054455571983,33.05054455571983 0 0,0 0.2794606657604882,0.49378021899497854 l -10.5379717454715 5.845235288765821" fill="#ff9d0e" stroke="none" /><path d="M 118.36410011445183 89.81374322990088 l 11.496114175188097 -6.376700743135635 a34.14621441695164,34.14621441695164 0 0,0 0.27992521928142394,0.5150308748432976 l -11.603884744084862 6.178415034817735" fill="#ffac0f" stroke="none" /><path d="M 118.70294669586156 90.45014215332178 l 5.645681765807444 -2.882725336696511 a27.339071538293496,27.339071538293496 0 0,0 0.20983399634536556,0.41980855491237823 l -5.694335675364546 2.785384925620382" fill="#ff5107" stroke="none" /><path d="M 119.16976305983485 91.42560881287824 l 11.104482572851092 -4.966893811520165 a33.16468525468994,33.16468525468994 0 0,0 0.2279931840166006,0.5216930230271278 l -11.188109638884663 4.775538718717188" fill="#ff9f0e" stroke="none" /><path d="M 119.71291397450082 92.76114493625339 l 6.21876074860752 -2.2836150857004953 a27.624793061527313,27.624793061527313 0 0,0 0.15964477088181958,0.44655483721902456 l -6.257045689533283 2.176525292100554" fill="#ff5507" stroke="none" /><path d="M 119.83427380445688 93.10060997987247 l 3.4042838254018797 -1.1841866297812984 a24.604364900789825,24.604364900789825 0 0,0 0.13534108757116364,0.4001118768688779 l -3.4241103345454085 1.1255730784382587" fill="#ff2a04" stroke="none" /><path d="M 119.94978838288452 93.4421083053983 l 4.5756697448874055 -1.5041135294939252 a25.816545559203675,25.816545559203675 0 0,0 0.134781157620604,0.4222000565784595 l -4.600815618285266 1.4253444392240786" fill="#ff3b05" stroke="none" /><path d="M 120.26092885502905 94.47779374421319 l 7.117899998132611 -1.9400152963863944 a28.37754428882873,28.37754428882873 0 0,0 0.12406462260210128,0.471093579862383 l -7.150154101539442 1.817541212151213" fill="#ff5f08" stroke="none" /><path d="M 120.43855184770803 95.1765574152323 l 3.524847373362202 -0.8318543824516814 a24.621675126112567,24.621675126112567 0 0,0 0.09354963072950272,0.4121969340594607 l -3.5386078656493707 0.7712231144531945" fill="#ff2b04" stroke="none" /><path d="M 120.77682067341334 96.94652285012252 l 25.317635883754587 -3.7208206142380136 a46.5895914931387,46.5895914931387 0 0,0 0.10949770531614371,0.7922708494467456 l -25.377778105625943 3.2856614565911824" fill="#bcff1f" stroke="none" /><path d="M 120.93736805541906 98.37931529534042 l 4.744930269379485 -0.3672876118863099 a25.759124231528194,25.759124231528194 0 0,0 0.030341842730712793,0.4411637341854547 l -4.750536073275264 0.28578045354652104" fill="#ff3b05" stroke="none" /><line stroke="#e1ed5e" stroke-width="0.3" x1="184.99686870605535" x2="189.99668451229388" y1="99.2704041080226" y2="99.22748670261217" /><path d="M 185.99683186730306 99.26182062694052 a86.0,86.0 0 0,1 -10.086455211305974,41.156179273409016" fill="none" id="id112" stroke="none" /><text fill="#e1ed5e" style="font-size:6.75px; font-family:Arial;" text-anchor="middle"><textPath startOffset="21.40746469413373" xlink:href="#id112">April</textPath></text><path d="M 120.99922638620191 99.81974689727618 l 5.447278093940387 -0.04675833098677726 a26.447478772261483,26.447478772261483 0 0,0 0.0,0.4540228674212076 l -5.447278093940387 -0.0467583309867766" fill="#ff4406" stroke="none" /><path d="M 120.99303781780057 100.54070618675476 l 3.6114082143771427 0.09301706505548733 a24.61260591059449,24.61260591059449 0 0,0 -0.014504223903185232,0.4222746534447398 l -3.609279303477112 -0.15499798306433785" fill="#ff2a04" stroke="none" /><path d="M 120.82617615685814 102.69636545807757 l 13.057604445565255 1.6905683178267061 a34.16658858983924,34.16658858983924 0 0,0 -0.08030040464336927,0.5810137263975792 l -13.026659524366677 -1.9144703524243705" fill="#ffac0f" stroke="none" /><path d="M 120.77682067341334 103.0534771498775 l 7.295626545777084 1.0722058635311957 a28.373994311717222,28.373994311717222 0 0,0 -0.07495937459482649,0.4812929571258796 l -7.2761456790439905 -1.1972870025885258" fill="#ff5f08" stroke="none" /><path d="M 120.65975698304385 103.76489593502545 l 4.934183234263448 0.8991725515743331 a26.0154436959048,26.0154436959048 0 0,0 -0.08383626346793355,0.43866675629714846 l -4.918020678513355 -0.9837418729047961" fill="#ff3e05" stroke="none" /><path d="M 120.51834098615036 104.47187691870673 l 12.501067433808226 2.724549463047589 a33.794524483591154,33.794524483591154 0 0,0 -0.1284017139340079,0.5657616432994249 l -12.452454858316553 -2.9387454402860307" fill="#ffa70f" stroke="none" /><path d="M 120.43855184770803 104.8234425847677 l 7.080067881970124 1.6708767421195942 a28.274557739179826,28.274557739179826 0 0,0 -0.11553855886937288,0.47143674781694267 l -7.050341796584455 -1.7921693145446365" fill="#ff5d08" stroke="none" /><path d="M 120.35273937422433 105.17358676015961 l 5.784432661102728 1.4703801626043482 a26.968389986705994,26.968389986705994 0 0,0 -0.11790389935904716,0.44770031024014223 l -5.758339280938951 -1.5694609772172936" fill="#ff4b07" stroke="none" /><path d="M 120.16314734710363 105.8691983318838 l 6.315143747311032 1.8382463069511084 a27.57724790731055,27.57724790731055 0 0,0 -0.1362101731961168,0.4533993666119403 l -6.282657254111285 -1.9463832771537721" fill="#ff5407" stroke="none" /><path d="M 119.83427380445688 106.89939002012753 l 11.897359467329261 4.138519210938611 a33.596606827005324,33.596606827005324 0 0,0 -0.19415611864885057,0.5430892191420188 l -11.824563178636467 -4.342143386461552" fill="#ffa40f" stroke="none" /><path d="M 119.58574465831526 107.57618678355244 l 7.028310003521777 2.7187012946574085 a28.53581304407004,28.53581304407004 0 0,0 -0.1806470855713153,0.45534866305008465 l -6.980604242984337 -2.8389509749210573" fill="#ff6109" stroke="none" /><path d="M 119.31412917781788 108.2440532568976 l 5.498980866893259 2.3471879424620705 a26.97896996243479,26.97896996243479 0 0,0 -0.18546900765036192,0.4243893855700174 l -5.457877977225931 -2.4412393978079328" fill="#ff4c07" stroke="none" /><path d="M 119.16976305983485 108.57439118712176 l 5.435455814984686 2.4312102498358135 a26.954407039794773,26.954407039794773 0 0,0 -0.19255141888521224,0.42075960026260384 l -5.392919931244418 -2.5241588323131063" fill="#ff4b07" stroke="none" /><path d="M 119.0197475246899 108.90220220490707 l 5.209616762096879 2.4383636936324593 a26.75201915072835,26.75201915072835 0 0,0 -0.1982461462527139,0.41425819868246605 l -5.166991357884254 -2.5274343943800286" fill="#ff4806" stroke="none" /><path d="M 118.8641267826498 109.22738970284198 l 5.273597631864827 2.579580865092441 a26.870695820970575,26.870695820970575 0 0,0 -0.206239099261199,0.41261635261795115 l -5.2285386193918955 -2.669729073874138" fill="#ff4a06" stroke="none" /><line stroke="#e1ed5e" stroke-width="0.3" x1="174.33088141563837" x2="178.70328620479359" y1="141.23008692659167" y2="143.65538615756765" /><path d="M 175.20536237346943 141.71514677278685 a86.0,86.0 0 0,1 -30.301960400862466,31.631185727798858" fill="none" id="id113" stroke="none" /><text fill="#e1ed5e" style="font-size:6.75px; font-family:Arial;" text-anchor="middle"><textPath startOffset="22.145653131862474" xlink:href="#id113">May</textPath></text><path d="M 118.36410011445183 110.18625677009912 l 5.206545299921513 2.887982911202744 a26.95386926758842,26.95386926758842 0 0,0 -0.22790989835711248,0.4026949524923421 l -5.1562020365430214 -2.9769346337942086" fill="#ff4b07" stroke="none" /><path d="M 118.18653347947321 110.5 l 4.165901839914984 2.405184548692472 a25.810369097384946,25.810369097384946 0 0,0 -0.22482833615076117,0.3818076669530908 l -4.123999793634457 -2.476343383939112" fill="#ff3b05" stroke="none" /><path d="M 118.00360718960297 110.81064883170644 l 5.763241835160234 3.460661130625937 a27.72243496893546,27.72243496893546 0 0,0 -0.2484881125931139,0.4058866573142058 l -5.702985758111716 -3.5590849040647003" fill="#ff5607" stroke="none" /><path d="M 117.62189284568427 111.42229804090321 l 5.003175282649426 3.242997771564468 a26.96228122913422,26.96228122913422 0 0,0 -0.25508315957978095,0.386228415219267 l -4.946767684148918 -3.328406065122796" fill="#ff4b07" stroke="none" /><path d="M 117.423217284605 111.72311816256416 l 5.020495214233562 3.3780132377188687 a27.05114415878072,27.05114415878072 0 0,0 -0.262538133830848,0.3830509833063933 l -4.961767343587394 -3.4636989560953064" fill="#ff4d07" stroke="none" /><path d="M 117.01052211995028 112.31430620078461 l 10.243548129855451 7.41553888610935 a33.64596754938368,33.64596754938368 0 0,0 -0.34270497656958215,0.4649451191131065 l -10.114741133702042 -7.590290314491334" fill="#ffa50f" stroke="none" /><path d="M 116.79662413953412 112.60449989151573 l 3.7000212433770776 2.7765649200295703 a25.625956112695025,25.625956112695025 0 0,0 -0.26705665826993724,0.349585738309249 l -3.651812607752836 -2.8396715715796965" fill="#ff3905" stroke="none" /><path d="M 116.35404254752997 113.17365903436017 l 2.1380373884306616 1.7222515763940835 a23.74542425987666,23.74542425987666 0 0,0 -0.25843296395824134,0.3152461954168984 l -2.1081576052337927 -1.7587000535094748" fill="#ff1e03" stroke="none" /><path d="M 116.1254893667686 113.45245675266167 l 2.5066115332314105 2.0911044917501145 a24.26432525553846,24.26432525553846 0 0,0 -0.269571380711845,0.31755440865095796 l -2.4703455890124513 -2.133825682850629" fill="#ff2603" stroke="none" /><path d="M 115.89218393027572 113.72728997021213 l 4.415456369007933 3.8139660473423844 a26.834602981942577,26.834602981942577 0 0,0 -0.3041113625126801,0.34602290558659576 l -4.349333942536668 -3.8892012307402735" fill="#ff4a06" stroke="none" /><path d="M 115.6541949942343 113.99807769240083 l 4.221567974013209 3.774952113842538 a26.66320577244181,26.66320577244181 0 0,0 -0.3080264296819259,0.3385750045087626 l -4.156143843489403 -3.846864693908972" fill="#ff4706" stroke="none" /><path d="M 115.41159269507618 114.26474011684316 l 0.7447631516523504 0.6893416545011612 a22.014822185749573,22.014822185749573 0 0,0 -0.25908737497816975,0.2751418138311108 l -0.7328199429379207 -0.7020249282767692" fill="#ff0500" stroke="none" /><path d="M 115.16444852881244 114.52719865689866 l 4.5123005102763605 4.322681816477721 a27.248714586340732,27.248714586340732 0 0,0 -0.3264826781713263,0.33499998935790615 l -4.437431030954227 -4.399504497903364" fill="#ff4f07" stroke="none" /><path d="M 114.91283532996324 114.78537596483092 l 3.377781324533353 3.3489115721586433 a25.75653396860617,25.75653396860617 0 0,0 -0.3139943240671525,0.31131062802174975 l -3.319795080336235 -3.406402210409055" fill="#ff3b05" stroke="none" /><path d="M 114.65682725009322 115.03919595460226 l 3.766893355867953 3.865164428312898 a26.397127162887447,26.397127162887447 0 0,0 -0.3272332616481779,0.313482062343105 l -3.699987608354463 -3.9292586209615834" fill="#ff4406" stroke="none" /><path d="M 114.13192950727249 115.5334660781643 l 4.032288391741668 4.432191295481753 a26.991967068827968,26.991967068827968 0 0,0 -0.3454135974393215,0.3088709687561797 l -3.9556097674789688 -4.50075779412132" fill="#ff4c07" stroke="none" /><path d="M 113.86319453409587 115.77377054828091 l 6.0273745571780815 6.858045816181997 a30.13028129190821,30.13028129190821 0 0,0 -0.39143614366428087,0.33811321794889126 l -5.908758933750945 -6.960503166595607" fill="#ff770a" stroke="none" /><path d="M 113.59037401385872 116.0094264158162 l 4.208804079737773 4.957960623043769 a27.50349177913449,27.50349177913449 0 0,0 -0.3625558297443691,0.30245696791767385 l -4.123073915831508 -5.029479774873313" fill="#ff5307" stroke="none" /><path d="M 113.31354834802062 116.24036423190432 l 3.4030928352719854 4.151219923876857 a26.367836407890213,26.367836407890213 0 0,0 -0.3525118932816144,0.2839586282200373 l -3.3313301716351185 -4.209026845890298" fill="#ff4306" stroke="none" /><path d="M 113.03279911837588 116.46651593811092 l 4.352843037411674 5.499674981606456 a28.013819744736193,28.013819744736193 0 0,0 -0.3796406910539591,0.2952108975997514 l -4.257792401722484 -5.573586930827001" fill="#ff5a08" stroke="none" /><path d="M 112.7482090630111 116.68781488649013 l 3.7953900296505423 4.968287382469274 a27.25210884358023,27.25210884358023 0 0,0 -0.3741935300440396,0.28080180098480156 l -3.709543510695736 -5.0327082107180905" fill="#ff4f07" stroke="none" /><path d="M 112.16784306229584 117.11559508785304 l 7.308896934730973 10.280878856938703 a33.61413669156828,33.61413669156828 0 0,0 -0.4731668481897077,0.33030720802573227 l -7.131334995367507 -10.404830880769557" fill="#ffa50f" stroke="none" /><path d="M 111.5731344415666 117.5232005979908 l 3.2909907618066967 4.982979466491615 a26.97165844282592,26.97165844282592 0 0,0 -0.3885387714672081,0.2518461374727833 l -3.204966358082479 -5.038739445668293" fill="#ff4c07" stroke="none" /><path d="M 111.27062007382361 117.71928675628689 l 6.516015494640787 10.244258638981757 a33.14097578404434,33.14097578404434 0 0,0 -0.4826523429367697,0.30121075880548515 l -6.339199022914302 -10.354605194628789" fill="#ff9f0e" stroke="none" /><line stroke="#e1ed5e" stroke-width="0.3" x1="143.1302829299769" x2="145.66735839644613" y1="173.24464959558577" y2="177.55315839532614" /><path d="M 143.63769802327073 174.10635135553383 a86.0,86.0 0 0,1 -40.68552437913181,11.842963189579606" fill="none" id="id114" stroke="none" /><text fill="#e1ed5e" style="font-size:6.75px; font-family:Arial;" text-anchor="middle"><textPath startOffset="21.407464694133747" xlink:href="#id114">June</textPath></text><path d="M 110.65571695917076 118.09573695890943 l 4.005201636357493 6.8017079992484195 a28.893343515578216,28.893343515578216 0 0,0 -0.4295580702028777,0.24800546746420854 l -3.887851098294217 -6.869460363988799" fill="#ff6609" stroke="none" /><path d="M 109.71004243097381 118.62028667847754 l 4.728400814647372 9.067332025103312 a31.226156869392433,31.226156869392433 0 0,0 -0.47742233053634925,0.2437752437406443 l -4.572051262397441 -9.147165220516792" fill="#ff850c" stroke="none" /><path d="M 109.3889696526874 118.78422872680471 l 3.2120996175883025 6.426350935407538 a28.18439769906457,28.18439769906457 0 0,0 -0.4346299202649416,0.21259927358463152 l -3.1013094480612917 -6.480543959089394" fill="#ff5c08" stroke="none" /><path d="M 109.06512990194946 118.94263497670748 l 5.453790622080373 11.39632483051812 a33.63408294227071,33.63408294227071 0 0,0 -0.5229479847253925,0.24476606204319265 l -5.257353923483474 -11.488267124131847" fill="#ffa50f" stroke="none" /><path d="M 107.407793817531 119.65005319985036 l 2.5734097274734817 6.826275041591323 a28.295236018725355,28.295236018725355 0 0,0 -0.4559721345354071,0.16743928367356342 l -2.4558484412839476 -6.869445174273609" fill="#ff5e08" stroke="none" /><path d="M 104.9986988182912 120.39639698878246 l 1.2494503963342554 5.098183993036977 a26.24905766016704,26.24905766016704 0 0,0 -0.4385690632181208,0.10350110475782977 l -1.1617491793762555 -5.118881241441032" fill="#ff4106" stroke="none" /><path d="M 104.29559338865022 120.5559693870025 l 1.09235205686272 5.2273000279840325 a26.34021522025977,26.34021522025977 0 0,0 -0.44339803105870296,0.08869202429784034 l -1.0024575402730584 -5.245281448944734" fill="#ff4306" stroke="none" /><path d="M 103.94208987418118 120.62667999033965 l 0.964613728075248 5.047266632252893 a26.13861655520673,26.13861655520673 0 0,0 -0.4414504478647211,0.08044697708909052 l -0.8778285466594697 -5.063081783273347" fill="#ff4006" stroke="none" /><path d="M 103.58742460773223 120.69131181640829 l 1.2542891073632851 7.234406256912002 a28.34233444177652,28.34233444177652 0 0,0 -0.4800955227111263,0.07899953556434051 l -1.1299160815990867 -7.254871790972013" fill="#ff5e08" stroke="none" /><line stroke="#e1ed5e" stroke-width="0.3" x1="101.45913802915013" x2="101.54496967792366" y1="184.9874750549273" y2="189.98673829345242" /><path d="M 101.47630435890484 185.9873277026323 a86.0,86.0 0 0,1 -42.54439059252881,-10.42667462771756" fill="none" id="id115" stroke="none" /><text fill="#e1ed5e" style="font-size:6.75px; font-family:Arial;" text-anchor="middle"><textPath startOffset="22.145653131862474" xlink:href="#id115">July</textPath></text><path d="M 96.05791012581884 120.62667999033965 l -0.5854684386127499 3.0634182662356033 a24.11886273608147,24.11886273608147 0 0,0 -0.406004892485772,-0.08121234932733087 l 0.63796981662948 -3.052916520245411" fill="#ff2303" stroke="none" /><path d="M 95.70440661134978 120.55596938700252 l -1.047223931286988 5.011345610538806 a26.119595959695133,26.119595959695133 0 0,0 -0.43810968379655146,-0.09548396647439077 l 1.133096031702676 -4.992630185930696" fill="#ff4006" stroke="none" /><path d="M 95.35216902796893 120.47920084513623 l -1.443258070643587 6.359261358241196 a27.520981435405066,27.520981435405066 0 0,0 -0.4598203563431002,-0.1085163520710534 l 1.5522105807265751 -6.333548862523915" fill="#ff5307" stroke="none" /><path d="M 95.00130118170881 120.39639698878247 l -1.4293321448395235 5.83216291173568 a27.004757664493777,27.004757664493777 0 0,0 -0.44930092312883385,-0.11421053768175805 l 1.5292383611937361 -5.806767142218659" fill="#ff4c07" stroke="none" /><path d="M 94.6519064749342 120.30758222061772 l -0.9439364429149139 3.5842804236106107 a24.7064918944119,24.7064918944119 0 0,0 -0.4092084475491742,-0.1115315820486643 l 1.0053262913987833 -3.567548347417802" fill="#ff2c04" stroke="none" /><path d="M 93.95794788825049 120.11202640906438 l -3.816638367957966 12.704347832576483 a34.265262239505844,34.265262239505844 0 0,0 -0.5618840009182734,-0.1740730997814508 l 4.034163001747873 -12.636958144988382" fill="#ffad10" stroke="none" /><path d="M 93.61358852112213 120.00534299687104 l -0.833145599376904 2.6098167236786334 a23.739575682647548,23.739575682647548 0 0,0 -0.38715547091415864,-0.12726569317425887 l 0.8778238079388062 -2.595130109102353" fill="#ff1e03" stroke="none" /><path d="M 93.27111125876986 119.89276391827306 l -5.291216767120669 15.642542184387061 a37.51320988987264,37.51320988987264 0 0,0 -0.6082395923602494,-0.21157730374952238 l 5.5589621315259405 -15.549406448068947" fill="#ffd614" stroke="none" /><path d="M 92.59220618246901 119.65005319985036 l -2.1046554402081576 5.582848603260519 a26.966386934227927,26.966386934227927 0 0,0 -0.43175463179140655,-0.1670119667227888 l 2.2001823344930926 -5.54589674839969" fill="#ff4b07" stroke="none" /><path d="M 91.92203290615298 119.3841803445677 l -1.2618141746476939 3.0278946718331294 a24.280292845929658,24.280292845929658 0 0,0 -0.3833568320143136,-0.16363223578059352 l 1.3136060818324387 -3.0057877863931317" fill="#ff2603" stroke="none" /><path d="M 91.26138138417905 119.09545874513695 l -2.5020976087850966 5.467534831919547 a27.01285536015474,27.01285536015474 0 0,0 -0.4200001021736925,-0.19658125486567374 l 2.5955864248302793 -5.423777345483347" fill="#ff4c07" stroke="none" /><path d="M 90.93487009805054 118.94263497670748 l -1.303167635994923 2.7231191509789627 a24.018877903780307,24.018877903780307 0 0,0 -0.3703936873030954,-0.1811781131243122 l 1.3497215725600877 -2.7003472877574293" fill="#ff2203" stroke="none" /><path d="M 90.6110303473126 118.78422872680471 l -4.888930376481972 9.781135717589098 a31.934909974571596,31.934909974571596 0 0,0 -0.48825858427915875,-0.24930831211308763 l 5.056116182474713 -9.695769453803175" fill="#ff8f0d" stroke="none" /><path d="M 90.28995756902619 118.62028667847754 l -3.152785760266924 6.045882405696587 a27.818559386971227,27.818559386971227 0 0,0 -0.42153222503047477,-0.2244421669317313 l 3.2561068010839604 -5.9908697710422825" fill="#ff5708" stroke="none" /><line stroke="#e1ed5e" stroke-width="0.3" x1="58.13341422392154" x2="55.67067388415222" y1="173.97424548756322" y2="178.32567169271397" /><path d="M 57.64086615596768 174.84453072859336 a86.0,86.0 0 0,1 -31.369924170532247,-30.572349798747897" fill="none" id="id116" stroke="none" /><text fill="#e1ed5e" style="font-size:6.75px; font-family:Arial;" text-anchor="middle"><textPath startOffset="22.145653131862474" xlink:href="#id116">August</textPath></text><path d="M 89.65649057296885 118.27599006163327 l -2.9485518765119747 5.209808641012677 a26.986323098902417,26.986323098902417 0 0,0 -0.4012063493442959,-0.23163659379451804 l 3.0375506937166703 -5.158425149941987" fill="#ff4c07" stroke="none" /><path d="M 89.03521579738668 117.91015095944536 l -1.8710183752430498 3.056167903469769 a24.583416249153306,24.583416249153306 0 0,0 -0.3580233583754732,-0.2234330549193902 l 1.9232058624082355 -3.023599051708831" fill="#ff2a04" stroke="none" /><path d="M 88.4268655584334 117.5232005979908 l -3.3156173887480445 5.020267318466722 a27.01634462256223,27.01634462256223 0 0,0 -0.3847947123170887,-0.25890705528932334 l 3.401308389162139 -4.962610589120278" fill="#ff4c07" stroke="none" /><path d="M 88.1277618465304 117.32195027204791 l -3.4009394139229325 4.962072243219317 a27.01569196718898,27.01569196718898 0 0,0 -0.3802843409923113,-0.2654680043829133 l 3.485618846089009 -4.902959423031274" fill="#ff4c07" stroke="none" /><path d="M 87.83215693770417 117.11559508785305 l -3.484348206521406 4.901172109352888 a27.013499020519383,27.013499020519383 0 0,0 -0.37564069953505985,-0.27193489787867864 l 3.5679699164304197 -4.840636440101144" fill="#ff4c07" stroke="none" /><path d="M 87.54013794807813 116.9041958592261 l -3.5769044023005483 4.852757786101668 a27.028557309486857,27.028557309486857 0 0,0 -0.37112398639259975,-0.2784983582036708 l 3.6596813776039143 -4.790640400633983" fill="#ff4c07" stroke="none" /><path d="M 87.2517909369889 116.68781488649013 l -3.6592842631738667 4.790120565097506 a27.027903146773507,27.027903146773507 0 0,0 -0.3662796406159028,-0.2848212639655253 l 3.7409738484249977 -4.726598249511187" fill="#ff4c07" stroke="none" /><path d="M 86.96720088162412 116.46651593811092 l -4.857000657159127 6.1366616646273195 a28.826178618569266,28.826178618569266 0 0,0 -0.385377497179283,-0.31043283228596885 l 4.961628924693673 -6.05238053854794" fill="#ff6509" stroke="none" /><path d="M 85.60350026404147 115.28858382429668 l -2.1356619669787507 2.267998999851545 a24.11526427458846,24.11526427458846 0 0,0 -0.29894603815736215,-0.2863835421217861 l 2.174280491001427 -2.231003327424176" fill="#ff2303" stroke="none" /><path d="M 85.34317274990678 115.03919595460226 l -3.372440680797994 3.4604212343070877 a25.831963499897803,25.831963499897803 0 0,0 -0.31491387499436807,-0.31222231958655733 l 3.4313464759223247 -3.4020189044918707" fill="#ff3c05" stroke="none" /><path d="M 85.08716467003676 114.78537596483092 l -9.819495733755527 9.735568924101207 a34.827646175006365,34.827646175006365 0 0,0 -0.4172902601181489,-0.42817656814669086 l 9.985172795024486 -9.56556966388678" fill="#ffb410" stroke="none" /><path d="M 83.8745106332314 113.45245675266167 l -4.711861595288943 3.9308025259548436 a27.13619166838943,27.13619166838943 0 0,0 -0.29533632950288546,-0.36026230097806083 l 4.778644744030459 -3.8493379432782877" fill="#ff4e07" stroke="none" /><path d="M 83.20337586046588 112.60449989151573 l -7.209542942698747 5.4101754307425285 a30.013739936010325,30.013739936010325 0 0,0 -0.3057084931927973,-0.414752284032136 l 7.3013534554753745 -5.285616837441513" fill="#ff750a" stroke="none" /><path d="M 82.98947788004972 112.3143062007846 l -7.047611364463743 5.101927131581166 a29.70048771049546,29.70048771049546 0 0,0 -0.29542778328661706,-0.41555617462752714 l 7.13415424628032 -4.980193730244134" fill="#ff710a" stroke="none" /><path d="M 82.78059297857968 112.02048342749411 l -6.7137334960629635 4.686707395071512 a29.187761822572504,29.187761822572504 0 0,0 -0.28327454375381483,-0.4133060250991201 l 6.793197776632104 -4.570766634902341" fill="#ff6a09" stroke="none" /><path d="M 82.37810715431573 111.42229804090323 l -7.629413369335088 4.945293570045716 a30.091967710794208,30.091967710794208 0 0,0 -0.27725063696207847,-0.43588405141116887 l 7.713181697923056 -4.813595843955874" fill="#ff760a" stroke="none" /><path d="M 82.18462484594161 111.11811171558189 l -3.361172041678629 2.0976199452168447 a24.962005417504322,24.962005417504322 0 0,0 -0.22374519481009786,-0.36547096061810996 l 3.3966852009441313 -2.0396118684741777" fill="#ff2f04" stroke="none" /><line stroke="#e1ed5e" stroke-width="0.3" x1="26.387840678322732" x2="22.057713659400548" y1="142.50000000000003" y2="145.00000000000006" /><path d="M 25.521815274538298 143.00000000000003 a86.0,86.0 0 0,1 -11.493303480769221,-40.785679425670985" fill="none" id="id117" stroke="none" /><text fill="#e1ed5e" style="font-size:6.75px; font-family:Arial;" text-anchor="middle"><textPath startOffset="21.40746469413373" xlink:href="#id117">September</textPath></text><path d="M 81.63589988554817 110.18625677009913 l -7.037498822976784 3.9035819660827284 a29.047629579529982,29.047629579529982 0 0,0 -0.23812783403654256,-0.4381283937303208 l 7.103472006628656 -3.782198738877821" fill="#ff6809" stroke="none" /><path d="M 81.4637452351635 109.86951160357371 l -2.7685057989452333 1.4740734012290708 a24.13648158786313,24.13648158786313 0 0,0 -0.19158841543007088,-0.3673960484666402 l 2.7934022833502534 -1.4263311096579276" fill="#ff2403" stroke="none" /><path d="M 81.29705330413844 109.54985784667822 l -5.312992164296592 2.7128516556578064 a26.965521757858426,26.965521757858426 0 0,0 -0.2069669112963055,-0.4140724642301212 l 5.358778988804634 -2.6212473352639325" fill="#ff4b07" stroke="none" /><path d="M 81.1358732173502 109.22738970284198 l -6.500301496985253 3.1796231964374333 a28.236292090776306,28.236292090776306 0 0,0 -0.2092453679822513,-0.43724234171230575 l 6.553926122927416 -3.067568352660023" fill="#ff5d08" stroke="none" /><path d="M 80.68587082218212 108.24405325689762 l -8.304147189652962 3.544546640147839 a30.028990609786042,30.028990609786042 0 0,0 -0.19829737677304218,-0.47584151662999186 l 8.36377041096249 -3.4014726140765656" fill="#ff750a" stroke="none" /><path d="M 80.5471966667186 107.91128576633889 l -11.19966250762729 4.554805241504752 a33.090438001693386,33.090438001693386 0 0,0 -0.20948031780459184,-0.5280272435392874 l 11.276201500398006 -4.361876980751899" fill="#ff9e0e" stroke="none" /><path d="M 80.28708602549918 107.23885506374661 l -16.970296529271593 6.2317279486484365 a39.078312905726946,39.078312905726946 0 0,0 -0.22583511472421908,-0.6317010092905999 l 17.074771814039753 -5.939491982976914" fill="#ffea16" stroke="none" /><path d="M 80.05021161711548 106.5578916946017 l -4.110293311089092 1.351135052153905 a25.326670432600878,25.326670432600878 0 0,0 -0.1322236529187616,-0.41418870952608466 l 4.1328816797851085 -1.2803773089364285" fill="#ff3505" stroke="none" /><path d="M 79.56144815229197 104.8234425847677 l -5.970330156891686 1.408981660660246 a27.134335457273853,27.134335457273853 0 0,0 -0.10309644039719737,-0.4542619389599228 l 5.99363745884655 -1.306285387761297" fill="#ff4e07" stroke="none" /><path d="M 79.48165901384964 104.47187691870673 l -0.6380989210270207 0.13907068991194174 a21.65307801203871,21.65307801203871 0 0,0 -0.076035597157443,-0.36385785759438566 l 0.6403922290088305 -0.12809638103214702" fill="#ff0000" stroke="none" /><path d="M 79.34024301695615 103.76489593502545 l -11.865780896908923 2.162340549375294 a33.061196994698385,33.061196994698385 0 0,0 -0.09695618337350925,-0.5592175005953157 l 11.901151897774666 -1.9583300158593855" fill="#ff9d0e" stroke="none" /><path d="M 79.2786578344484 103.40968896794605 l -25.23941528936307 4.153136181140761 a46.57883156612191,46.57883156612191 0 0,0 -0.12305352729673368,-0.7900919178893835 l 25.306990308798074 -3.719256081319928" fill="#bcff1f" stroke="none" /><path d="M 79.13060592940153 102.33845913500099 l -5.98357243343822 0.6704717717045056 a27.021019138223558,27.021019138223558 0 0,0 -0.04769545391243146,-0.4614102507749205 l 5.9942002798323175 -0.5676569986466536" fill="#ff4c07" stroke="none" /><path d="M 79.06263194458094 101.62068470465958 l -6.023270410067108 0.4662392235636222 a27.041288392915803,27.041288392915803 0 0,0 -0.03185211237303871,-0.463122723326238 l 6.030386483605214 -0.3627730760830409" fill="#ff4c07" stroke="none" /><path d="M 79.03789590574601 101.26102812881392 l -10.702851619360924 0.6438569758956272 a31.722200547996955,31.722200547996955 0 0,0 -0.02803398195765061,-0.5438517606399539 l 10.712327190775147 -0.4600334218789425" fill="#ff8c0c" stroke="none" /><path d="M 79.00696218219943 100.54070618675478 l -4.805924181267343 0.12378355912273842 a25.807518029669705,25.807518029669705 0 0,0 -0.007605313837870033,-0.4429714030942252 l 4.80734092670388 -0.0412652400594608" fill="#ff3b05" stroke="none" /><line stroke="#e1ed5e" stroke-width="0.3" x1="15.003131293944662" x2="10.003315487706104" y1="100.72959589197737" y2="100.7725132973878" /><path d="M 14.003168132696942 100.73817937305945 a86.0,86.0 0 0,1 10.791469493833604,-42.45332614584628" fill="none" id="id118" stroke="none" /><text fill="#e1ed5e" style="font-size:6.75px; font-family:Arial;" text-anchor="middle"><textPath startOffset="22.145653131862435" xlink:href="#id118">October</textPath></text><path d="M 79.00077361379809 99.81974689727619 l -10.228247540917874 -0.0877972036098005 a31.228624350676597,31.228624350676597 0 0,0 0.009202879898748847,-0.5360216170116823 l 10.225233229420459 0.2633657365905352" fill="#ff850c" stroke="none" /><path d="M 79.00696218219943 99.45929381324524 l -7.900221425554177 -0.20348167990759167 a28.90284147423212,28.90284147423212 0 0,0 0.017032462377334974,-0.4958815580696015 l 7.895564276179991 0.3390695025413317" fill="#ff6609" stroke="none" /><path d="M 79.03789590574601 98.7389718711861 l -5.7551904211140785 -0.3462179643356794 a26.76559482292261,26.76559482292261 0 0,0 0.03152737109428487,-0.45840105640405104 l 5.74839908885473 0.44496244489405545" fill="#ff4906" stroke="none" /><path d="M 79.0935383218832 98.0201363427161 l -8.98850337349575 -0.851220614781766 a30.028719146721418,30.028719146721418 0 0,0 0.05300441788614376,-0.5127696613167053 l 8.972566563127943 1.005394798381384" fill="#ff750a" stroke="none" /><path d="M 79.13060592940154 97.66154086499901 l -18.740695415126343 -2.0999340106148408 a39.85797941168339,39.85797941168339 0 0,0 0.08202755790847852,-0.67930585030938 l 18.7018857709582 2.4213335378476573" fill="#fff316" stroke="none" /><path d="M 79.17382384314186 97.30363454192245 l -5.970303868886056 -0.7729753654748563 a27.020134483752567,27.020134483752567 0 0,0 0.06350437143756699,-0.45948599705498044 l 5.956154980893281 0.8753496707299038" fill="#ff4c07" stroke="none" /><path d="M 79.22317932658666 96.9465228501225 l -8.221261380105704 -1.2082423081913665 a29.309572080156784,29.309572080156784 0 0,0 0.07743101547966633,-0.49716266464208864 l 8.19930887248777 1.349193154764905" fill="#ff6c09" stroke="none" /><path d="M 79.407916724674 95.88100663000787 l -14.581632644455516 -2.9167349113307353 a35.87048597460171,35.87048597460171 0 0,0 0.1259605595052178,-0.6027668754683054 l 14.529414374125931 3.16661823808445" fill="#ffc212" stroke="none" /><path d="M 79.48165901384962 95.52812308129327 l -18.534847081961527 -4.039583654133107 a39.969944450378264,39.969944450378264 0 0,0 0.1518651157754191,-0.6691457211008608 l 18.462771104628448 4.357163709172976" fill="#fff517" stroke="none" /><path d="M 79.64726062577567 94.8264132398404 l -5.832104922585264 -1.482498265052277 a27.01757832802584,27.01757832802584 0 0,0 0.1181189473188117,-0.4485168823707217 l 5.805796494461727 1.5823956517957833" fill="#ff4c07" stroke="none" /><path d="M 79.73907114497095 94.47779374421319 l -9.341090603394058 -2.545955781939895 a30.681831670939644,30.681831670939644 0 0,0 0.14286265555706307,-0.5069691652360776 l 9.296009455762412 2.7059328710789856" fill="#ff7e0b" stroke="none" /><path d="M 79.83685265289637 94.1308016681162 l -6.9428029407638805 -2.020948750562134 a28.23095751105469,28.23095751105469 0 0,0 0.13943899061275067,-0.46414704967596226 l 6.9070876301475 2.13983340382882" fill="#ff5d08" stroke="none" /><path d="M 80.05021161711548 93.44210830539832 l -11.315421881437258 -3.7196039252654103 a32.91109674697334,32.91109674697334 0 0,0 0.1810338793484636,-0.535194496681441 l 11.24990258051643 3.913300096421013" fill="#ff9c0e" stroke="none" /><path d="M 80.16572619554312 93.10060997987247 l -5.696614089118081 -1.9815780896473987 a27.031423033224353,27.031423033224353 0 0,0 0.15621566203725445,-0.43696300947901284 l 5.661758257036883 2.079076055507333" fill="#ff4c07" stroke="none" /><path d="M 80.41425534168474 92.42381321644754 l -11.700557714289928 -4.526027080495045 a33.545436300057645,33.545436300057645 0 0,0 0.21236070240804272,-0.53528769434647 l 11.621138336915754 4.726215792055099" fill="#ffa40f" stroke="none" /><path d="M 80.5471966667186 92.08871423366112 l -7.412800298080836 -3.014721347981004 a29.002384211296015,29.002384211296015 0 0,0 0.19151814937762113,-0.4595738387720612 l 7.359956304166737 3.1415276961943293" fill="#ff6709" stroke="none" /><path d="M 80.68587082218212 91.75594674310238 l -2.874169405461841 -1.2268120105143778 a24.125046796519246,24.125046796519246 0 0,0 0.1658494929605829,-0.3794960964439296 l 2.852686030484281 1.2759701767341742" fill="#ff2403" stroke="none" /><path d="M 80.83023694016515 91.42560881287825 l -9.024347557557855 -4.036475877428727 a30.885948935163707,30.885948935163707 0 0,0 0.22063676942706106,-0.4821311597953191 l 8.953726323275747 4.190796019438718" fill="#ff810b" stroke="none" /><path d="M 80.9802524753101 91.09779779509293 l -9.36087400529152 -4.381361692713747 a31.33548704344996,31.33548704344996 0 0,0 0.23221198789949837,-0.48523374420149384 l 9.284282759432116 4.541407938980329" fill="#ff870c" stroke="none" /><path d="M 81.46374523516351 90.13048839642627 l -2.724236719830251 -1.450502610066142 a24.08632848664561,24.08632848664561 0 0,0 0.19745587903182363,-0.3632965774994084 l 2.6989354911830765 1.49705402104017" fill="#ff2303" stroke="none" /><path d="M 81.63589988554816 89.8137432299009 l -4.156991245524659 -2.305812969547309 a25.753666970445156,25.753666970445156 0 0,0 0.21776152296677434,-0.3847637455761645 l 4.116796357536515 2.3768334852225785" fill="#ff3b05" stroke="none" /><line stroke="#e1ed5e" stroke-width="0.3" x1="26.387840678322718" x2="22.05771365940052" y1="57.49999999999999" y2="54.99999999999999" /><path d="M 25.521815274538284 56.99999999999999 a86.0,86.0 0 0,1 29.574782752854787,-30.34633250058573" fill="none" id="id119" stroke="none" /><text fill="#e1ed5e" style="font-size:6.75px; font-family:Arial;" text-anchor="middle"><textPath startOffset="21.40746469413373" xlink:href="#id119">November</textPath></text><path d="M 82.576782715395 88.27688183743585 l -5.8222080650627825 -3.917441423064499 a28.017439280537005,28.017439280537005 0 0,0 0.2719162701679631,-0.396733964491243 l 5.754102058079506 4.016810122625777" fill="#ff5a08" stroke="none" /><path d="M 82.78059297857968 87.97951657250589 l -4.942137814629786 -3.449996020376854 a27.027204884472553,27.027204884472553 0 0,0 0.26883690615730005,-0.3781527758783678 l 4.882185809942514 3.534326022964742" fill="#ff4c07" stroke="none" /><path d="M 82.98947788004972 87.6856937992154 l -2.9436281435779073 -2.13095976982107 a24.633997274112872,24.633997274112872 0 0,0 0.25091248888145035,-0.3404109803064559 l 2.906613635112638 2.181177059396389" fill="#ff2b04" stroke="none" /><path d="M 83.64595745247003 86.82634096563983 l -19.942617839265395 -16.06436126746596 a46.608039933088335,46.608039933088335 0 0,0 0.5072578940838235,-0.6187721518024074 l 19.66391312594294 16.404335700966858" fill="#bbff1f" stroke="none" /><path d="M 84.10781606972428 86.27271002978789 l -4.817312542734051 -4.161079839081808 a27.3656174532873,27.3656174532873 0 0,0 0.31012924675352455,-0.3528701531649046 l 4.745172232021934 4.243162270058012" fill="#ff5107" stroke="none" /><path d="M 84.58840730492382 85.73525988315684 l -7.044456456891742 -6.520243728870604 a30.59885123631574,30.59885123631574 0 0,0 0.3601108370203384,-0.3824252296599295 l 6.931489786135131 6.640210418475045" fill="#ff7d0b" stroke="none" /><path d="M 84.83555147118756 85.47280134310135 l -3.8444432903630363 -3.6828897073422655 a26.323853943269384,26.323853943269384 0 0,0 0.3154013855573844,-0.3236296069274072 l 3.78065510365485 3.748342006337403" fill="#ff4306" stroke="none" /><path d="M 85.34317274990677 84.96080404539775 l -7.379226217502022 -7.571736173505445 a31.572803235199267,31.572803235199267 0 0,0 0.3913937800230203,-0.3749463875765619 l 7.248159951613701 7.697294691387575" fill="#ff8a0c" stroke="none" /><path d="M 85.60350026404147 84.71141617570332 l -9.195724294689617 -9.765540532976164 a34.41369178135331,34.41369178135331 0 0,0 0.4335637287868463,-0.4013001146344707 l 9.026730794588818 9.921958393743001" fill="#ffaf10" stroke="none" /><path d="M 85.86807049272753 84.46653392183569 l -4.053099210886924 -4.455066031241324 a27.022891876500235,27.022891876500235 0 0,0 0.3458093392183653,-0.30922484349526375 l 3.976024844845167 4.523986404619989" fill="#ff4c07" stroke="none" /><path d="M 86.40962598614128 83.9905735841838 l -8.581153794747738 -10.108577593208539 a34.25969612800502,34.25969612800502 0 0,0 0.451617294859317,-0.37675520969733506 l 8.406362165726513 10.254394986817756" fill="#ffad10" stroke="none" /><path d="M 86.68645165197937 83.75963576809568 l -3.8131411506145763 -4.651412195671359 a27.014622253188517,27.014622253188517 0 0,0 0.36115878032031984,-0.2909239483373999 l 3.7327315999390107 4.716184437802158" fill="#ff4c07" stroke="none" /><path d="M 87.25179093698888 83.31218511350988 l -7.586114941885763 -9.930467976489593 a33.49653288490803,33.49653288490803 0 0,0 0.4599345304388535,-0.3451434461390372 l 7.414527422536158 10.059230449892631" fill="#ffa30f" stroke="none" /><path d="M 87.54013794807813 83.09580414077388 l -5.356072809877061 -7.266541430165514 a30.02718894789603,30.02718894789603 0 0,0 0.4175480656130741,-0.3022725991152389 l 5.230543733890019 7.357414800653832" fill="#ff750a" stroke="none" /><path d="M 87.83215693770416 82.88440491214696 l -3.4959995116765565 -4.9175611291865176 a27.03360754813643,27.03360754813643 0 0,0 0.38053652831005125,-0.2656440507165529 l 3.4110678921927398 4.976849995708197" fill="#ff4c07" stroke="none" /><line stroke="#e1ed5e" stroke-width="0.3" x1="56.869717070023135" x2="54.33264160355391" y1="26.7553504044142" y2="22.446841604673864" /><path d="M 56.362301976729285 25.89364864446614 a86.0,86.0 0 0,1 42.16139366436587,-11.88097634709845" fill="none" id="id120" stroke="none" /><text fill="#e1ed5e" style="font-size:6.75px; font-family:Arial;" text-anchor="middle"><textPath startOffset="22.145653131862474" xlink:href="#id120">December</textPath></text><path d="M 89.34428304082924 81.90426304109057 l -6.495678651526369 -11.031082441286255 a33.80150854275969,33.80150854275969 0 0,0 0.5025278840347914,-0.29013460912277833 l 6.305358299631178 11.140963947685208" fill="#ffa70f" stroke="none" /><path d="M 89.97174638481275 81.54914285379989 l -2.8780042212342103 -5.295203610699843 a27.026781029389618,27.026781029389618 0 0,0 0.4095344760399693,-0.21805404137018347 l 2.786680929407679 5.343828119792602" fill="#ff4c07" stroke="none" /><path d="M 90.28995756902619 81.37971332152246 l -2.7607375457415277 -5.294078260849398 a26.97067302977354,26.97067302977354 0 0,0 0.41235947247256877,-0.21055368482206327 l 2.6694508515553768 5.340689897344295" fill="#ff4b07" stroke="none" /><path d="M 90.61103034731259 81.2157712731953 l -5.377303853943596 -10.758209820935283 a33.02723888882669,33.02723888882669 0 0,0 0.5093110861581077,-0.24912957414392797 l 5.1918325185234355 10.848933145176424" fill="#ff9d0e" stroke="none" /><path d="M 91.26138138417902 80.90454125486306 l -3.811764485226873 -8.329393314184554 a30.160149642512355,30.160149642512355 0 0,0 0.47263338167712937,-0.21140289997026568 l 3.6682177006941252 8.393599965064665" fill="#ff770b" stroke="none" /><path d="M 91.5904679813234 80.7573450057729 l -4.5474552861543085 -10.405467626355772 a32.35575211523705,32.35575211523705 0 0,0 0.5108586913282256,-0.21805519779249558 l 4.368161519655652 10.481997473807672" fill="#ff940d" stroke="none" /><path d="M 92.592206182469 80.34994680014964 l -1.0643010994334123 -2.8231851128243517 a24.01713622687611,24.01713622687611 0 0,0 0.38703140216074017,-0.14212329181694108 l 1.0156805456185451 2.8410392536500146" fill="#ff2203" stroke="none" /><path d="M 92.93061703081487 80.22567764915836 l -1.3594742689768293 -3.802691485183655 a25.03839483204631,25.03839483204631 0 0,0 0.40597280559856963,-0.14121841570829458 l 1.2939956913332553 3.825468333460535" fill="#ff3004" stroke="none" /><path d="M 93.95794788825049 79.88797359093562 l -7.3825546507074 -24.57412338643265 a46.65910468785491,46.65910468785491 0 0,0 0.7690753294732664,-0.22386661978572395 l 6.959619308852509 24.697233700520894" fill="#bbff1f" stroke="none" /><path d="M 96.41257539226777 79.30868818359171 l -0.9301318447051421 -5.364753307340219 a26.444788636591177,26.444788636591177 0 0,0 0.4479526783353304,-0.07371044275409333 l 0.8379016633167388 5.379929748589981" fill="#ff4406" stroke="none" /></svg>