<?xml version="1.0" encoding="utf-8" ?>
<svg baseProfile="full" height="200mm" version="1.1" viewBox="0,0,200,200" width="200mm" xmlns="http://www.w3.org/2000/svg" xmlns:ev="http://www.w3.org/2001/xml-events" xmlns:xlink="http://www.w3.org/1999/xlink"><defs /><rect fill="#1a1a1a" height="200" width="200" x="0" y="0" /><text alignment-baseline="middle" fill="#e1ed5e" style="dominant-baseline: central; font-size:9.0px; font-family:Arial;" text-anchor="middle" x="100.0" y="100.0">2022</text><line stroke="#e1ed5e" stroke-width="0.3" x1="100.0" x2="100.0" y1="15.0" y2="10.0" /><path d="M 100.0 14.0 a86.0,86.0 0 0,1 42.46469731375804,11.215312516191453" fill="none" id="id85" stroke="none" /><text fill="#e1ed5e" style="font-size:6.75px; font-family:Arial;" text-anchor="middle"><textPath startOffset="22.20632615414155" xlink:href="#id85">January</textPath></text><path d="M 100.0 79.0 l 0.0 -5.463506488495206 a26.463506488495206,26.463506488495206 0 0,0 0.45552576231871006,0.0039208540508928495 l -0.09404528304618169 5.462697011052872" fill="#ff2703" stroke="none" /><path d="M 106.0581310904928 79.89281104454417 l 4.157199122760703 -13.797916723522931 a35.41057980983264,35.41057980983264 0 0,0 0.58210714814994,0.18086352448258997 l -4.394091643621362 13.72431306415782" fill="#ffa50f" stroke="none" /><path d="M 106.40334571778207 80.00007090966166 l 5.459950888799051 -17.053371069668565 a38.90610310893764,38.90610310893764 0 0,0 0.6360539769955228,0.20969699592794303 l -5.752687688036992 16.956860349481385" fill="#ffd313" stroke="none" /><path d="M 108.43124777332544 80.76684994638697 l 7.872015675275399 -17.957443877521037 a40.60710130044978,40.60710130044978 0 0,0 0.6377594345771047,0.28614406805344245 l -8.179957228319285 17.819279478951064" fill="#ffe915" stroke="none" /><path d="M 108.76106565485865 80.91482961587045 l 3.580009096506283 -7.798718360895387 a29.58116968738147,29.58116968738147 0 0,0 0.4609334884264322,0.21641445325951766 l -3.7137207962323133 7.7359389249958666" fill="#ff5407" stroke="none" /><path d="M 109.73455568895987 81.39251694778311 l 6.384370606775209 -12.203645616755912 a34.772768580936116,34.772768580936116 0 0,0 0.5279747384741043,0.2820258203697539 l -6.593490391777625 12.091941069884404" fill="#ff9c0e" stroke="none" /><line stroke="#e1ed5e" stroke-width="0.3" x1="143.23703022742887" x2="145.7803849466894" y1="26.81831364943548" y2="22.513508569990506" /><path d="M 143.74570117128098 25.957352633546492 a86.0,86.0 0 0,1 28.547481713284135,27.462654790039103" fill="none" id="id86" stroke="none" /><text fill="#e1ed5e" style="font-size:6.75px; font-family:Arial;" text-anchor="middle"><textPath startOffset="19.985693538727396" xlink:href="#id86">February</textPath></text><path d="M 113.89432698308785 84.25364557470407 l 9.717945078275129 -11.013286766198815 a35.68778206329675,35.68778206329675 0 0,0 0.4571248215283683,0.4104111782434025 l -9.906080887399487 10.844376579186116" fill="#ffa90f" stroke="none" /><path d="M 116.82858285166822 87.43820079747576 l 7.812057444701843 -5.831358340978858 a30.748486119404653,30.748486119404653 0 0,0 0.31295719487250345,0.42687326209772514 l -7.911277252087973 5.69602263520964" fill="#ff6509" stroke="none" /><path d="M 117.45458315368197 88.32363383020206 l 30.25983645830703 -20.24253043538666 a57.406287106913865,57.406287106913865 0 0,0 0.5423619292200327,0.8260544275152726 l -30.603795022884988 19.718657943893714" fill="#52ff2b" stroke="none" /><line stroke="#e1ed5e" stroke-width="0.3" x1="172.23445277983987" x2="176.4835382374775" y1="55.19839476539836" y2="52.563006222186495" /><path d="M 173.08426987136738 54.67131705675599 a86.0,86.0 0 0,1 12.851231095245387,41.99856678651699" fill="none" id="id87" stroke="none" /><text fill="#e1ed5e" style="font-size:6.75px; font-family:Arial;" text-anchor="middle"><textPath startOffset="22.20632615414155" xlink:href="#id87">March</textPath></text><path d="M 118.03404312379186 89.2402003453031 l 16.512287715522838 -9.851862194193401 a40.22797010330481,40.22797010330481 0 0,0 0.34967746466929533,0.5977121367353856 l -16.67942485466246 9.566170645104119" fill="#ffe415" stroke="none" /><path d="M 120.08093135843002 93.85539295169968 l 9.360489862529324 -2.864236272621677 a30.788902895213333,30.788902895213333 0 0,0 0.15071036438230317,0.5081204265616964 l -9.40840612402333 2.7026864593134503" fill="#ff6509" stroke="none" /><path d="M 120.18372546131832 94.20196356495316 l 40.46493365018497 -11.624076045582587 a63.101425144849415,63.101425144849415 0 0,0 0.29090727381608433,1.0465482436241036 l -40.65902769456741 10.92581649853953" fill="#32ff4b" stroke="none" /><path d="M 120.53481517161879 95.60439243477599 l 9.95763400911358 -2.131494781734681 a31.183208976742918,31.183208976742918 0 0,0 0.1078355519771838,0.5258444484575377 l -9.99284885700576 1.9597746771137314" fill="#ff6b09" stroke="none" /><path d="M 120.73433829027371 96.67025291283417 l 19.394694005597785 -3.1146123386009106 a40.64319132907216,40.64319132907216 0 0,0 0.10498350482957682,0.6917101264870867 l -19.445433403866662 2.7803030997217415" fill="#ffea16" stroke="none" /><line stroke="#e1ed5e" stroke-width="0.3" x1="184.98032266829074" x2="189.97916517819016" y1="98.17113171792111" y2="98.06355123074" /><path d="M 185.9800911702706 98.14961562048488 a86.0,86.0 0 0,1 -9.607161424134198,41.387399972396054" fill="none" id="id88" stroke="none" /><text fill="#e1ed5e" style="font-size:6.75px; font-family:Arial;" text-anchor="middle"><textPath startOffset="21.466115282336823" xlink:href="#id88">April</textPath></text><path d="M 120.99513854157772 99.54816195383933 l 9.810812952238074 -0.21113928573552074 a30.81308466190847,30.81308466190847 0 0,0 0.006847830799921664,0.5303720420282475 l -9.812993790155712 0.042230985646810534" fill="#ff6609" stroke="none" /><path d="M 120.92983693683757 101.71520430193887 l 19.54817003638648 1.6019764244999777 a40.6137013395262,40.6137013395262 0 0,0 -0.06309706680401564,0.6962708743885373 l -19.51769837330539 -1.9382286874370855" fill="#ffe915" stroke="none" /><path d="M 120.81339534386255 102.79330883721812 l 19.259202849970873 2.5847249153638714 a40.431873231997706,40.431873231997706 0 0,0 -0.09851119824245888,0.6889870910659267 l -19.211857600711813 -2.9158574784102074" fill="#ffe715" stroke="none" /><path d="M 120.76222939487914 103.15116336523771 l 10.077730499199438 1.5295358966435695 a31.193141423212758,31.193141423212758 0 0,0 -0.08513981630184657,0.5301657173838997 l -10.049908928536304 -1.7027808437206742" fill="#ff6b09" stroke="none" /><path d="M 120.70491114924044 103.5080841355445 l 10.003171974563497 1.6948620863981299 a31.145738368625636,31.145738368625636 0 0,0 -0.0941099002601014,0.5278182990458489 l -9.972515631964207 -1.866799136177197" fill="#ff6a09" stroke="none" /><path d="M 120.64145759157962 103.86396538481128 l 10.029947038469409 1.8775499741813721 a31.20416735946886,31.20416735946886 0 0,0 -0.10337504831604012,0.527107144240289 l -9.996142057177703 -2.049920845489606" fill="#ff6b09" stroke="none" /><path d="M 120.02730092923936 106.31721596034902 l 14.977575337473555 4.724379900392866 a36.70501602778336,36.70501602778336 0 0,0 -0.19524927223220262,0.6009154707945036 l -14.894033814225105 -4.981494271165165" fill="#ffb610" stroke="none" /><path d="M 119.41010516605496 108.01547362559984 l 5.726661462872328 2.3648457092683297 a27.195736174095202,27.195736174095202 0 0,0 -0.1824044169463876,0.43115016026754865 l -5.685106064733631 -2.463070395202042" fill="#ff3204" stroke="none" /><path d="M 119.26925614724726 108.34839909993367 l 6.349535072643546 2.750934051651352 a27.919843480546753,27.919843480546753 0 0,0 -0.1948524749991226,0.4393408915719268 l -6.30124151291315 -2.859823279715967" fill="#ff3c05" stroke="none" /><line stroke="#e1ed5e" stroke-width="0.3" x1="174.80103733775053" x2="179.2010983576182" y1="140.37084112569926" y2="142.7455964860345" /><path d="M 175.68104954172406 140.8457921977663 a86.0,86.0 0 0,1 -30.038265399797805,32.042727171017184" fill="none" id="id89" stroke="none" /><text fill="#e1ed5e" style="font-size:6.75px; font-family:Arial;" text-anchor="middle"><textPath startOffset="22.206326154141568" xlink:href="#id89">May</textPath></text><path d="M 117.94076556474637 110.91462005526583 l 8.320096885607763 5.061695723166483 a30.73882825497102,30.73882825497102 0 0,0 -0.278896843702167,0.44967051473618497 l -8.231735402237632 -5.204162569267942" fill="#ff6509" stroke="none" /><path d="M 117.75023020441432 111.22182372390056 l 11.665426385198044 7.374966806136143 a34.80117053514247,34.80117053514247 0 0,0 -0.32447142569365667,0.5035868582418936 l -11.536750096127337 -7.57467526429949" fill="#ff9d0e" stroke="none" /><path d="M 116.93607887273984 112.41649034213515 l 15.794850458435826 11.579811929684903 a40.58492648266067,40.58492648266067 0 0,0 -0.41790633780396935,0.5598538327661007 l -15.593182853936765 -11.849978641960318" fill="#ffe915" stroke="none" /><path d="M 116.498646956653 112.99209946851258 l 15.312547706257979 12.05808836559323 a40.49029533611231,40.49029533611231 0 0,0 -0.4359109767192324,0.5438659678339842 l -15.102718817483892 -12.319882167005465" fill="#ffe815" stroke="none" /><path d="M 115.32070863581623 114.36230785411682 l 15.747259887192579 14.762175806275643 a42.58467114621333,42.58467114621333 0 0,0 -0.5059331648886414,0.5304689006916027 l -15.490820170924973 -15.031051823549753" fill="#fcff18" stroke="none" /><path d="M 114.81725581225074 114.88116024355365 l 14.065638629761844 14.126301457544304 a40.934758160872356,40.934758160872356 0 0,0 -0.5035950819212723,0.4928737803745705 l -13.820393595464777 -14.366325340841447" fill="#ffed16" stroke="none" /><path d="M 112.63410532772338 116.77436683061366 l 1.7075535674611626 2.2671276818204236 a23.838240143368033,23.838240143368033 0 0,0 -0.32989289830639373,0.2440468795417328 l -1.6682756987362046 -2.2961845101019254" fill="#ff0000" stroke="none" /><path d="M 112.04921762599082 117.19931262002967 l 3.3792718546501948 4.8236453901227305 a26.88956985842627,26.88956985842627 0 0,0 -0.38137491703734744,0.2623131455004459 l -3.2957400529899643 -4.88109932498827" fill="#ff2d04" stroke="none" /><path d="M 111.7513745106137 117.40417183066458 l 10.893550554236151 16.1337063609639 a40.467047146896874,40.467047146896874 0 0,0 -0.5806545320306084,0.3848261617060106 l -10.61422132346558 -16.318830543761226" fill="#ffe715" stroke="none" /><line stroke="#e1ed5e" stroke-width="0.3" x1="143.8653032363475" x2="146.44561519142675" y1="172.8068346515853" y2="177.08958963109032" /><path d="M 144.38136562736335 173.6633856474863 a86.0,86.0 0 0,1 -40.68145358897372,12.25698825130547" fill="none" id="id90" stroke="none" /><text fill="#e1ed5e" style="font-size:6.75px; font-family:Arial;" text-anchor="middle"><textPath startOffset="21.466115282336833" xlink:href="#id90">June</textPath></text><path d="M 107.2578585660854 119.70592522655815 l 4.6462702941872704 12.615161092759614 a34.44359018428199,34.44359018428199 0 0,0 -0.5581180953046109,0.2001212920855304 l -4.428432638252924 -12.693269925885104" fill="#ff980e" stroke="none" /><path d="M 104.83641907484287 120.43548508189849 l 2.211035719427186 9.342364001276499 a30.600439786016572,30.600439786016572 0 0,0 -0.513620878299421,0.11689843969493492 l -2.0498946917349032 -9.379039174549119" fill="#ff6309" stroke="none" /><path d="M 104.13013068566511 120.58985236759428 l 1.9225017609805577 9.584207001589148 a30.775123368545472,30.775123368545472 0 0,0 -0.5202935933992754,0.09971550548416014 l -1.7572405530095778 -9.615879705421776" fill="#ff6509" stroke="none" /><path d="M 103.7750983002368 120.6578951692458 l 2.7832029493517063 15.230097388149243 a36.48231523738586,36.48231523738586 0 0,0 -0.6187244807083752,0.10757318182588993 l -2.5206294971712815 -15.27574914849614" fill="#ffb310" stroke="none" /><line stroke="#e1ed5e" stroke-width="0.3" x1="102.19456741930631" x2="102.32365962044197" y1="184.97166512339345" y2="189.96999836594603" /><path d="M 102.22038585953345 185.97133177190398 a86.0,86.0 0 0,1 -42.740103519485714,-10.115201625700543" fill="none" id="id91" stroke="none" /><text fill="#e1ed5e" style="font-size:6.75px; font-family:Arial;" text-anchor="middle"><textPath startOffset="22.20632615414155" xlink:href="#id91">July</textPath></text><path d="M 96.58105272829116 120.7198165907248 l -1.530853421320194 9.277417753560236 a30.402871496071953,30.402871496071953 0 0,0 -0.5156197120728153,-0.08964709619428375 l 1.6903221048650592 -9.249692078844946" fill="#ff6008" stroke="none" /><path d="M 96.22490169976321 120.6578951692458 l -2.2141024398066524 12.115895390757961 a33.31654053432813,33.31654053432813 0 0,0 -0.5632595647676824,-0.10795003615678621 l 2.42232961914603 -12.075988156252706" fill="#ff890c" stroke="none" /><path d="M 95.86986931433489 120.58985236759428 l -3.4552011432540213 17.22514052324395 a38.56826345959796,38.56826345959796 0 0,0 -0.6497990918974637,-0.1361717175853461 l 3.7511916965808716 -17.163112824932064" fill="#ffcf13" stroke="none" /><path d="M 94.46302465271185 120.25689768951611 l -2.065371901996868 7.556115872909367 a28.833303784380576,28.833303784380576 0 0,0 -0.47762893843606125,-0.1349827089085444 l 2.195132008537543 -7.519444370662302" fill="#ff4a06" stroke="none" /><path d="M 93.76903079525671 120.05430185196036 l -3.0047213569843043 9.670660710074513 a31.126698820568155,31.126698820568155 0 0,0 -0.5102980000811722,-0.16338130494628078 l 3.170740702156417 -9.617506558468525" fill="#ff6a09" stroke="none" /><path d="M 92.06813273071674 119.44442032107085 l -4.107919885513854 10.070279568159542 a31.875915426606245,31.875915426606245 0 0,0 -0.506263216638967,-0.21161806561425156 l 4.280654561650283 -9.998076459525317" fill="#ff750a" stroke="none" /><path d="M 91.40352486487194 119.15986991738527 l -4.174495868914332 9.304138796635907 a31.197716141698017,31.197716141698017 0 0,0 -0.4880689624529133,-0.2240485223912103 l 4.334032827134665 -9.230903203910623" fill="#ff6b09" stroke="none" /><line stroke="#e1ed5e" stroke-width="0.3" x1="58.666819895761336" x2="56.23545636021788" y1="174.27360380694188" y2="178.64263932499728" /><path d="M 58.180547188652646 175.14741091055294 a86.0,86.0 0 0,1 -31.652253787137756,-30.449443065178592" fill="none" id="id92" stroke="none" /><text fill="#e1ed5e" style="font-size:6.75px; font-family:Arial;" text-anchor="middle"><textPath startOffset="22.20632615414155" xlink:href="#id92">August</textPath></text><path d="M 89.4739219176387 118.17145234162733 l -6.917162521321732 11.941284124247327 a34.800050865209855,34.800050865209855 0 0,0 -0.5157568532904694,-0.3047182398735679 l 7.121687245640583 -11.82044731208001" fill="#ff9d0e" stroke="none" /><path d="M 89.1626897886671 117.98757091392108 l -9.15037647982529 15.187628905169934 a38.73114382897204,38.73114382897204 0 0,0 -0.5680951385588948,-0.3489704335890667 l 9.410450818316493 -15.02787000475249" fill="#ffd113" stroke="none" /><path d="M 88.8546689885994 117.79835938074946 l -4.476775291182589 7.149115214058949 a29.43512687229019,29.43512687229019 0 0,0 -0.4271151817640212,-0.2726051172571975 l 4.599172274993534 -7.0709956679779475" fill="#ff5207" stroke="none" /><path d="M 88.24862548938628 117.40417183066458 l -2.162691034964203 3.203016494381905 a24.864782940346984,24.864782940346984 0 0,0 -0.3526573530537408,-0.24256094313178966 l 2.217505272640834 -3.165314761885014" fill="#ff0f01" stroke="none" /><path d="M 87.65650970185807 116.9893568818739 l -9.242926530263736 12.721796968498365 a36.72500584901473,36.72500584901473 0 0,0 -0.5082304124376102,-0.3759767090481926 l 9.460541913119911 -12.560810310710407" fill="#ffb710" stroke="none" /><path d="M 87.07902340077011 116.55440617244103 l -5.998540389109824 7.68535360160277 a30.749212623666104,30.749212623666104 0 0,0 -0.41444448752235796,-0.32925976619561065 l 6.129942369349539 -7.580959921402029" fill="#ff6509" stroke="none" /><path d="M 86.79598089348748 116.32954008644616 l -3.7034529455475003 4.580096623970881 a26.890063565428978,26.890063565428978 0 0,0 -0.3574199993544447,-0.2941323264390342 l 3.7817430734466337 -4.515669178674666" fill="#ff2d04" stroke="none" /><path d="M 85.70375840098266 115.38237550388516 l -6.929648165086256 7.456117011375383 a31.179081715911543,31.179081715911543 0 0,0 -0.38998226111287815,-0.3687525693476513 l 7.0569662605899515 -7.335729805281801" fill="#ff6b09" stroke="none" /><path d="M 83.50135304334701 112.99209946851258 l -13.983159075400879 11.01124195632206 a38.79820741391203,38.79820741391203 0 0,0 -0.40866185638651126,-0.5282505375521809 l 14.170627749005458 -10.768913424656626" fill="#ffd213" stroke="none" /><path d="M 83.28015986056508 112.70617746262583 l -8.110249327228692 6.163352421944408 a31.18641532762637,31.18641532762637 0 0,0 -0.3211290927031862,-0.43020489784223165 l 8.215139686626964 -6.022834644592868" fill="#ff6b09" stroke="none" /><line stroke="#e1ed5e" stroke-width="0.3" x1="26.63291911575756" x2="22.317208475507996" y1="142.92168965132927" y2="145.44649492493687" /><path d="M 25.769776987707644 143.4266507060508 a86.0,86.0 0 0,1 -11.730757126820373,-40.83630448921669" fill="none" id="id93" stroke="none" /><text fill="#e1ed5e" style="font-size:6.75px; font-family:Arial;" text-anchor="middle"><textPath startOffset="21.46611528233685" xlink:href="#id93">September</textPath></text><line stroke="#e1ed5e" stroke-width="0.3" x1="15.007084014347285" x2="10.007500721073583" y1="101.09737516637583" y2="101.16192664675087" /><path d="M 14.007167355692545 101.11028546245083 a86.0,86.0 0 0,1 10.666146001902534,-42.60595125391555" fill="none" id="id94" stroke="none" /><text fill="#e1ed5e" style="font-size:6.75px; font-family:Arial;" text-anchor="middle"><textPath startOffset="22.20632615414155" xlink:href="#id94">October</textPath></text><path d="M 79.00175016825051 100.2711162175752 l -21.57824075898118 0.27860469626647294 a42.580039268484626,42.580039268484626 0 0,0 -0.0031543753572880794,-0.7329657434891667 l 21.57983943162797 0.09287052542636909" fill="#fcff18" stroke="none" /><path d="M 79.00019446554 99.90962569577889 l -19.497901733491975 -0.08391074384210596 a40.498082290877775,40.498082290877775 0 0,0 0.00900020294274745,-0.6970756364874102 l 19.493568523431513 0.4195226383899881" fill="#ffe815" stroke="none" /><path d="M 79.00486145842228 99.54816195383935 l -15.68407615504554 -0.33753825018570477 a36.687707828347854,36.687707828347854 0 0,0 0.019022236788432092,-0.6312554314729433 l 15.675942223801464 0.6074638290836425" fill="#ffb610" stroke="none" /><path d="M 79.03285615573316 98.82574320788736 l -15.58746580656941 -0.8729700015957396 a36.61189184226744,36.61189184226744 0 0,0 0.040655603808191575,-0.6289241963165276 l 15.570129611756807 1.141153262165279" fill="#ffb510" stroke="none" /><path d="M 79.05617556472873 98.46500227214037 l -15.785139254377 -1.156911573829413 a36.82747818414968,36.82747818414968 0 0,0 0.05177858585777285,-0.6318298978134899 l 15.762886184699731 1.4284553888506812" fill="#ffb811" stroke="none" /><path d="M 79.12142395522702 97.74499172005258 l -13.549637184630493 -1.4634400342294742 a34.6284380825136,34.6284380825136 0 0,0 0.06910788647977253,-0.5920741678836345 l 13.522438945147131 1.6964579404379705" fill="#ff9b0e" stroke="none" /><path d="M 79.16333360222342 97.38593545837743 l -41.239862074261644 -5.173748002282932 a62.56313140627461,62.56313140627461 0 0,0 0.14325169854686534,-1.0673915450412688 l 41.14469437665694 5.88285788938886" fill="#32ff45" stroke="none" /><path d="M 79.21141760316559 97.0276538004421 l -13.56838395869911 -1.9400040716543985 a34.706372935562456,34.706372935562456 0 0,0 0.08964839008818892,-0.5906708806105283 l 13.53297967517162 2.173274064657019" fill="#ff9c0e" stroke="none" /><path d="M 79.26566170972629 96.67025291283419 l -19.57130581096746 -3.142974596236315 a40.82206599875491,40.82206599875491 0 0,0 0.1173889797411146,-0.692836403441213 l 19.51430496970612 3.4793967879933563" fill="#ffec16" stroke="none" /><path d="M 79.32604984820605 96.31383870115002 l -13.458363045971566 -2.3996235185673207 a34.670615527767374,34.670615527767374 0 0,0 0.10981385206804561,-0.5866299888039183 l 13.415063469993658 2.6309315848338115" fill="#ff9b0e" stroke="none" /><path d="M 79.3925641242962 95.95851677861259 l -6.5233267200378995 -1.2793399259218095 a27.647593710690963,27.647593710690963 0 0,0 0.0956089391203117,-0.4662231419742513 l 6.500338485002594 1.3914387240594634" fill="#ff3805" stroke="none" /><path d="M 79.71946130924805 94.55025226153421 l -22.630892548064605 -6.081330351422951 a44.43373372651452,44.43373372651452 0 0,0 0.20484634561229922,-0.736941295420834 l 22.522859431885944 6.469982950262727" fill="#e5ff1a" stroke="none" /><path d="M 79.81627453868168 94.20196356495316 l -28.24098266096105 -8.112587874007053 a50.38311051727146,50.38311051727146 0 0,0 0.24662317363545916,-0.8314907385517933 l 28.097153590213882 8.597507999305385" fill="#9fff22" stroke="none" /><path d="M 80.02781315780177 93.51064311812611 l -12.961736486665627 -4.211523481898371 a34.62877627625974,34.62877627625974 0 0,0 0.1890775810098947,-0.5653179009708205 l 12.88732161188396 4.434014485791514" fill="#ff9b0e" stroke="none" /><path d="M 80.14247586403 93.16781622104843 l -31.5366678802863 -10.850512342753854 a54.35108752487294,54.35108752487294 0 0,0 0.31199315027427743,-0.8820466492748431 l 31.345221649202212 11.39175661845531" fill="#73ff27" stroke="none" /><path d="M 80.38941819471856 92.48833698450439 l -58.83174541584431 -22.534989046486853 a84.0,84.0 0 0,0 0.5288258004732356,-1.3458039804169464 l 58.435126065489385 23.544342031799562" fill="#4dd2ff" stroke="none" /><path d="M 80.65960295795068 91.81776055985345 l -9.69800569838866 -4.102883955463691 a31.53019331626824,31.53019331626824 0 0,0 0.21577055714304574,-0.4980281949693364 l 9.625944431402932 4.269211295019626" fill="#ff700a" stroke="none" /><path d="M 80.803312248108 91.48605970444005 l -18.463745888009967 -8.188872588575279 a41.19820651664213,41.19820651664213 0 0,0 0.29309126661198487,-0.6457877552598933 l 18.320052304434633 8.505482352677245" fill="#fff116" stroke="none" /><line stroke="#e1ed5e" stroke-width="0.3" x1="26.266209847984243" x2="21.928928074336255" y1="57.711370442889674" y2="55.22380399835377" /><path d="M 25.398753493254645 57.213857153982495 a86.0,86.0 0 0,1 29.58750427330803,-30.492523968695096" fill="none" id="id95" stroke="none" /><text fill="#e1ed5e" style="font-size:6.75px; font-family:Arial;" text-anchor="middle"><textPath startOffset="21.46611528233685" xlink:href="#id95">November</textPath></text><path d="M 82.7489923806493 88.02491185347247 l -17.04207533675491 -11.830054154545895 a41.74566251251375,41.74566251251375 0 0,0 0.41484728306133073,-0.5867720618946116 l 16.8359154338897 12.121652716772294" fill="#fff817" stroke="none" /><path d="M 83.39014120810768 87.1503855733568 l -10.860715837225541 -8.401998635521595 a34.73130472927713,34.73130472927713 0 0,0 0.36988164658810213,-0.4697121290975805 l 10.714480110043468 8.587703158572223" fill="#ff9c0e" stroke="none" /><path d="M 83.84228863543731 86.58626213691792 l -6.010418495655502 -4.98970283161294 a28.81167490623643,28.81167490623643 0 0,0 0.3200694268230626,-0.37886124626440815 l 5.923638455345316 5.092423027506464" fill="#ff4906" stroke="none" /><path d="M 84.31358615837235 86.03803664274999 l -31.08713969686131 -27.669645191781665 a62.61753860539156,62.61753860539156 0 0,0 0.7235497119794558,-0.7989616636836019 l 30.60624634426581 28.200659642734824" fill="#32ff45" stroke="none" /><line stroke="#e1ed5e" stroke-width="0.3" x1="56.762969772571076" x2="54.21961505331055" y1="26.818313649435495" y2="22.513508569990535" /><path d="M 56.25429882871897 25.957352633546506 a86.0,86.0 0 0,1 42.265352541879196,-11.944610805530505" fill="none" id="id96" stroke="none" /><text fill="#e1ed5e" style="font-size:6.75px; font-family:Arial;" text-anchor="middle"><textPath startOffset="22.20632615414155" xlink:href="#id96">December</textPath></text></svg>