<?xml version="1.0" encoding="utf-8" ?>
<svg baseProfile="full" height="200mm" version="1.1" viewBox="0,0,200,200" width="200mm" xmlns="http://www.w3.org/2000/svg" xmlns:ev="http://www.w3.org/2001/xml-events" xmlns:xlink="http://www.w3.org/1999/xlink"><defs /><rect fill="#1a1a1a" height="200" width="200" x="0" y="0" /><text alignment-baseline="middle" fill="#e1ed5e" style="dominant-baseline: central; font-size:9.0px; font-family:Arial;" text-anchor="middle" x="100.0" y="100.0">2020</text><line stroke="#e1ed5e" stroke-width="0.3" x1="100.0" x2="100.0" y1="15.0" y2="10.0" /><path d="M 100.0 14.0 a86.0,86.0 0 0,1 42.35913384403234,11.155469271406648" fill="none" id="id61" stroke="none" /><text fill="#e1ed5e" style="font-size:6.75px; font-family:Arial;" text-anchor="middle"><textPath startOffset="22.145653131862478" xlink:href="#id61">January</textPath></text><path d="M 106.38641147887787 79.99465700312896 l 4.382688024218381 -13.728707813886905 a35.41129322984952,35.41129322984952 0 0,0 0.5775029886529475,0.1898367030371091 l -4.61771375051907 13.651450189447775" fill="#ffa20f" stroke="none" /><path d="M 106.72888874123014 80.10723608172694 l 4.718500656571941 -13.94940876853351 a35.72583625597234,35.72583625597234 0 0,0 0.5792590968582569,0.2014963830454878 l -4.957265525475217 13.866353952919432" fill="#ffa60f" stroke="none" /><line stroke="#e1ed5e" stroke-width="0.3" x1="143.13028292997686" x2="145.6673583964461" y1="26.7553504044142" y2="22.446841604673864" /><path d="M 143.63769802327073 25.89364864446614 a86.0,86.0 0 0,1 29.32050498858742,28.57503671076993" fill="none" id="id62" stroke="none" /><text fill="#e1ed5e" style="font-size:6.75px; font-family:Arial;" text-anchor="middle"><textPath startOffset="20.669276256404974" xlink:href="#id62">February</textPath></text><line stroke="#e1ed5e" stroke-width="0.3" x1="172.87174338648825" x2="177.1583165268699" y1="56.24261187166439" y2="53.66864786411523" /><path d="M 173.72905801456457 55.72781907015455 a86.0,86.0 0 0,1 12.242430191666344,42.057860355516425" fill="none" id="id63" stroke="none" /><text fill="#e1ed5e" style="font-size:6.75px; font-family:Arial;" text-anchor="middle"><textPath startOffset="22.145653131862474" xlink:href="#id63">March</textPath></text><path d="M 118.8641267826498 90.77261029715802 l 3.905641101816096 -1.910444777069713 a25.347853684569916,25.347853684569916 0 0,0 0.18784056188173093,0.39251452941453036 l -3.937860921657739 1.8431177455900791" fill="#ff1302" stroke="none" /><line stroke="#e1ed5e" stroke-width="0.3" x1="184.99686870605535" x2="189.99668451229388" y1="99.2704041080226" y2="99.22748670261217" /><path d="M 185.99683186730306 99.26182062694052 a86.0,86.0 0 0,1 -10.086455211305974,41.156179273409016" fill="none" id="id64" stroke="none" /><text fill="#e1ed5e" style="font-size:6.75px; font-family:Arial;" text-anchor="middle"><textPath startOffset="21.40746469413373" xlink:href="#id64">April</textPath></text><path d="M 120.99922638620191 99.81974689727618 l 4.265281144113845 -0.03661230876205707 a25.26543827753796,25.26543827753796 0 0,0 0.0,0.43373082297176735 l -4.265281144113845 -0.03661230876205655" fill="#ff1201" stroke="none" /><path d="M 120.592083275326 104.11899336999214 l 12.585629002313393 2.517478281560071 a33.83494270661146,33.83494270661146 0 0,0 -0.11881267282438106,0.5685616501363769 l -12.540558618664647 -2.733156382981857" fill="#ff8d0d" stroke="none" /><line stroke="#e1ed5e" stroke-width="0.3" x1="174.33088141563837" x2="178.70328620479359" y1="141.23008692659167" y2="143.65538615756765" /><path d="M 175.20536237346943 141.71514677278685 a86.0,86.0 0 0,1 -30.301960400862466,31.631185727798858" fill="none" id="id65" stroke="none" /><text fill="#e1ed5e" style="font-size:6.75px; font-family:Arial;" text-anchor="middle"><textPath startOffset="22.145653131862474" xlink:href="#id65">May</textPath></text><path d="M 115.6541949942343 113.99807769240083 l 11.020684010581162 9.85476359917161 a35.78417537966312,35.78417537966312 0 0,0 -0.4133963438373176,0.45439499825763996 l -10.849889965901964 -10.042496172986922" fill="#ffa70f" stroke="none" /><path d="M 113.03279911837588 116.46651593811092 l 5.85583244651091 7.3986530012130896 a30.435615500536752,30.435615500536752 0 0,0 -0.41246064287421835,0.32073189064488905 l -5.727961859001462 -7.498085943478772" fill="#ff5d08" stroke="none" /><path d="M 112.7482090630111 116.68781488649013 l 5.554803167383111 7.2714156576816755 a30.150372882847325,30.150372882847325 0 0,0 -0.41398904304737655,0.3106650958449129 l -5.429161135424968 -7.365699780790603" fill="#ff5908" stroke="none" /><path d="M 111.5731344415666 117.5232005979908 l 8.296869160463313 12.562517386119785 a36.05506163861208,36.05506163861208 0 0,0 -0.5193892464542513,0.33666183446879633 l -8.079994281752052 -12.703093062292474" fill="#ffab0f" stroke="none" /><path d="M 110.96478420261333 117.91015095944535 l 9.182871691644747 14.999530788702257 a38.58724129550844,38.58724129550844 0 0,0 -0.5679072523455164,0.34101198773278213 l -8.924031682741793 -15.154956776970963" fill="#ffcd13" stroke="none" /><line stroke="#e1ed5e" stroke-width="0.3" x1="143.1302829299769" x2="145.66735839644613" y1="173.24464959558577" y2="177.55315839532614" /><path d="M 143.63769802327073 174.10635135553383 a86.0,86.0 0 0,1 -40.68552437913181,11.842963189579606" fill="none" id="id66" stroke="none" /><text fill="#e1ed5e" style="font-size:6.75px; font-family:Arial;" text-anchor="middle"><textPath startOffset="21.407464694133747" xlink:href="#id66">June</textPath></text><path d="M 110.65571695917076 118.09573695890943 l 9.129609688635401 15.50407317462323 a38.9923888928318,38.9923888928318 0 0,0 -0.5797008337361249,0.33469043240700347 l -8.86211638703888 -15.658510504306406" fill="#ffd213" stroke="none" /><path d="M 110.34350942703117 118.27599006163325 l 7.524424435297861 13.294937000747208 a36.27652817024682,36.27652817024682 0 0,0 -0.5445898256756891,0.302074796158976 l -7.295090421466077 -13.422144712339326" fill="#ffae10" stroke="none" /><path d="M 110.02825361518725 118.45085714620011 l 8.621609794301783 15.862790949366266 a39.05437044453494,39.05437044453494 0 0,0 -0.5917874984698134,0.31509351037176664 l -8.348033480045416 -16.0084549274606" fill="#ffd313" stroke="none" /><path d="M 109.71004243097381 118.62028667847754 l 7.024696848274085 13.47078244756374 a36.192377877071884,36.192377877071884 0 0,0 -0.5533517770373023,0.2825453601427567 l -6.792417849523201 -13.589385759379333" fill="#ffad10" stroke="none" /><path d="M 109.3889696526874 118.78422872680471 l 13.367927404263126 26.744809628085818 a50.89960409651273,50.89960409651273 0 0,0 -0.784919766822573,0.3839435907840278 l -12.906847388178484 -26.970346968967068" fill="#9bff22" stroke="none" /><path d="M 108.73861861582097 119.09545874513695 l 1.2906300845663023 2.8202596564231794 a24.101546476330125,24.101546476330125 0 0,0 -0.37769028170535407,0.16893605898036712 l -1.2420264000053214 -2.8419994663133967" fill="#ff0000" stroke="none" /><path d="M 108.4095320186766 119.2426549942271 l 5.99130985447951 13.709289439319495 a35.961297092946864,35.961297092946864 0 0,0 -0.5677859413046057,0.24235405570388405 l -5.755088838004473 -13.810118144682782" fill="#ffaa0f" stroke="none" /><path d="M 108.07796709384702 119.3841803445677 l 6.005489151956699 14.410987743134532 a36.61225376705885,36.61225376705885 0 0,0 -0.5822142291082276,0.23678145842473522 l -5.75722046165803 -14.51195645813856" fill="#ffb210" stroke="none" /><path d="M 107.74402155503746 119.51999308798841 l 5.672067163835808 14.297314521375363 a36.381337667257526,36.381337667257526 0 0,0 -0.5824959453009969,0.22532194508053485 l -5.425798956041282 -14.392576354593936" fill="#ffaf10" stroke="none" /><path d="M 107.407793817531 119.65005319985036 l 7.10537255806462 18.84784487930876 a41.142680451801425,41.142680451801425 0 0,0 -0.6630061616627279,0.24346504615480083 l -6.780777244747766 -18.967040774472284" fill="#ffee16" stroke="none" /><path d="M 107.06938296918513 119.77432235084164 l 6.879037888868537 19.24189328419131 a41.43456922562097,41.43456922562097 0 0,0 -0.6718205551964243,0.23369406309179966 l -6.547711561627091 -19.3571457798517" fill="#fff116" stroke="none" /><path d="M 106.38641147887787 120.00534299687104 l 11.08096348961021 34.71096030668026 a57.436774243475604,57.436774243475604 0 0,0 -0.9418519632561261,0.2917881457939724 l -10.48347089348246 -34.89606504028088" fill="#53ff2b" stroke="none" /><path d="M 106.0420521117495 120.11202640906438 l 6.995612196161468 23.2861178014622 a45.314231887161434,45.314231887161434 0 0,0 -0.746907984017098,0.2174140285937815 l -6.594844199762764 -23.4027755243585" fill="#dcff1b" stroke="none" /><path d="M 105.69591212413111 120.21278271476187 l 4.887124193108022 17.342679673173024 a39.01811646996296,39.01811646996296 0 0,0 -0.6462488861309246,0.17613800765613338 l -4.588693906042402 -17.424018174973302" fill="#ffd213" stroke="none" /><path d="M 104.9986988182912 120.39639698878246 l 3.5004295454322585 14.282947069874943 a35.70563103043811,35.70563103043811 0 0,0 -0.5965694218575409,0.1407887591840611 l -3.254727969834838 -14.34093197270523" fill="#ffa60f" stroke="none" /><path d="M 104.64783097203109 120.47920084513623 l 6.1033347183637465 26.892418909942304 a48.576310295472936,48.576310295472936 0 0,0 -0.8147810546683989,0.17757773860130868 l -5.640791247076212 -26.99322810667733" fill="#b5ff1f" stroke="none" /><path d="M 104.29559338865022 120.5559693870025 l 1.04792923801524 5.014720758557395 a26.123044014469684,26.123044014469684 0 0,0 -0.43974227941640415,0.0879607715840846 l -0.9616904730678772 -5.031970926804341" fill="#ff1e03" stroke="none" /><path d="M 103.94208987418118 120.62667999033965 l 2.7213704973479853 14.239360383839015 a35.49707699933611,35.49707699933611 0 0,0 -0.5995038224822944,0.10924956697933735 l -2.476531941314634 -14.283978124749716" fill="#ffa30f" stroke="none" /><path d="M 103.2317021107853 120.74984581791261 l 1.2728953205515896 8.172901071432516 a29.27143121959585,29.27143121959585 0 0,0 -0.49716117328386894,0.07306557178746666 l -1.1324090416600352 -8.193547716518864" fill="#ff4c07" stroke="none" /><path d="M 102.15924093988457 120.88869738790638 l 0.8967850253073295 8.675581622054752 a29.72180829086203,29.72180829086203 0 0,0 -0.5079604748846313,0.04810438509608937 l -0.7477249870376831 -8.689697762656024" fill="#ff5307" stroke="none" /><path d="M 101.80034050326958 120.92268563240118 l 1.0065376829383559 11.697493601370866 a32.74071866034134,32.74071866034134 0 0,0 -0.5603823533270325,0.043377138253210074 l -0.8055863348360878 -11.71304850661913" fill="#ff7e0b" stroke="none" /><line stroke="#e1ed5e" stroke-width="0.3" x1="101.45913802915013" x2="101.54496967792366" y1="184.9874750549273" y2="189.98673829345242" /><path d="M 101.47630435890484 185.9873277026323 a86.0,86.0 0 0,1 -42.54439059252881,-10.42667462771756" fill="none" id="id67" stroke="none" /><text fill="#e1ed5e" style="font-size:6.75px; font-family:Arial;" text-anchor="middle"><textPath startOffset="22.145653131862474" xlink:href="#id67">July</textPath></text><line stroke="#e1ed5e" stroke-width="0.3" x1="58.13341422392154" x2="55.67067388415222" y1="173.97424548756322" y2="178.32567169271397" /><path d="M 57.64086615596768 174.84453072859336 a86.0,86.0 0 0,1 -31.369924170532247,-30.572349798747897" fill="none" id="id68" stroke="none" /><text fill="#e1ed5e" style="font-size:6.75px; font-family:Arial;" text-anchor="middle"><textPath startOffset="22.145653131862474" xlink:href="#id68">August</textPath></text><line stroke="#e1ed5e" stroke-width="0.3" x1="26.387840678322732" x2="22.057713659400548" y1="142.50000000000003" y2="145.00000000000006" /><path d="M 25.521815274538298 143.00000000000003 a86.0,86.0 0 0,1 -11.493303480769221,-40.785679425670985" fill="none" id="id69" stroke="none" /><text fill="#e1ed5e" style="font-size:6.75px; font-family:Arial;" text-anchor="middle"><textPath startOffset="21.40746469413373" xlink:href="#id69">September</textPath></text><path d="M 79.64726062577567 105.17358676015961 l -17.077159363905572 4.340947130592569 a38.62024954224053,38.62024954224053 0 0,0 -0.15781424475131628,-0.6439359728284395 l 17.14916113517318 -4.047155333156029" fill="#ffcd13" stroke="none" /><path d="M 79.407916724674 104.11899336999214 l -15.16339991746821 3.033104659276011 a36.46377770569652,36.46377770569652 0 0,0 -0.1175066207020814,-0.6148442930848833 l 15.21323283045245 -2.7723578011578134" fill="#ffb010" stroke="none" /><path d="M 79.22317932658666 103.0534771498775 l -14.789086419219911 2.1734864134644694 a35.947947026420366,35.947947026420366 0 0,0 -0.08448706211126605,-0.6113062942542228 l 14.82421799788639 -1.919291811010161" fill="#ffa90f" stroke="none" /><path d="M 79.13060592940153 102.33845913500099 l -9.19746584355988 1.030595231848786 a30.255025903548844,30.255025903548844 0 0,0 -0.05340387741189405,-0.5166340698678754 l 9.21380211345344 -0.8725566396979794" fill="#ff5a08" stroke="none" /><path d="M 79.03789590574601 101.26102812881392 l -8.60933522931948 0.5179162285305339 a29.62489943770806,29.62489943770806 0 0,0 -0.0261805260034636,-0.5078952102834633 l 8.616957344779516 -0.37004922487033975" fill="#ff5107" stroke="none" /><line stroke="#e1ed5e" stroke-width="0.3" x1="15.003131293944662" x2="10.003315487706104" y1="100.72959589197737" y2="100.7725132973878" /><path d="M 14.003168132696942 100.73817937305945 a86.0,86.0 0 0,1 10.791469493833604,-42.45332614584628" fill="none" id="id70" stroke="none" /><text fill="#e1ed5e" style="font-size:6.75px; font-family:Arial;" text-anchor="middle"><textPath startOffset="22.145653131862435" xlink:href="#id70">October</textPath></text><path d="M 80.9802524753101 91.09779779509293 l -13.599902958700667 -6.3654412840288845 a36.01586505088849,36.01586505088849 0 0,0 0.26689598306834245,-0.557709954374281 l 13.48862771767242 6.597963740468253" fill="#ffaa0f" stroke="none" /><path d="M 81.63589988554816 89.8137432299009 l -25.907534306953593 -14.37047255711164 a50.62618462409016,50.62618462409016 0 0,0 0.42807244026221897,-0.7563629848343363 l 25.657028501670005 14.813092312045082" fill="#9eff22" stroke="none" /><line stroke="#e1ed5e" stroke-width="0.3" x1="26.387840678322718" x2="22.05771365940052" y1="57.49999999999999" y2="54.99999999999999" /><path d="M 25.521815274538284 56.99999999999999 a86.0,86.0 0 0,1 29.574782752854787,-30.34633250058573" fill="none" id="id71" stroke="none" /><text fill="#e1ed5e" style="font-size:6.75px; font-family:Arial;" text-anchor="middle"><textPath startOffset="21.40746469413373" xlink:href="#id71">November</textPath></text><path d="M 83.42222388311158 87.10902102172516 l -12.27165199708689 -9.542510817358297 a36.545190749457106,36.545190749457106 0 0,0 0.3893517128219534,-0.4919331700335784 l 12.106033853623375 9.751763931306558" fill="#ffb210" stroke="none" /><path d="M 83.64595745247003 86.82634096563983 l -22.702468763724653 -18.287501812613993 a50.15192636026398,50.15192636026398 0 0,0 0.5458277281403969,-0.6658210779841336 l 22.385194216345628 18.674525172296622" fill="#a3ff21" stroke="none" /><path d="M 84.10781606972428 86.27271002978789 l -7.876898901969413 -6.803877665132435 a31.408567989590832,31.408567989590832 0 0,0 0.3559472227822348,-0.4050025991957244 l 7.758940615228585 6.93809254213946" fill="#ff6b09" stroke="none" /><path d="M 85.34317274990677 84.96080404539775 l -6.069654215752731 -6.227999932714109 a29.696475461972618,29.696475461972618 0 0,0 0.3681337921703541,-0.3526638453759195 l 5.961847937717077 6.331275908395597" fill="#ff5207" stroke="none" /><path d="M 86.96720088162412 83.53348406188908 l -4.526580286229883 -5.719186319940127 a28.293765916854976,28.293765916854976 0 0,0 0.3834344956550088,-0.2981609830041486 l 4.4277358459396305 5.79604835456508" fill="#ff3e05" stroke="none" /><line stroke="#e1ed5e" stroke-width="0.3" x1="56.869717070023135" x2="54.33264160355391" y1="26.7553504044142" y2="22.446841604673864" /><path d="M 56.362301976729285 25.89364864446614 a86.0,86.0 0 0,1 42.16139366436587,-11.88097634709845" fill="none" id="id72" stroke="none" /><text fill="#e1ed5e" style="font-size:6.75px; font-family:Arial;" text-anchor="middle"><textPath startOffset="22.145653131862474" xlink:href="#id72">December</textPath></text><path d="M 90.93487009805054 81.0573650232925 l -27.195389705848363 -56.827904930122465 a84.0,84.0 0 0,0 1.3060451445139099,-0.6112950737178284 l 26.215855847462933 57.286376235410835" fill="#4dd2ff" stroke="none" /><path d="M 93.27111125876988 80.10723608172694 l -20.165728156527425 -59.61639207970259 a83.93465497389963,83.93465497389963 0 0,0 1.3688433739019468,-0.4499660056857267 l 19.139362044977716 59.95377900679035" fill="#4dd3ff" stroke="none" /></svg>