<?xml version="1.0" encoding="utf-8" ?>
<svg baseProfile="full" height="200mm" version="1.1" viewBox="0,0,200,200" width="200mm" xmlns="http://www.w3.org/2000/svg" xmlns:ev="http://www.w3.org/2001/xml-events" xmlns:xlink="http://www.w3.org/1999/xlink"><defs /><rect fill="#1a1a1a" height="200" width="200" x="0" y="0" /><text alignment-baseline="middle" fill="#e1ed5e" style="dominant-baseline: central; font-size:9.0px; font-family:Arial;" text-anchor="middle" x="100.0" y="100.0">2023</text><line stroke="#e1ed5e" stroke-width="0.3" x1="100.0" x2="100.0" y1="15.0" y2="10.0" /><path d="M 100.0 14.0 a86.0,86.0 0 0,1 42.46469731375804,11.215312516191453" fill="none" id="id97" stroke="none" /><text fill="#e1ed5e" style="font-size:6.75px; font-family:Arial;" text-anchor="middle"><textPath startOffset="22.20632615414155" xlink:href="#id97">January</textPath></text><path d="M 110.36928655335952 81.73862282372117 l 5.153542330263233 -9.075916631541547 a31.437014000781424,31.437014000781424 0 0,0 0.46826670004655485,0.2712502971910667 l -5.309005762775116 8.985862176960431" fill="#ff6109" stroke="none" /><line stroke="#e1ed5e" stroke-width="0.3" x1="143.23703022742887" x2="145.7803849466894" y1="26.81831364943548" y2="22.513508569990506" /><path d="M 143.74570117128098 25.957352633546492 a86.0,86.0 0 0,1 28.547481713284135,27.462654790039103" fill="none" id="id98" stroke="none" /><text fill="#e1ed5e" style="font-size:6.75px; font-family:Arial;" text-anchor="middle"><textPath startOffset="19.985693538727396" xlink:href="#id98">February</textPath></text><path d="M 110.99172775467656 82.1063720568725 l 5.437676440621591 -8.852089614591781 a31.388831292193302,31.388831292193302 0 0,0 0.4579493684450577,0.28676785250793935 l -5.589244961438912 8.757177420760897" fill="#ff6108" stroke="none" /><path d="M 111.60114157652 82.49532879139004 l 2.1533344995048664 -3.2491123539323503 a24.897894374560924,24.897894374560924 0 0,0 0.3552043939895344,0.23983559241998229 l -2.2089435879009427 3.2115648492136977" fill="#ff0000" stroke="none" /><path d="M 112.48926042617603 83.11751280151076 l 3.4262712465355505 -4.631497661539189 a26.76108542235569,26.76108542235569 0 0,0 0.3679698259669369,0.2771472441037746 l -3.50548722626087 4.571833827929567" fill="#ff1c02" stroke="none" /><path d="M 112.77801427241765 83.33499621200491 l 6.362739922726459 -8.298244363613614 a31.4568312046481,31.4568312046481 0 0,0 0.4268653719604604,0.3331751936414752 l -6.50463784984635 8.187490780748915" fill="#ff6209" stroke="none" /><path d="M 113.06298171725822 83.55741782278167 l 3.591764212382625 -4.521010554984438 a26.774106562545697,26.774106562545697 0 0,0 0.35838620767636903,0.2897900558508138 l -3.6690538186234853 4.458514401869495" fill="#ff1d02" stroke="none" /><path d="M 114.16331599549186 84.49514656593476 l 7.839515161295977 -8.582067476904111 a32.62367756531145,32.62367756531145 0 0,0 0.41135679147206666,0.3823113063906089 l -7.986079836562891 8.445851584438863" fill="#ff720a" stroke="none" /><path d="M 114.68862486808459 84.99185889309783 l 11.958317055993113 -12.218441916055484 a38.09653969865474,38.09653969865474 0 0,0 0.46471283849046296,0.46271721387673115 l -12.1668656946509 12.010788851528634" fill="#ffbe11" stroke="none" /><path d="M 115.68641384162765 86.03803664274999 l 18.600829900931988 -16.555989668082436 a45.90163984345324,45.90163984345324 0 0,0 0.520236369421957,0.5947201021989803 l -18.88305813393179 16.233354009680507" fill="#dbff1b" stroke="none" /><path d="M 116.60985879189232 87.15038557335679 l 9.31586452358989 -7.2068804845833725 a32.77813474795349,32.77813474795349 0 0,0 0.34139841447397334,0.44924029517542446 l -9.438538878287977 7.0454554135269145" fill="#ff740a" stroke="none" /><path d="M 117.45458315368197 88.32363383020206 l 4.872676126215026 -3.2596109672500213 a26.86242580241341,26.86242580241341 0 0,0 0.253790269602234,0.38653999215377943 l -4.928063031175186 3.175252911118568" fill="#ff1e03" stroke="none" /><line stroke="#e1ed5e" stroke-width="0.3" x1="172.23445277983987" x2="176.4835382374775" y1="55.19839476539836" y2="52.563006222186495" /><path d="M 173.08426987136738 54.67131705675599 a86.0,86.0 0 0,1 12.851231095245387,41.99856678651699" fill="none" id="id99" stroke="none" /><text fill="#e1ed5e" style="font-size:6.75px; font-family:Arial;" text-anchor="middle"><textPath startOffset="22.20632615414155" xlink:href="#id99">March</textPath></text><path d="M 117.84615892207809 88.93136811851018 l 14.826519094814074 -9.195776114116718 a38.44671793804915,38.44671793804915 0 0,0 0.34397766230024185,0.5654088339850936 l -14.98261255540054 8.939199506924544" fill="#ffc312" stroke="none" /><path d="M 118.89224826269711 90.83032412892265 l 17.17044130092153 -8.333967408404803 a40.086096175822476,40.086096175822476 0 0,0 0.29595336918726606,0.6233532730275029 l -17.311352863950553 8.03717171973676" fill="#ffd814" stroke="none" /><path d="M 119.04729006885535 91.15688171328212 l 5.323217156576898 -2.4714192313617884 a26.86894827999187,26.86894827999187 0 0,0 0.19115041041249756,0.42117459139686836 l -5.364969883952742 2.3794226311228575" fill="#ff1e03" stroke="none" /><path d="M 119.196687751892 91.48605970444005 l 5.1235493516390305 -2.2723499931341156 a26.604849012237292,26.604849012237292 0 0,0 0.18206495077577511,0.4202310083573041 l -5.1619050122574865 2.1838198401902087" fill="#ff1a02" stroke="none" /><path d="M 119.47837535516314 92.15188598940014 l 8.635925432691462 -3.4795369812419255 a30.31055238333566,30.31055238333566 0 0,0 0.19082145389169392,0.48561978626341606 l -8.694540436464855 3.3303681900827247" fill="#ff5107" stroke="none" /><path d="M 119.7369772167798 92.82701384747503 l 9.040835889130083 -3.2857002330046483 a30.61938353509981,30.61938353509981 0 0,0 0.175765350126625,0.49691231362456445 l -9.096054320066518 3.1295902929534694" fill="#ff5507" stroke="none" /><path d="M 119.85752413597 93.16781622104841 l 10.997268468644938 -3.7837224182520917 a32.62998147504267,32.62998147504267 0 0,0 0.17816390381454297,0.532687395275774 l -11.060769666231252 3.5938619200540036" fill="#ff720a" stroke="none" /><path d="M 120.37134235888165 94.90015583598534 l 29.501209025315312 -7.385451877869774 a51.411613462552026,51.411613462552026 0 0,0 0.20752469082350916,0.8603238207123275 l -29.62396651639964 6.87654282549804" fill="#9aff23" stroke="none" /><path d="M 120.6074358757038 95.95851677861258 l 5.72648223495433 -1.1230646068600567 a26.835569629301776,26.835569629301776 0 0,0 0.08499754701712255,0.4540602949081318 l -5.744965505881312 1.0243262344893622" fill="#ff1d03" stroke="none" /><path d="M 120.67395015179393 96.31383870115 l 10.096087837850687 -1.8001305016422313 a31.25531371789958,31.25531371789958 0 0,0 0.08987858157263776,0.5304684761764932 l -10.125578280943548 1.6260762371499002" fill="#ff5f08" stroke="none" /><path d="M 120.87857604477298 97.74499172005257 l 5.967864749490747 -0.6445642842140651 a27.00257218071542,27.00257218071542 0 0,0 0.04593378534610692,0.4625469498725258 l -5.978075660519083 0.5417418036371043" fill="#ff2003" stroke="none" /><path d="M 120.91429891909075 98.10471618934814 l 7.99279544255778 -0.724318604354649 a29.025547733780336,29.025547733780336 0 0,0 0.04080925139341709,0.49797623304298294 l -8.004079177770691 0.5866284541038973" fill="#ff3e05" stroke="none" /><line stroke="#e1ed5e" stroke-width="0.3" x1="184.98032266829074" x2="189.97916517819016" y1="98.17113171792111" y2="98.06355123074" /><path d="M 185.9800911702706 98.14961562048488 a86.0,86.0 0 0,1 -9.607161424134198,41.387399972396054" fill="none" id="id100" stroke="none" /><text fill="#e1ed5e" style="font-size:6.75px; font-family:Arial;" text-anchor="middle"><textPath startOffset="21.466115282336823" xlink:href="#id100">April</textPath></text><path d="M 120.99980553446 99.90962569577887 l 49.639596294215195 -0.21362788191280482 a70.64005597422906,70.64005597422906 0 0,0 -0.005233091740417476,1.2159862235164276 l -49.63591890518528 -0.6408678198073076" fill="#3cffa1" stroke="none" /><path d="M 120.9904718944345 100.63252640178507 l 5.232122128104582 0.15766464899093188 a26.234497120540144,26.234497120540144 0 0,0 -0.017487000257562536,0.4512617749087923 l -5.228632994995817 -0.24770367091373036" fill="#ff1402" stroke="none" /><path d="M 120.8583938346157 102.4346265915055 l 36.21551419717954 4.227135348416584 a57.46137877014452,57.46137877014452 0 0,0 -0.12312739625008122,0.9814464942389546 l -36.137385291682605 -4.849899596942934" fill="#57ff2a" stroke="none" /><path d="M 120.76222939487914 103.15116336523771 l 8.480450686955088 1.2871105995981769 a29.57756944299928,29.57756944299928 0 0,0 -0.08073020908237534,0.5027070890189537 l -8.457038723511424 -1.4328969183103355" fill="#ff4606" stroke="none" /><path d="M 120.64145759157962 103.86396538481128 l 5.68208637531854 1.0636547816611075 a26.78078429550274,26.78078429550274 0 0,0 -0.08872099801916226,0.4523864574849502 l -5.662935444323714 -1.1613049662140027" fill="#ff1d02" stroke="none" /><path d="M 120.41448212921028 104.9243191809786 l 23.886631249829072 5.761860413014866 a45.57173554888581,45.57173554888581 0 0,0 -0.19050870329189232,0.7609875698732517 l -23.78391123224212 -6.172175822285514" fill="#e0ff1b" stroke="none" /><path d="M 120.23288151984713 105.62410040840565 l 7.849060713459962 2.1817903456247056 a29.1466534967336,29.1466534967336 0 0,0 -0.13852622043350146,0.48222794626182497 l -7.810341856140361 -2.3165757673911123" fill="#ff4006" stroke="none" /><path d="M 120.13307415673323 105.97154293290107 l 4.404261227818932 1.3063198796611304 a25.593907769085813,25.593907769085813 0 0,0 -0.1289119156626939,0.42129159917920567 l -4.3811225396501055 -1.3819384513923931" fill="#ff0b01" stroke="none" /><path d="M 120.02730092923936 106.31721596034902 l 7.941251507318087 2.504910718844472 a29.326947412579457,29.326947412579457 0 0,0 -0.1560022514297215,0.48012556098753184 l -7.896957004872118 -2.641235179809799" fill="#ff4306" stroke="none" /><path d="M 119.79798401119884 107.00284435728193 l 11.148736845507608 3.9434757026382936 a32.825621923082,32.825621923082 0 0,0 -0.1930079964245514,0.5310751125243308 l -11.07920458807783 -4.134798612168756" fill="#ff750a" stroke="none" /><path d="M 119.67450827220406 107.3425965602758 l 10.800684973288341 4.030854099948754 a32.52833815722328,32.52833815722328 0 0,0 -0.20029048566884664,0.5228952558076563 l -10.729700208025989 -4.216172922589554" fill="#ff710a" stroke="none" /><path d="M 119.41010516605496 108.01547362559984 l 12.452812211496667 5.142434159520126 a34.47283047691909,34.47283047691909 0 0,0 -0.23121258800942493,0.5465182589599155 l -12.362448642294932 -5.356026944146205" fill="#ff8c0c" stroke="none" /><path d="M 119.26925614724726 108.34839909993367 l 15.922415089835996 6.898381275799611 a38.352549280129985,38.352549280129985 0 0,0 -0.2676622866802977,0.6035077956840537 l -15.801311718424424 -7.171437407976353" fill="#ffc112" stroke="none" /><path d="M 119.12269723197855 108.67885076344098 l 6.077715652888472 2.7583758971950614 a27.67437376445103,27.67437376445103 0 0,0 -0.20060676904815603,0.4320891337137476 l -6.029334267000484 -2.8625850981876395" fill="#ff2a04" stroke="none" /><path d="M 118.81262510543309 109.33194174019688 l 18.92753428622576 9.388942067081683 a42.128269860432674,42.128269860432674 0 0,0 -0.3278408523902351,0.646861104035659 l -18.763114764049256 -9.713357382820035" fill="#fff316" stroke="none" /><line stroke="#e1ed5e" stroke-width="0.3" x1="174.80103733775053" x2="179.2010983576182" y1="140.37084112569926" y2="142.7455964860345" /><path d="M 175.68104954172406 140.8457921977663 a86.0,86.0 0 0,1 -30.038265399797805,32.042727171017184" fill="none" id="id101" stroke="none" /><text fill="#e1ed5e" style="font-size:6.75px; font-family:Arial;" text-anchor="middle"><textPath startOffset="22.206326154141568" xlink:href="#id101">May</textPath></text><path d="M 118.48025628344425 109.97397251340804 l 17.21706945521472 9.292218401840485 a40.56458032908426,40.56458032908426 0 0,0 -0.3369247500043591,0.6116162876670735 l -17.054568295758852 -9.587205207905363" fill="#ffdf14" stroke="none" /><path d="M 118.30583269289576 110.29060199501025 l 17.04222753912733 9.580267866297214 a40.550423317294104,40.550423317294104 0 0,0 -0.3472815566091118,0.6055146663975075 l -16.87479398636584 -9.872202378553038" fill="#ffde14" stroke="none" /><path d="M 117.94076556474637 110.91462005526583 l 11.36735660136701 6.915556523431599 a34.30570246666517,34.30570246666517 0 0,0 -0.3112594943299858,0.5018494120405202 l -11.246632467369063 -7.110202266837393" fill="#ff8a0c" stroke="none" /><path d="M 117.75023020441432 111.22182372390056 l 16.58443011819016 10.484796490210803 a40.620761447667356,40.620761447667356 0 0,0 -0.3787308351130608,0.5877986666042609 l -16.401494419700047 -10.768716756736517" fill="#ffdf14" stroke="none" /><path d="M 117.35343817320211 111.8261652097733 l 6.719061673058805 4.578961967488133 a29.130970573435288,29.130970573435288 0 0,0 -0.285953897499736,0.41193791679782943 l -6.639246868396933 -4.693941146472982" fill="#ff4006" stroke="none" /><path d="M 117.14729908036423 112.12312394758627 l 9.174659346293108 6.486475328313314 a32.236046293307126,32.236046293307126 0 0,0 -0.3242335424315243,0.45033203217037804 l -9.061646011485982 -6.643440965934823" fill="#ff6d0a" stroke="none" /><path d="M 116.93607887273984 112.41649034213515 l 4.750669699349392 3.4828985436286644 a26.890623469338973,26.890623469338973 0 0,0 -0.27689496937090896,0.3709460610015258 l -4.690013463283391 -3.564157484139505" fill="#ff1e03" stroke="none" /><path d="M 116.71984013943494 112.70617746262583 l 10.954797634711264 8.325055841024279 a34.75914771974078,34.75914771974078 0 0,0 -0.36611840547222774,0.4732573923305735 l -10.809872412020967 -8.512391227468104" fill="#ff900d" stroke="none" /><path d="M 116.498646956653 112.99209946851258 l 15.645157393300892 12.320006700448552 a40.91365147230047,40.91365147230047 0 0,0 -0.4404687500151281,0.5495524908102954 l -15.43077073123091 -12.587487024837097" fill="#ffe315" stroke="none" /><path d="M 116.27256486870786 113.27417163493432 l 11.940187424120653 9.740080835434242 a36.40899900720103,36.40899900720103 0 0,0 -0.40033254812546315,0.4822263435051845 l -11.770758876101647 -9.944168436053197" fill="#ffa70f" stroke="none" /><path d="M 116.0416608686014 113.55231037782055 l 31.338585816534177 26.475453213135076 a62.025072624203624,62.025072624203624 0 0,0 -0.6960320456338104,0.8096425158315997 l -30.87821126132959 -27.010972828128203" fill="#30ff39" stroke="none" /><path d="M 115.56566222782051 114.09645910891815 l 17.098923181184222 15.484999475274204 a44.06855831440885,44.06855831440885 0 0,0 -0.5140357930268781,0.5578843300285617 l -16.829840980161624 -15.777035060104101" fill="#f2ff19" stroke="none" /><path d="M 115.07121518719521 114.62390073753431 l 4.2947085447811055 4.16724137207463 a26.984180991392748,26.984180991392748 0 0,0 -0.32632789228392384,0.3305684320086684 l -4.222340027441646 -4.2405502980639636" fill="#ff2003" stroke="none" /><path d="M 114.81725581225074 114.88116024355365 l 5.505292503980352 5.529035941434688 a28.802466532838114,28.802466532838114 0 0,0 -0.3543389809739676,0.3467952713525801 l -5.40930357063059 -5.62298131570984" fill="#ff3b05" stroke="none" /><path d="M 114.55890576462653 115.13401014063108 l 16.88247415738067 17.549363889525477 a45.35155244746435,45.35155244746435 0 0,0 -0.5672489372711785,0.5363692760833751 l -16.57788938571868 -17.837367802354773" fill="#e2ff1b" stroke="none" /><path d="M 114.29624159901734 115.38237550388516 l 8.684078108160692 9.343836940610895 a33.75619462697871,33.75619462697871 0 0,0 -0.4290258835345164,0.39190497250326345 l -8.52195267515931 -9.49193467970074" fill="#ff820c" stroke="none" /><path d="M 114.0293411484842 115.62618273729858 l 6.7383924469942125 7.505366832122453 a31.08644952668839,31.08644952668839 0 0,0 -0.40124856500915596,0.354055206249888 l -6.608201529078468 -7.62024518014463" fill="#ff5c08" stroke="none" /><path d="M 113.75828350139079 115.86535959552629 l 10.969588487124858 12.64957695817128 a37.74346645105368,37.74346645105368 0 0,0 -0.4945014597305171,0.42142487196240763 l -10.750221550817294 -12.836526220356635" fill="#ffb911" stroke="none" /><path d="M 113.48314897796784 116.09983520530334 l 11.149956541768715 13.313838122096172 a38.36605356506516,38.36605356506516 0 0,0 -0.5099576952316254,0.4196604654324962 l -10.919128717992399 -13.503793706385846" fill="#ffc212" stroke="none" /><path d="M 112.92097659922987 116.55440617244103 l 12.158599228157353 15.5776452782092 a40.76093539295805,40.76093539295805 0 0,0 -0.5568162554272585,0.4269429607984306 l -11.888654244236601 -15.784627580835002" fill="#ffe115" stroke="none" /><path d="M 112.63410532772338 116.77436683061366 l 4.116413492801812 5.465383433461361 a27.842168963017116,27.842168963017116 0 0,0 -0.38530251222850237,0.2850375872645267 l -4.021726010154746 -5.535430969465657" fill="#ff2d04" stroke="none" /><path d="M 112.34349029814194 116.9893568818739 l 13.060578283696499 17.976343820578286 a43.219982949143045,43.219982949143045 0 0,0 -0.6056409463223795,0.4321087344365517 l -12.749210009525234 -18.198496816859056" fill="#fdff18" stroke="none" /><path d="M 112.04921762599082 117.19931262002967 l 7.711633323815827 11.007751412942067 a34.44023361739352,34.44023361739352 0 0,0 -0.4884660226152472,0.3359713844257612 l -7.521010416577696 -11.138863586732922" fill="#ff8c0c" stroke="none" /><path d="M 111.7513745106137 117.40417183066458 l 15.552053436782792 23.033102220423558 a48.79190824677262,48.79190824677262 0 0,0 -0.70010649769099,0.46399241102911015 l -15.153272240351837 -23.297392652543987" fill="#b8ff1f" stroke="none" /><path d="M 111.45004920935366 117.60387380957326 l 4.532471217030421 6.968446151737578 a29.312793579951055,29.312793579951055 0 0,0 -0.42534007793585676,0.2714721620079319 l -4.411849337047634 -7.045432742569319" fill="#ff4206" stroke="none" /><path d="M 111.1453310114006 117.79835938074945 l 9.214017738094142 14.71417931647335 a38.36102519539804,38.36102519539804 0 0,0 -0.5626663653382556,0.34563563767887995 l -8.959372172823578 -14.870603420980608" fill="#ffc112" stroke="none" /><line stroke="#e1ed5e" stroke-width="0.3" x1="143.8653032363475" x2="146.44561519142675" y1="172.8068346515853" y2="177.08958963109032" /><path d="M 144.38136562736335 173.6633856474863 a86.0,86.0 0 0,1 -40.68145358897372,12.25698825130547" fill="none" id="id102" stroke="none" /><text fill="#e1ed5e" style="font-size:6.75px; font-family:Arial;" text-anchor="middle"><textPath startOffset="21.466115282336833" xlink:href="#id102">June</textPath></text><path d="M 110.5260780823613 118.17145234162733 l 2.2857559275800123 3.9459620741569488 a25.560186054444728,25.560186054444728 0 0,0 -0.3826131430446796,0.21725772821041286 l -2.217494017614134 -3.9847229681619902" fill="#ff0a01" stroke="none" /><path d="M 110.21172684928248 118.3499491758327 l 13.759715263450344 24.725502305810696 a49.29629354537231,49.29629354537231 0 0,0 -0.7450247157489498,0.4062468776962459 l -13.332067735832746 -24.958689835266714" fill="#b2ff20" stroke="none" /><path d="M 109.57404056367764 118.69057910512821 l 5.275750516047744 10.299395715243753 a32.57199618072696,32.57199618072696 0 0,0 -0.5012149183225699,0.2513195650979598 l -5.097681690042413 -10.388683121251015" fill="#ff710a" stroke="none" /><path d="M 109.2508944713604 118.85261126421891 l 5.0946497715331756 10.38250430457373 a32.56511357181913,32.56511357181913 0 0,0 -0.5053599037233119,0.24260346445796382 l -4.915177199809631 -10.468662045531255" fill="#ff710a" stroke="none" /><path d="M 108.92500713936063 119.00905698771935 l 4.91383040606032 10.465793557166863 a32.56194464788508,32.56194464788508 0 0,0 -0.5094114731847635,0.23384582228415504 l -4.732950937108137 -10.548826449785095" fill="#ff710a" stroke="none" /><path d="M 108.59647513512805 119.15986991738527 l 4.716182026778951 10.51145181244675 a32.520980518823166,32.520980518823166 0 0,0 -0.512715442363824,0.22475938261436865 l -4.534545909757373 -10.591075748355573" fill="#ff710a" stroke="none" /><path d="M 107.59598834532513 119.57807347666477 l 17.74571024182956 45.73819800868467 a70.06009568955834,70.06009568955834 0 0,0 -1.1280668899535422,0.42653837293366287 l -16.95577313111574 -46.03688463172496" fill="#3bff9a" stroke="none" /><path d="M 106.91757812671514 119.82793768551818 l 3.783041403788558 10.84337724013155 a32.48434727072381,32.48434727072381 0 0,0 -0.5295416798355592,0.1796492887898082 l -3.595829991015772 -10.906889515819481" fill="#ff700a" stroke="none" /><path d="M 106.57524785965236 119.94407469862006 l 5.95311442104032 18.05701644058445 a40.01303274192561,40.01303274192561 0 0,0 -0.6559825281534434,0.2100248902692579 l -5.641410547795937 -18.156814177513414" fill="#ffd714" stroke="none" /><path d="M 105.88484417918355 120.15858648285463 l 3.561508607052275 12.199979655987267 a33.7092032466481,33.7092032466481 0 0,0 -0.5583991027398051,0.157809164132147 l -3.3509783362078642 -12.259477613457934" fill="#ff820b" stroke="none" /><path d="M 105.18746579009965 120.34920634021253 l 3.9380292815006768 15.447961233015995 a36.94200680211628,36.94200680211628 0 0,0 -0.6175414353750892,0.15177666010672092 l -3.6715345613823764 -15.513459151436745" fill="#ffae10" stroke="none" /><path d="M 104.83641907484287 120.43548508189849 l 4.531820110965311 19.14845277846153 a40.67741439638655,40.67741439638655 0 0,0 -0.6827604261677607,0.15539405011867877 l -4.201539535404689 -19.223623562157893" fill="#ffe015" stroke="none" /><path d="M 104.48393922423573 120.51570834832081 l 4.2221595656569715 19.31796795569982 a40.77398587375124,40.77398587375124 0 0,0 -0.6869611596995768,0.14395939021329285 l -3.8890069445280164 -19.387783326639653" fill="#ffe115" stroke="none" /><path d="M 103.7750983002368 120.6578951692458 l 3.4605337790762056 18.936551674245383 a40.2501502162319,40.2501502162319 0 0,0 -0.6826253522816896,0.11868316743486237 l -3.134059455322466 -18.993313420201254" fill="#ffdb14" stroke="none" /><path d="M 103.41894727170886 120.7198165907248 l 4.373705033871983 26.5059268019838 a47.864352799861756,47.864352799861756 0 0,0 -0.8140681062714228,0.12714069604340886 l -3.9168010639920423 -26.577285805374313" fill="#c4ff1e" stroke="none" /><path d="M 103.06178313531738 120.77559828337769 l 3.6201148317658207 24.564134088049318 a45.829456596769035,45.829456596769035 0 0,0 -0.7814389566070045,0.10830031889774165 l -3.1967472839719857 -24.62280897243966" fill="#dcff1b" stroke="none" /><path d="M 102.70371172650421 120.8252237178851 l 2.6851393351162343 20.682170669056262 a41.85574637439187,41.85574637439187 0 0,0 -0.7152799791183742,0.08661044421452423 l -2.3287319329464795 -20.72532664199614" fill="#ffef16" stroke="none" /><path d="M 102.34483914955558 120.86867818915974 l 1.266651581296552 11.272988269953569 a32.343926602500204,32.343926602500204 0 0,0 -0.5538010335257129,0.05740374148075138 l -1.0724179511652363 -11.293121379890078" fill="#ff6e0a" stroke="none" /><path d="M 101.98527174616119 120.90594882070398 l 1.6389696517451717 17.25920681857604 a38.3368521227391,38.3368521227391 0 0,0 -0.6574873872336537,0.05673077833316321 l -1.3416379467699764 -17.284861849187866" fill="#ffc112" stroke="none" /><path d="M 101.62511606390274 120.93702456842531 l 0.45025246853574946 5.800783836379185 a26.81823172465832,26.81823172465832 0 0,0 -0.4605549071415087,0.03176256286372064 l -0.3503348006153104 -5.807674743759191" fill="#ff1d03" stroke="none" /><path d="M 101.26447882468166 120.96189622390904 l 0.6862475936456796 11.376268673798883 a32.396948043149195,32.396948043149195 0 0,0 -0.5569373709793063,0.02878730051428901 l -0.4903221542528936 -11.386395781075374" fill="#ff6f0a" stroke="none" /><line stroke="#e1ed5e" stroke-width="0.3" x1="102.19456741930631" x2="102.32365962044197" y1="184.97166512339345" y2="189.96999836594603" /><path d="M 102.22038585953345 185.97133177190398 a86.0,86.0 0 0,1 -42.740103519485714,-10.115201625700543" fill="none" id="id103" stroke="none" /><text fill="#e1ed5e" style="font-size:6.75px; font-family:Arial;" text-anchor="middle"><textPath startOffset="22.20632615414155" xlink:href="#id103">July</textPath></text><path d="M 100.18074693466247 120.99922214144158 l 0.14749390279303573 17.13587693779231 a38.13651168932941,38.13651168932941 0 0,0 -0.6564816749109705,0.0 l 0.14749390279302393 -17.13587693779231" fill="#ffbe11" stroke="none" /><path d="M 99.81925306533755 120.99922214144158 l -0.09957216345490869 11.568317788616802 a32.568746305203646,32.568746305203646 0 0,0 -0.5605551316361824,-0.009650464946353075 l 0.29868698498375906 -11.564889846391289" fill="#ff710a" stroke="none" /><path d="M 99.45781275523022 120.99299961872073 l -0.29827570457208785 11.548965440923089 a32.552816589541,32.552816589541 0 0,0 -0.5600319109271057,-0.019288631362955094 l 0.49702796717383657 -11.54212001113404" fill="#ff710a" stroke="none" /><path d="M 99.09653310690486 120.98055641714683 l -0.9478306229923771 22.010783141665105 a43.031181479877354,43.031181479877354 0 0,0 -0.739750949738106,-0.03823667436501288 l 1.326569641143972 -21.99120666053789" fill="#ffff18" stroke="none" /><path d="M 98.73552117531835 120.96189622390904 l -0.6456736339797723 10.703653905320033 a31.72311061989428,31.72311061989428 0 0,0 -0.5447873825458703,-0.03757172753379933 l 0.8298237773045727 -10.69095383326995" fill="#ff6509" stroke="none" /><path d="M 97.2962882734958 120.8252237178851 l -1.4199298847849684 10.936949092790753 a32.028737748990224,32.028737748990224 0 0,0 -0.5461226308708789,-0.07568762035795464 l 1.6079811068426781 -10.910886906940194" fill="#ff6a09" stroke="none" /><path d="M 96.93821686468263 120.77559828337769 l -1.6825135399764475 11.416623538646279 a32.53993695110057,32.53993695110057 0 0,0 -0.5534332609225303,-0.08643489342623087 l 1.878782664507495 -11.385970337872942" fill="#ff710a" stroke="none" /><path d="M 94.81253420990036 120.34920634021253 l -1.9861817624814022 7.791323191188644 a29.040499677455855,29.040499677455855 0 0,0 -0.4833301039428898,-0.1276518733702725 l 2.1200023092357814 -7.755979968514789" fill="#ff3e05" stroke="none" /><line stroke="#e1ed5e" stroke-width="0.3" x1="58.666819895761336" x2="56.23545636021788" y1="174.27360380694188" y2="178.64263932499728" /><path d="M 58.180547188652646 175.14741091055294 a86.0,86.0 0 0,1 -31.652253787137756,-30.449443065178592" fill="none" id="id104" stroke="none" /><text fill="#e1ed5e" style="font-size:6.75px; font-family:Arial;" text-anchor="middle"><textPath startOffset="22.20632615414155" xlink:href="#id104">August</textPath></text><path d="M 89.7882731507175 118.34994917583269 l -3.3601217007995983 6.037966285654949 a27.909953307431984,27.909953307431984 0 0,0 -0.4177870589220369,-0.23723039562839132 l 3.463557526642842 -5.979232724231925" fill="#ff2e04" stroke="none" /><path d="M 89.1626897886671 117.98757091392108 l -3.081958565532625 5.115378924312092 a26.97206581837108,26.97206581837108 0 0,0 -0.3956170139453852,-0.24302028220475658 l 3.1695547794103187 -5.061570175278958" fill="#ff2003" stroke="none" /><path d="M 88.8546689885994 117.79835938074946 l -8.362559503870521 13.35445660972659 a36.75671008798618,36.75671008798618 0 0,0 -0.5333542124140389,-0.34041189314380144 l 8.591195518331485 -13.208530287758984" fill="#ffac0f" stroke="none" /><path d="M 87.95078237400918 117.19931262002967 l -5.822314441340417 8.310896969170866 a31.147430900775557,31.147430900775557 0 0,0 -0.436468462943494,-0.3114086593537384 l 5.964510232132798 -8.209444047972909" fill="#ff5d08" stroke="none" /><path d="M 87.65650970185807 116.9893568818739 l -4.068584807759701 5.59992657130414 a27.92188991113924,27.92188991113924 0 0,0 -0.38640575535692007,-0.28585374015611503 l 4.1643755335351855 -5.529062882408258" fill="#ff2e04" stroke="none" /><path d="M 86.79598089348748 116.32954008644616 l -19.0688308911192 23.58261041023574 a51.32754235534197,51.32754235534197 0 0,0 -0.6822404904649355,-0.5614374769565167 l 19.471941510128826 -23.250877814422044" fill="#9bff22" stroke="none" /><path d="M 85.97065885151581 115.62618273729859 l -8.916736743402831 9.93165368908659 a34.34713224445976,34.34713224445976 0 0,0 -0.43653643193180164,-0.3987656803907973 l 9.086372724801487 -9.776695242109216" fill="#ff8b0c" stroke="none" /><path d="M 85.70375840098266 115.38237550388516 l -11.0428563976889 11.881819607497894 a37.22104542269394,37.22104542269394 0 0,0 -0.46555403995492406,-0.4402104031954091 l 11.245746272034639 -11.689974567556554" fill="#ffb210" stroke="none" /><path d="M 85.44109423537348 115.13401014063109 l -4.000527591089623 4.158556014458685 a26.770425385745824,26.770425385745824 0 0,0 -0.3293400320632229,-0.3223285382621362 l 4.07151757552864 -4.0890773732739785" fill="#ff1c02" stroke="none" /><path d="M 84.19399662182784 113.82643327865904 l -8.896704507981916 7.782466467736644 a32.8202426127297,32.8202426127297 0 0,0 -0.3683017147330509,-0.42841810053446766 l 9.029348732285746 -7.628171268040647" fill="#ff750a" stroke="none" /><path d="M 83.95833913139862 113.55231037782056 l -4.416653436623734 3.731275626300613 a26.781802952251596,26.781802952251596 0 0,0 -0.29447740151133284,-0.35471700025553426 l 4.480226838028603 -3.6546973689313176" fill="#ff1d02" stroke="none" /><path d="M 83.72743513129214 113.27417163493432 l -19.948303468470495 16.2726162840769 a46.74359827217238,46.74359827217238 0 0,0 -0.5032328712115013,-0.6278603824275801 l 20.225454251736856 -15.926828068071059" fill="#d1ff1c" stroke="none" /><path d="M 83.50135304334701 112.99209946851258 l -6.197869934119372 4.8806028087358895 a28.888845003985153,28.888845003985153 0 0,0 -0.3042864558726371,-0.3933312624424178 l 6.280963207210077 -4.773193552180219" fill="#ff3c05" stroke="none" /><path d="M 83.06392112726016 112.41649034213515 l -13.730965073834295 10.066698230951104 a38.025798516718424,38.025798516718424 0 0,0 -0.382467478942123,-0.5312138766995782 l 13.902212345152025 -9.828850748800388" fill="#ffbd11" stroke="none" /><path d="M 82.85270091963577 112.12312394758628 l -24.45987719218179 17.2931096351566 a50.95558767759633,50.95558767759633 0 0,0 -0.5001875532800028,-0.7205574762503819 l 24.753925652623927 -16.869510896719206" fill="#9fff22" stroke="none" /><path d="M 82.6465618267979 111.8261652097733 l -12.137972901268359 8.271886608834675 a35.68858380584539,35.68858380584539 0 0,0 -0.34158545320303907,-0.5106239056156416 l 12.278561459882127 -8.061725789013213" fill="#ff9d0e" stroke="none" /><path d="M 82.44556493220864 111.52570212397912 l -20.617501935528423 13.536817615137378 a45.66428221552397,45.66428221552397 0 0,0 -0.425754494056079,-0.660780429542328 l 20.847461292961547 -13.179915585673603" fill="#deff1b" stroke="none" /><path d="M 82.24976979558568 111.22182372390057 l -11.408588848041003 7.212592260315319 a34.49731034751761,34.49731034751761 0 0,0 -0.3129979741690772,-0.5046523950851639 l 11.531051461878036 -7.015143533864892" fill="#ff8d0d" stroke="none" /><line stroke="#e1ed5e" stroke-width="0.3" x1="26.63291911575756" x2="22.317208475507996" y1="142.92168965132927" y2="145.44649492493687" /><path d="M 25.769776987707644 143.4266507060508 a86.0,86.0 0 0,1 -11.730757126820373,-40.83630448921669" fill="none" id="id105" stroke="none" /><text fill="#e1ed5e" style="font-size:6.75px; font-family:Arial;" text-anchor="middle"><textPath startOffset="21.46611528233685" xlink:href="#id105">September</textPath></text><path d="M 81.69416730710424 110.29060199501025 l -54.91749807868727 30.871805985030743 a84.0,84.0 0 0,0 -0.6976943621939338,-1.2665179264087099 l 55.44076885033272 -29.92191754022421" fill="#4dd2ff" stroke="none" /><path d="M 81.18737489456691 109.33194174019688 l -10.204032279095227 5.061677156161717 a32.39047191234967,32.39047191234967 0 0,0 -0.2434633575274672,-0.5016066279710645 l 10.289648893237413 -4.8852815722253675" fill="#ff6f0a" stroke="none" /><path d="M 80.87730276802145 108.67885076344099 l -5.247500815372875 2.3815822582546873 a26.762655538913677,26.762655538913677 0 0,0 -0.18677646502350442,-0.4211316210812853 l 5.28771836512766 -2.290902300680706" fill="#ff1c02" stroke="none" /><path d="M 80.73074385275274 108.34839909993369 l -10.578488701025108 4.583126866727176 a32.52863717332766,32.52863717332766 0 0,0 -0.21817269661974584,-0.5156958076363586 l 10.655812378837162 -4.400356533424659" fill="#ff710a" stroke="none" /><path d="M 80.58989483394504 108.01547362559985 l -22.847296681559783 9.434874381183912 a45.71873419582672,45.71873419582672 0 0,0 -0.29411816520559797,-0.7299771655851167 l 23.00631746102277 -9.040197847755989" fill="#deff1b" stroke="none" /><path d="M 80.32549172779594 107.34259656027581 l -33.598131399072386 12.538942301854393 a56.861671845559115,56.861671845559115 0 0,0 -0.3343350929337542,-0.9199465845449503 l 33.808990753011365 -11.958747920303326" fill="#5dff2a" stroke="none" /><path d="M 80.20201598880116 107.00284435728193 l -10.894250700764184 3.853460130259066 a32.55568489128174,32.55568489128174 0 0,0 -0.18232604991132084,-0.5299248459744503 l 10.958967581618733 -3.6653625811953185" fill="#ff710a" stroke="none" /><path d="M 80.0844068197444 106.66101706037122 l -11.291613276319252 3.7766200580580165 a32.906443190343424,32.906443190343424 0 0,0 -0.17504308075499692,-0.5387272079360947 l 11.354948608090497 -3.581693950144118" fill="#ff760a" stroke="none" /><path d="M 79.86692584326677 105.97154293290107 l -11.443227593146489 3.3941028742786035 a32.93597051226818,32.93597051226818 0 0,0 -0.15653582706792948,-0.5449217495946972 l 11.499956057100523 -3.19662364917931" fill="#ff770a" stroke="none" /><path d="M 79.76711848015287 105.62410040840567 l -35.969955710773505 9.99850873464828 a58.333736629914846,58.333736629914846 0 0,0 -0.2605904784487896,-0.9697541123454027 l 36.13673426556407 -9.377863689127338" fill="#4dff2c" stroke="none" /><path d="M 79.67330655649465 105.27499134158121 l -23.75583731816939 6.164890345477915 a45.542731707352715,45.542731707352715 0 0,0 -0.19038745523815523,-0.7605032441696327 l 23.858436087702604 -5.7550592619108905" fill="#e0ff1b" stroke="none" /><path d="M 79.58551787078972 104.9243191809786 l -22.834341539853796 5.508030295259236 a44.48926459666599,44.48926459666599 0 0,0 -0.17316796715701266,-0.7460030702856446 l 22.925770072941365 -5.114158567625017" fill="#edff1a" stroke="none" /><path d="M 79.4281124754447 104.21870165774334 l -11.299440776513757 2.3171898776207103 a32.53458845346854,32.53458845346854 0 0,0 -0.10778254758651974,-0.5495808880648276 l 11.337653257075944 -2.1223452624879275" fill="#ff710a" stroke="none" /><path d="M 79.35854240842038 103.8639653848113 l -6.23984107579013 1.1680633412929264 a27.348227202959116,27.348227202959116 0 0,0 -0.08263534817828258,-0.46346291724861904 l 6.2590228663076015 -1.0604816733110938" fill="#ff2503" stroke="none" /><path d="M 79.23777060512086 103.15116336523772 l -38.2338733451665 5.802901928544512 a59.67173052459043,59.67173052459043 0 0,0 -0.14538860570344977,-1.016847569666192 l 38.32809600188655 -5.143908886897919" fill="#3fff2d" stroke="none" /><path d="M 79.18660465613746 102.79330883721812 l -23.437971685228835 3.145546046340945 a44.64810725295451,44.64810725295451 0 0,0 -0.09567130673180033,-0.7625944464907792 l 23.48864450120748 -2.741633845562757" fill="#ebff1a" stroke="none" /><path d="M 79.10278846688536 102.07522291339032 l -11.5296478356698 1.1449656493158373 a32.586359460705445,32.586359460705445 0 0,0 -0.05062586348885051,-0.558652185014308 l 11.547648295435726 -0.9463320757529632" fill="#ff720a" stroke="none" /><line stroke="#e1ed5e" stroke-width="0.3" x1="15.007084014347285" x2="10.007500721073583" y1="101.09737516637583" y2="101.16192664675087" /><path d="M 14.007167355692545 101.11028546245083 a86.0,86.0 0 0,1 10.666146001902534,-42.60595125391555" fill="none" id="id106" stroke="none" /><text fill="#e1ed5e" style="font-size:6.75px; font-family:Arial;" text-anchor="middle"><textPath startOffset="22.20632615414155" xlink:href="#id106">October</textPath></text><path d="M 79.12142395522702 97.74499172005258 l -6.878529933234113 -0.742921448284898 a27.918533538309937,27.918533538309937 0 0,0 0.055716946916573015,-0.4773487754151208 l 6.864722633313951 0.8612139620248805" fill="#ff2e04" stroke="none" /><path d="M 79.21141760316559 97.0276538004421 l -10.588699066689147 -1.5139694871127145 a31.696384974972243,31.696384974972243 0 0,0 0.08187343257958545,-0.5394436249531922 l 10.56106974067026 1.6960122244579987" fill="#ff6509" stroke="none" /><path d="M 79.26566170972629 96.67025291283419 l -11.426409281488299 -1.834977923536994 a32.572811803876796,32.572811803876796 0 0,0 0.09366721285182028,-0.5528291924483639 l 11.393130207116256 2.031392904301186" fill="#ff710a" stroke="none" /><path d="M 79.32604984820605 96.31383870115002 l -5.702826623653586 -1.0168128799681304 a26.792766172764203,26.792766172764203 0 0,0 0.08486197363970278,-0.45333605650487263 l 5.684478926104021 1.1148270139355758" fill="#ff1d02" stroke="none" /><path d="M 79.62865764111835 94.90015583598534 l -11.228466193850757 -2.8109795997110356 a32.5749755669911,32.5749755669911 0 0,0 0.14085367955799555,-0.5427666851689815 l 11.178416182422454 3.0038427104288807" fill="#ff720a" stroke="none" /><path d="M 79.71946130924805 94.55025226153421 l -10.882340046809114 -2.924281695059586 a32.2683959961676,32.2683959961676 0 0,0 0.14876226785869046,-0.5351770277269822 l 10.830391008384062 3.111170026205511" fill="#ff6d0a" stroke="none" /><path d="M 79.81627453868168 94.20196356495316 l -11.175410705580935 -3.2102814008122498 a32.627369053694565,32.627369053694565 0 0,0 0.1597095776895137,-0.5384613000850436 l 11.118495230779715 3.402172087643833" fill="#ff720a" stroke="none" /><path d="M 79.91906864156998 93.8553929516997 l -26.589083911041662 -8.136050539261856 a48.806019161430456,48.806019161430456 0 0,0 0.2527327115671204,-0.8012317611091607 l 26.445095715706337 8.59253246679743" fill="#b8ff1f" stroke="none" /><path d="M 80.38941819471856 92.48833698450439 l -8.033449698063864 -3.077143125225332 a29.602623080458883,29.602623080458883 0 0,0 0.1863646529360851,-0.47427771395790636 l 7.979291495246087 3.2149698440790018" fill="#ff4706" stroke="none" /><path d="M 80.52162464483688 92.15188598940014 l -3.729416844526966 -1.5026350019043495 a25.020753903087027,25.020753903087027 0 0,0 0.16439625792302295,-0.3980985783548067 l 3.7029988997177434 1.5666081507124674" fill="#ff0200" stroke="none" /><path d="M 80.65960295795068 91.81776055985345 l -4.6982220792970315 -1.987651955242286 a26.101377363180713,26.101377363180713 0 0,0 0.17861954347576295,-0.4122785332778579 l 4.663311825978588 2.068229633106743" fill="#ff1202" stroke="none" /><path d="M 81.10775173730289 90.83032412892265 l -5.846829072019661 -2.837858507813097 a27.499142336322652,27.499142336322652 0 0,0 0.2103553270809109,-0.4240635033390646 l 5.797113731985337 2.938081599651123" fill="#ff2703" stroke="none" /><path d="M 81.26839172434947 90.50648371742162 l -22.011075727314775 -11.155609424416685 a45.676609902977354,45.676609902977354 0 0,0 0.3614772233857217,-0.6982589396918771 l 21.81578907076894 11.532841086368897" fill="#deff1b" stroke="none" /><line stroke="#e1ed5e" stroke-width="0.3" x1="26.266209847984243" x2="21.928928074336255" y1="57.711370442889674" y2="55.22380399835377" /><path d="M 25.398753493254645 57.213857153982495 a86.0,86.0 0 0,1 29.58750427330803,-30.492523968695096" fill="none" id="id107" stroke="none" /><text fill="#e1ed5e" style="font-size:6.75px; font-family:Arial;" text-anchor="middle"><textPath startOffset="21.46611528233685" xlink:href="#id107">November</textPath></text><path d="M 81.96595687620814 89.24020034530311 l -13.529225326454196 -8.072053116244861 a36.75430034769707,36.75430034769707 0 0,0 0.3288358276369373,-0.5405196390759659 l 13.388273700531041 8.3037405285279" fill="#ffac0f" stroke="none" /><path d="M 82.15384107792192 88.93136811851018 l -10.281895986066322 -6.3770877649611215 a33.09895174923446,33.09895174923446 0 0,0 0.30446686053040567,-0.4815934554843938 l 10.170601529289954 6.553128868159731" fill="#ff790b" stroke="none" /><path d="M 82.34701348167596 88.62581576622439 l -19.328695251438216 -12.45387802002548 a43.99342379596053,43.99342379596053 0 0,0 0.4156401572973098,-0.6330484749959203 l 19.111458458782987 12.784744558999067" fill="#f3ff19" stroke="none" /><path d="M 82.54541684631803 88.32363383020206 l -20.706897310726916 -13.852024600739261 a45.91293201886272,45.91293201886272 0 0,0 0.4450833175454656,-0.6531048481012234 l 20.46538952751271 14.2064074721109" fill="#dbff1b" stroke="none" /><path d="M 82.7489923806493 88.02491185347247 l -11.362734223434787 -7.887640357805251 a34.83208586752173,34.83208586752173 0 0,0 0.3461436545933079,-0.48959565172667235 l 11.2252779490376 8.082062509863709" fill="#ff910d" stroke="none" /><path d="M 82.95767976084542 87.72973835380427 l -16.297722027291744 -11.734160061867112 a41.08248629120378,41.08248629120378 0 0,0 0.41813634720601744,-0.5703375076779345 l 16.093323067572094 12.012960013216547" fill="#ffe515" stroke="none" /><path d="M 83.17141714833178 87.43820079747576 l -24.959624316839022 -18.631265128037324 a52.14653891380166,52.14653891380166 0 0,0 0.5431286997375329,-0.7146937040240283 l 24.63521967687738 19.058143607942377" fill="#91ff24" stroke="none" /><path d="M 83.39014120810768 87.1503855733568 l -4.558708083004553 -3.526679057550054 a26.763617315628544,26.763617315628544 0 0,0 0.2850273238659458,-0.36195575633182964 l 4.497326678544636 3.6046272078349313" fill="#ff1c02" stroke="none" /><path d="M 84.07557802195018 86.31012108654704 l -18.673442678000654 -16.053152165366093 a45.62521382430972,45.62521382430972 0 0,0 0.5171034341041126,-0.5911386155480524 l 18.3943473803187 16.37220633711709" fill="#dfff1b" stroke="none" /><path d="M 84.31358615837235 86.03803664274999 l -6.892870642673638 -6.135118473279285 a30.22774860829037,30.22774860829037 0 0,0 0.3492835918886264,-0.38568766603371246 l 6.786243410168966 6.252858926582554" fill="#ff5007" stroke="none" /><path d="M 84.5562425177563 85.77008943001954 l -10.272415045896478 -9.465024791336722 a34.968149669006955,34.968149669006955 0 0,0 0.4116794899241193,-0.4391509763287058 l 10.107968234001904 9.640445184543479" fill="#ff930d" stroke="none" /><path d="M 84.80347519578584 85.50635884689758 l -10.989009085243502 -10.480735323482252 a36.185655520801625,36.185655520801625 0 0,0 0.4337725064721103,-0.447040697599299 l 10.806972315068274 10.668340216631673" fill="#ffa40f" stroke="none" /><path d="M 85.05521093208273 85.24692304244772 l -18.19537199710371 -17.96196133144706 a46.567628301924785,46.567628301924785 0 0,0 0.5680456781937401,-0.5656063095272541 l 17.883490518742654 18.272503491624427" fill="#d3ff1c" stroke="none" /><path d="M 85.31137513191541 84.99185889309783 l -17.017665669954457 -17.387844674262308 a45.3297777891747,45.3297777891747 0 0,0 0.5623412703526294,-0.5409718565368191 l 16.7158411559894 17.67819961756144" fill="#e3ff1b" stroke="none" /><path d="M 85.57189188830299 84.74124197986013 l -24.213232449829654 -25.607228056311897 a56.24217295226631,56.24217295226631 0 0,0 0.7091659045717286,-0.6590924206071067 l 23.76885866146307 26.02022506299365" fill="#64ff29" stroke="none" /><path d="M 86.10567301691215 84.25364557470407 l -11.500062930015822 -13.032949852817751 a38.38128963168114,38.38128963168114 0 0,0 0.4991508673498293,-0.43285871345144517 l 11.27401826401922 13.228973559688876" fill="#ffc212" stroke="none" /><path d="M 86.37877921826538 84.01681056812374 l -3.7462526395367512 -4.395866314543151 a26.7756427776111,26.7756427776111 0 0,0 0.35336512328048325,-0.29593312851048875 l 3.6700299792971576 4.459700600447452" fill="#ff1d02" stroke="none" /><path d="M 86.93701828274178 83.55741782278169 l -3.5933488085093224 -4.523005111249983 a26.776653953285486,26.776653953285486 0 0,0 0.3633559361165728,-0.2836050715953402 l 3.514960317233324 4.584188572068545" fill="#ff1d02" stroke="none" /><path d="M 87.80319425747018 82.90503203632743 l -28.505235049673537 -39.95276224429332 a70.07923834154485,70.07923834154485 0 0,0 0.9880133445060117,-0.6921664875997461 l 27.813290565583866 40.437513574657004" fill="#3bff9a" stroke="none" /><path d="M 88.39885842347998 82.49532879139004 l -7.266683315964726 -10.964515981815156 a34.15390805540316,34.15390805540316 0 0,0 0.49284573043422913,-0.32056057247029934 l 7.07687055974621 11.08797547844499" fill="#ff880c" stroke="none" /><path d="M 89.00827224532344 82.1063720568725 l -4.846180022828505 -7.889182138541976 a30.25876102017715,30.25876102017715 0 0,0 0.44615524957626623,-0.26880354580454363 l 4.70966270703459 7.9714322938051385" fill="#ff5007" stroke="none" /><line stroke="#e1ed5e" stroke-width="0.3" x1="56.762969772571076" x2="54.21961505331055" y1="26.818313649435495" y2="22.513508569990535" /><path d="M 56.25429882871897 25.957352633546506 a86.0,86.0 0 0,1 42.265352541879196,-11.944610805530505" fill="none" id="id108" stroke="none" /><text fill="#e1ed5e" style="font-size:6.75px; font-family:Arial;" text-anchor="middle"><textPath startOffset="22.20632615414155" xlink:href="#id108">December</textPath></text><path d="M 89.94658935756843 81.56283822128135 l -11.775150844125681 -21.594697441847615 a45.59644557668554,45.59644557668554 0 0,0 0.6923167872775584,-0.3698116513149883 l 11.401689010319819 21.79418781966435" fill="#dfff1b" stroke="none" /><path d="M 90.26544431104013 81.39251694778311 l -5.365330741725105 -10.255763492052656 a32.574431250520284,32.574431250520284 0 0,0 0.4990705536959873,-0.2556433216085553 l 5.187999700440354 10.346599338973718" fill="#ff720a" stroke="none" /><path d="M 90.91171255644093 81.06846463323043 l -4.807727568867469 -10.014831184538778 a32.10905432659588,32.10905432659588 0 0,0 0.500322961439369,-0.23490833899426178 l 4.634626396128492 10.096104506173047" fill="#ff6b09" stroke="none" /><path d="M 91.23893434514133 80.91482961587045 l -3.281750808517713 -7.148990294814291 a28.866253911777548,28.866253911777548 0 0,0 0.4533622244277456,-0.2034104149090855 l 3.1582064656231927 7.204421040239905" fill="#ff3c05" stroke="none" /><path d="M 92.23578459929587 80.48803036053334 l -18.245965340495594 -45.85327729756493 a70.3501599808344,70.3501599808344 0 0,0 1.129008964690821,-0.4380379380933829 l 17.453973210805096 46.160557939548866" fill="#3bff9d" stroke="none" /><path d="M 92.91201910852362 80.23233633223022 l -1.948091264248029 -5.433030011703973 a26.771730648766933,26.771730648766933 0 0,0 0.43512730727593585,-0.15180737355993185 l 1.854281952908808 5.465758238436115" fill="#ff1c02" stroke="none" /><path d="M 93.59665428221793 80.00007090966166 l -3.5295867548231494 -11.024156421638772 a32.57540528312432,32.57540528312432 0 0,0 0.5355003044576533,-0.16638255127690424 l 3.3393010776547674 11.083279107798202" fill="#ff720a" stroke="none" /><path d="M 94.63758080256005 79.69619591428918 l -6.213602604403916 -23.526651927269885 a45.33335587691034,45.33335587691034 0 0,0 0.7561843623695874,-0.19276823111517863 l 5.807709353349329 23.630123154553928" fill="#e3ff1b" stroke="none" /><path d="M 94.98787191387505 79.60689891045804 l -2.7622881660874565 -11.239062697820819 a32.573537326075126,32.573537326075126 0 0,0 0.5456475649121422,-0.129137149448937 l 2.56841691421278 11.284945759410627" fill="#ff710a" stroke="none" /><path d="M 95.33964822691252 79.52364482259891 l -2.651969045991113 -11.652051765442598 a32.95003138763447,32.95003138763447 0 0,0 0.5541211106625223,-0.12110941240204048 l 2.4510052111750698 11.695974675940507" fill="#ff770a" stroke="none" /><path d="M 95.692805502759 79.44645832069477 l -1.418909144551198 -6.770905808957841 a27.917981543360032,27.917981543360032 0 0,0 0.4711938304211101,-0.09451704962106415 l 1.3021489046629515 6.794326814656116" fill="#ff2e04" stroke="none" /><path d="M 96.40284397218896 79.31037775812273 l -2.0034919193598024 -11.523406451021337 a32.69627616407804,32.69627616407804 0 0,0 0.5553241321782831,-0.09163324001019002 l 1.8048385810426337 11.556185953971154" fill="#ff730a" stroke="none" /><path d="M 97.11714578562143 79.19881850522333 l -5.382212832681989 -38.835257578318995 a60.20644648716164,60.20644648716164 0 0,0 1.0277678245012989,-0.13343376075434163 l 4.7129302796728325 38.92214966223747" fill="#3aff2e" stroke="none" /><path d="M 97.83486435360386 79.11191278185805 l -0.9430861460181987 -9.09839792487773 a30.14714470631305,30.14714470631305 0 0,0 0.5166285652274601,-0.04906010736953837 l 0.7863324537005023 9.11328357676245" fill="#ff4f07" stroke="none" /><path d="M 98.19473922651362 79.07773832637324 l -0.7951910377704321 -9.215951078705094 a30.250193677520272,30.250193677520272 0 0,0 0.5191650750032284,-0.040297201756041345 l 0.6364357734048695 9.228273542649598" fill="#ff5007" stroke="none" /><path d="M 98.91598698831166 79.02799685794201 l -0.5959220115964197 -11.52908513538656 a32.54447604280491,32.54447604280491 0 0,0 0.5597017084735716,-0.02410193293069379 l 0.397379470733524 11.537634794841447" fill="#ff710a" stroke="none" /><path d="M 99.63851952072746 79.00311137660856 l -0.42431279108813424 -24.646554729282407 a45.65020692343563,45.65020692343563 0 0,0 0.7857932703606639,-0.006763570761783322 l 6.037559401421075e-15 24.650206923435633" fill="#dfff1b" stroke="none" /></svg>