<?xml version="1.0" encoding="utf-8" ?>
<svg baseProfile="full" height="200mm" version="1.1" viewBox="0,0,200,200" width="200mm" xmlns="http://www.w3.org/2000/svg" xmlns:ev="http://www.w3.org/2001/xml-events" xmlns:xlink="http://www.w3.org/1999/xlink"><defs /><rect fill="#1a1a1a" height="200" width="200" x="0" y="0" /><text alignment-baseline="middle" fill="#e1ed5e" style="dominant-baseline: central; font-size:9.0px; font-family:Arial;" text-anchor="middle" x="100.0" y="100.0">2024</text><line stroke="#e1ed5e" stroke-width="0.3" x1="100.0" x2="100.0" y1="15.0" y2="10.0" /><path d="M 100.0 14.0 a86.0,86.0 0 0,1 42.35913384403234,11.155469271406648" fill="none" id="id37" stroke="none" /><text fill="#e1ed5e" style="font-size:6.75px; font-family:Arial;" text-anchor="middle"><textPath startOffset="22.145653131862478" xlink:href="#id37">January</textPath></text><line stroke="#e1ed5e" stroke-width="0.3" x1="143.13028292997686" x2="145.6673583964461" y1="26.7553504044142" y2="22.446841604673864" /><path d="M 143.63769802327073 25.89364864446614 a86.0,86.0 0 0,1 29.32050498858742,28.57503671076993" fill="none" id="id38" stroke="none" /><text fill="#e1ed5e" style="font-size:6.75px; font-family:Arial;" text-anchor="middle"><textPath startOffset="20.669276256404974" xlink:href="#id38">February</textPath></text><path d="M 116.57777611688842 87.10902102172516 l 9.177504633613676 -7.136483112738509 a32.62566051966091,32.62566051966091 0 0,0 0.3400029186779739,0.4450747347897843 l -9.298659529645956 6.977887464707843" fill="#ff6609" stroke="none" /><path d="M 116.7966241395341 87.39550010848427 l 7.983011316953987 -5.99060051845075 a30.980769722735708,30.980769722735708 0 0,0 0.3155582893062727,0.4281154241681794 l -8.084671625844086 5.852678785013695" fill="#ff4d07" stroke="none" /><path d="M 117.81537515405839 88.88188828441811 l 8.477207734553003 -5.290404597934312 a30.99256882811471,30.99256882811471 0 0,0 0.27779972939390846,0.4537649805047799 l -8.566775428402314 5.144102501304978" fill="#ff4e07" stroke="none" /><line stroke="#e1ed5e" stroke-width="0.3" x1="172.87174338648825" x2="177.1583165268699" y1="56.24261187166439" y2="53.66864786411523" /><path d="M 173.72905801456457 55.72781907015455 a86.0,86.0 0 0,1 12.242430191666344,42.057860355516425" fill="none" id="id39" stroke="none" /><text fill="#e1ed5e" style="font-size:6.75px; font-family:Arial;" text-anchor="middle"><textPath startOffset="22.145653131862474" xlink:href="#id39">March</textPath></text><path d="M 118.36410011445183 89.81374322990088 l 13.937916625984816 -7.73112740116168 a36.938502149383325,36.938502149383325 0 0,0 0.30281594872666906,0.5571472387859593 l -14.068577924326826 7.490725328901117" fill="#ffa30f" stroke="none" /><path d="M 118.70294669586156 90.45014215332178 l 8.984039894235758 -4.587314783815425 a31.08743920660894,31.08743920660894 0 0,0 0.2386036261593371,0.47736708655130644 l -9.061463433606834 4.432415841100369" fill="#ff4f07" stroke="none" /><path d="M 120.77682067341334 96.94652285012252 l 44.37861995446673 -6.52212887159693 a65.8553238097855,65.8553238097855 0 0,0 0.15477720685928506,1.119890766654461 l -44.48404167788122 5.7593497967423835" fill="#35ff65" stroke="none" /><line stroke="#e1ed5e" stroke-width="0.3" x1="184.99686870605535" x2="189.99668451229388" y1="99.2704041080226" y2="99.22748670261217" /><path d="M 185.99683186730306 99.26182062694052 a86.0,86.0 0 0,1 -10.086455211305974,41.156179273409016" fill="none" id="id40" stroke="none" /><text fill="#e1ed5e" style="font-size:6.75px; font-family:Arial;" text-anchor="middle"><textPath startOffset="21.40746469413373" xlink:href="#id40">April</textPath></text><line stroke="#e1ed5e" stroke-width="0.3" x1="174.33088141563837" x2="178.70328620479359" y1="141.23008692659167" y2="143.65538615756765" /><path d="M 175.20536237346943 141.71514677278685 a86.0,86.0 0 0,1 -30.301960400862466,31.631185727798858" fill="none" id="id41" stroke="none" /><text fill="#e1ed5e" style="font-size:6.75px; font-family:Arial;" text-anchor="middle"><textPath startOffset="22.145653131862474" xlink:href="#id41">May</textPath></text><path d="M 117.81537515405839 111.11811171558189 l 20.812385860922586 12.988468054618657 a45.53274765756538,45.53274765756538 0 0,0 -0.41951338682864775,0.659544723416101 l -20.586354782468046 -13.34382645271343" fill="#e8ff1a" stroke="none" /><line stroke="#e1ed5e" stroke-width="0.3" x1="143.1302829299769" x2="145.66735839644613" y1="173.24464959558577" y2="177.55315839532614" /><path d="M 143.63769802327073 174.10635135553383 a86.0,86.0 0 0,1 -40.68552437913181,11.842963189579606" fill="none" id="id42" stroke="none" /><text fill="#e1ed5e" style="font-size:6.75px; font-family:Arial;" text-anchor="middle"><textPath startOffset="21.407464694133747" xlink:href="#id42">June</textPath></text><path d="M 103.58742460773223 120.69131181640829 l 1.7996113595082066 10.379680093534688 a31.53453178311173,31.53453178311173 0 0,0 -0.534168685044798,0.0878972538490944 l -1.6211651714103363 -10.409043345879454" fill="#ff5607" stroke="none" /><line stroke="#e1ed5e" stroke-width="0.3" x1="101.45913802915013" x2="101.54496967792366" y1="184.9874750549273" y2="189.98673829345242" /><path d="M 101.47630435890484 185.9873277026323 a86.0,86.0 0 0,1 -42.54439059252881,-10.42667462771756" fill="none" id="id43" stroke="none" /><text fill="#e1ed5e" style="font-size:6.75px; font-family:Arial;" text-anchor="middle"><textPath startOffset="22.145653131862474" xlink:href="#id43">July</textPath></text><path d="M 98.55909050195518 120.95050786540614 l -1.0379180948069842 15.091101306783584 a36.12675155554334,36.12675155554334 0 0,0 -0.6183368870054403,-0.04786318569000642 l 1.2968239765876606 -15.071060354098524" fill="#ff980e" stroke="none" /><path d="M 98.19965949673042 120.92268563240118 l -1.3143869594614421 15.275168837337125 a36.33161426883541,36.33161426883541 0 0,0 -0.6209253440005827,-0.05880227565050164 l 1.5764118668470402 -15.25035480618144" fill="#ff9b0e" stroke="none" /><path d="M 96.05791012581884 120.62667999033965 l -3.244348045460859 16.975799904842443 a38.28304303788353,38.28304303788353 0 0,0 -0.6444376313553054,-0.12890557479954212 l 3.5352821623471224 -16.91760493338004" fill="#ffb610" stroke="none" /><path d="M 92.25597844496254 119.51999308798841 l -5.874058185619706 14.80646384657225 a36.92909072131542,36.92909072131542 0 0,0 -0.5872526237465128,-0.2388305296616231 l 6.127365270556659 -14.703446060331334" fill="#ffa30f" stroke="none" /><path d="M 90.93487009805054 118.94263497670748 l -12.08572900858662 25.254525364035697 a48.997426614453595,48.997426614453595 0 0,0 -0.7555864010297475,-0.3695951716610573 l 12.517475658878437 -25.04333644227742" fill="#bdff1f" stroke="none" /><path d="M 90.28995756902619 118.62028667847754 l -9.203563444080892 17.64904643935273 a40.90463313622362,40.90463313622362 0 0,0 -0.6198243690520934,-0.3300215647738145 l 9.505176628919546 -17.488454406856345" fill="#ffd914" stroke="none" /><path d="M 89.97174638481275 118.45085714620012 l -6.95169514285058 12.790336077103118 a35.55742979802334,35.55742979802334 0 0,0 -0.5337945903837256,-0.2960868611176589 l 7.170233921390409 -12.66911630055231" fill="#ff900d" stroke="none" /><line stroke="#e1ed5e" stroke-width="0.3" x1="58.13341422392154" x2="55.67067388415222" y1="173.97424548756322" y2="178.32567169271397" /><path d="M 57.64086615596768 174.84453072859336 a86.0,86.0 0 0,1 -31.369924170532247,-30.572349798747897" fill="none" id="id44" stroke="none" /><text fill="#e1ed5e" style="font-size:6.75px; font-family:Arial;" text-anchor="middle"><textPath startOffset="22.145653131862474" xlink:href="#id44">August</textPath></text><path d="M 88.1277618465304 117.32195027204791 l -9.069634972188663 13.232868473748233 a37.0426645720799,37.0426645720799 0 0,0 -0.5214282611195461,-0.36399742242096994 l 9.295458324481976 -13.075226235522134" fill="#ffa50f" stroke="none" /><path d="M 86.96720088162412 116.46651593811092 l -12.477933424670251 15.765461260145983 a41.10593423085997,41.10593423085997 0 0,0 -0.5495456842448194,-0.44267510292975387 l 12.746729879270331 -15.548937863422818" fill="#ffdc14" stroke="none" /><path d="M 82.37810715431573 111.42229804090323 l -13.471839814570803 8.732283805653731 a37.0543840882152,37.0543840882152 0 0,0 -0.34139846517946526,-0.5367350920399653 l 13.619755971376158 -8.499735038935093" fill="#ffa50f" stroke="none" /><line stroke="#e1ed5e" stroke-width="0.3" x1="26.387840678322732" x2="22.057713659400548" y1="142.50000000000003" y2="145.00000000000006" /><path d="M 25.521815274538298 143.00000000000003 a86.0,86.0 0 0,1 -11.493303480769221,-40.785679425670985" fill="none" id="id45" stroke="none" /><text fill="#e1ed5e" style="font-size:6.75px; font-family:Arial;" text-anchor="middle"><textPath startOffset="21.40746469413373" xlink:href="#id45">September</textPath></text><path d="M 81.63589988554817 110.18625677009913 l -10.619614445782451 5.890521118378419 a33.143905880034374,33.143905880034374 0 0,0 -0.27170845376951136,-0.4999129517749573 l 10.719168249167293 -5.707353333128874" fill="#ff6d0a" stroke="none" /><path d="M 81.1358732173502 109.22738970284198 l -9.761142998816108 4.774664177834359 a31.86633934011042,31.86633934011042 0 0,0 -0.2361458749623444,-0.4934540551597539 l 9.841668131738365 -4.606397620609501" fill="#ff5a08" stroke="none" /><path d="M 80.9802524753101 108.90220220490708 l -9.0572663439108 4.239257977138053 a31.000269087442994,31.000269087442994 0 0,0 -0.22145342651381064,-0.48391570291300984 l 9.128704235279667 -4.083153292010355" fill="#ff4e07" stroke="none" /><path d="M 80.83023694016515 108.57439118712176 l -15.750762777617835 7.0451158488140155 a38.254569985948706,38.254569985948706 0 0,0 -0.2629839887610298,-0.6017588319415815 l 15.869380648395833 -6.773694947096585" fill="#ffb510" stroke="none" /><path d="M 80.5471966667186 107.91128576633889 l -11.268433420545055 4.5827737730928755 a33.16467867264091,33.16467867264091 0 0,0 -0.20995030128874267,-0.5292119089352826 l 11.345442396799921 -4.388660846944028" fill="#ff6d0a" stroke="none" /><path d="M 80.41425534168474 107.57618678355246 l -9.293355756270277 3.594869650545239 a30.9644141331547,30.9644141331547 0 0,0 -0.1875106367333285,-0.4973942415389429 l 9.353697076818042 -3.4348071288121513" fill="#ff4d07" stroke="none" /><path d="M 80.16572619554312 106.89939002012753 l -18.799937113603768 6.5395940269553385 a40.90487190395473,40.90487190395473 0 0,0 -0.2250051920772213,-0.6651878695737834 l 18.909427727253355 -6.215904482907393" fill="#ffd914" stroke="none" /><path d="M 80.05021161711548 106.5578916946017 l -24.855922746718054 8.170635508204585 a47.16440674272493,47.16440674272493 0 0,0 -0.24623253040170504,-0.7713198944298221 l 24.992519992897016 -7.742746580083372" fill="#d4ff1c" stroke="none" /><path d="M 79.2786578344484 103.40968896794605 l -41.98768469320922 6.909057538079675 a63.552329453989366,63.552329453989366 0 0,0 -0.16789468615450293,-1.078004324633191 l 42.100100871501986 -6.187265031515033" fill="#32ff48" stroke="none" /><path d="M 79.13060592940153 102.33845913500099 l -13.846991139036302 1.5515842391886232 a34.93364910049942,34.93364910049942 0 0,0 -0.06166222828764342,-0.5965261232187635 l 13.87158575980561 -1.3136535936869282" fill="#ff870c" stroke="none" /><path d="M 79.01933749520258 100.90099992219065 l -14.31595319597467 0.6147886279905962 a35.32914794977161,35.32914794977161 0 0,0 -0.020819488762527844,-0.6061366992661942 l 14.324397371734046 -0.36894566416028207" fill="#ff8d0c" stroke="none" /><line stroke="#e1ed5e" stroke-width="0.3" x1="15.003131293944662" x2="10.003315487706104" y1="100.72959589197737" y2="100.7725132973878" /><path d="M 14.003168132696942 100.73817937305945 a86.0,86.0 0 0,1 10.791469493833604,-42.45332614584628" fill="none" id="id46" stroke="none" /><text fill="#e1ed5e" style="font-size:6.75px; font-family:Arial;" text-anchor="middle"><textPath startOffset="22.145653131862435" xlink:href="#id46">October</textPath></text><path d="M 79.00077361379809 100.18025310272382 l -31.835599109119613 0.2732703296280069 a52.83677193607468,52.83677193607468 0 0,0 0.0,-0.9070468647036372 l 31.835599109119613 0.2732703296279952" fill="#90ff24" stroke="none" /><path d="M 79.64726062577567 94.8264132398404 l -19.294990643705376 -4.904711169155915 a40.90861259840878,40.90861259840878 0 0,0 0.17884956962944062,-0.6791209471841152 l 19.20795159327121 5.235212620712815" fill="#ffd914" stroke="none" /><path d="M 80.68587082218212 91.75594674310238 l -9.541729068946536 -4.072796753250805 a31.374597197890125,31.374597197890125 0 0,0 0.21568708574954373,-0.4935342619031863 l 9.470408101180015 4.2359930849298575" fill="#ff5307" stroke="none" /><path d="M 80.9802524753101 91.09779779509293 l -16.239894050222826 -7.601090415826008 a38.93072040582934,38.93072040582934 0 0,0 0.2884965522719348,-0.6028468362654903 l 16.107018239990985 7.878749754156586" fill="#ffbf11" stroke="none" /><path d="M 81.29705330413844 90.45014215332179 l -22.35989705580843 -11.417122757270029 a46.106088671892394,46.106088671892394 0 0,0 0.36597680727287574,-0.7018087837965752 l 22.160612179560612 11.79927778417109" fill="#e1ff1b" stroke="none" /><line stroke="#e1ed5e" stroke-width="0.3" x1="26.387840678322718" x2="22.05771365940052" y1="57.49999999999999" y2="54.99999999999999" /><path d="M 25.521815274538284 56.99999999999999 a86.0,86.0 0 0,1 29.574782752854787,-30.34633250058573" fill="none" id="id47" stroke="none" /><text fill="#e1ed5e" style="font-size:6.75px; font-family:Arial;" text-anchor="middle"><textPath startOffset="21.40746469413373" xlink:href="#id47">November</textPath></text><path d="M 81.99639281039701 89.18935116829357 l -18.809609772187486 -11.294630224213225 a42.94014794124419,42.94014794124419 0 0,0 0.38489102159842664,-0.6286905580977955 l 18.612950786133663 11.615857898435564" fill="#fff417" stroke="none" /><path d="M 82.78059297857968 87.97951657250589 l -16.318838783811973 -11.391816855989513 a40.90170823151753,40.90170823151753 0 0,0 0.4068452044712553,-0.5722787307096439 l 16.12087848081075 11.670272813408678" fill="#ffd914" stroke="none" /><path d="M 84.34580500576568 86.00192230759919 l -19.002907274791383 -16.992516862859574 a46.492275579651306,46.492275579651306 0 0,0 0.5371015689865228,-0.5903687106624438 l 18.708408004962994 17.316223149079676" fill="#dcff1b" stroke="none" /><path d="M 85.34317274990677 84.96080404539775 l -11.93565586128815 -12.247034387573038 a38.10116171871077,38.10116171871077 0 0,0 0.47232289123219773,-0.4524746454243954 l 11.723660484190653 12.450121163303002" fill="#ffb310" stroke="none" /><path d="M 85.86807049272753 84.46653392183569 l -20.294298565830257 -22.306989161687778 a51.157259818138584,51.157259818138584 0 0,0 0.6546545164293449,-0.5853961053911894 l 19.90837902257752 22.65208079696237" fill="#a3ff21" stroke="none" /><path d="M 87.25179093698888 83.31218511350988 l -26.06885724632823 -34.124970957003384 a63.94297335939565,63.94297335939565 0 0,0 0.8779888213495773,-0.6588591797684813 l 25.479215436067896 34.56744916403587" fill="#32ff4d" stroke="none" /><path d="M 88.4268655584334 82.4767994020092 l -5.182069889460418 -7.846314293185631 a30.403110991937798,30.403110991937798 0 0,0 0.43797037614978696,-0.2838871064123248 l 5.046613881053604 7.934115241301862" fill="#ff4506" stroke="none" /><line stroke="#e1ed5e" stroke-width="0.3" x1="56.869717070023135" x2="54.33264160355391" y1="26.7553504044142" y2="22.446841604673864" /><path d="M 56.362301976729285 25.89364864446614 a86.0,86.0 0 0,1 42.16139366436587,-11.88097634709845" fill="none" id="id48" stroke="none" /><text fill="#e1ed5e" style="font-size:6.75px; font-family:Arial;" text-anchor="middle"><textPath startOffset="22.145653131862474" xlink:href="#id48">December</textPath></text><path d="M 89.34428304082924 81.90426304109057 l -21.676441687980773 -36.81133690898678 a63.719347481900556,63.719347481900556 0 0,0 0.9473171536604679,-0.5469338136738183 l 21.041332066459905 37.178017619936774" fill="#32ff4a" stroke="none" /><path d="M 91.92203290615298 80.6158196554323 l -9.187370254410688 -22.04634406588065 a44.88407542407328,44.88407542407328 0 0,0 0.7137541310219544,-0.2902775913926382 l 8.807561662198292 22.20080891385258" fill="#f1ff19" stroke="none" /><path d="M 92.592206182469 80.34994680014964 l -10.529413098922475 -27.930519214422258 a50.84932903425086,50.84932903425086 0 0,0 0.8194268845856791,-0.30090490226488104 l 10.04839706268267 28.107154965695862" fill="#a7ff21" stroke="none" /><path d="M 93.95794788825049 79.88797359093562 l -12.22281588461909 -40.68577882447472 a63.482111843732206,63.482111843732206 0 0,0 1.046366543217991,-0.30458205082136475 l 11.522589329019475 40.8896045695986" fill="#32ff47" stroke="none" /><path d="M 96.05791012581881 79.37332000966035 l -0.9195952464214736 -4.811710913240699 a25.898797539176385,25.898797539176385 0 0,0 0.43740018713998574,-0.07970888466375887 l 0.8368603257304494 4.826787971835818" fill="#ff0000" stroke="none" /><path d="M 96.41257539226777 79.30868818359171 l -7.252099482003079 -41.82818264175191 a63.45220618541073,63.45220618541073 0 0,0 1.0748274867174077,-0.17686245391952346 l 6.532994492232598 41.9465110941671" fill="#32ff47" stroke="none" /><path d="M 97.12497278360702 79.19773525538626 l -4.141945054624923 -29.969051107644855 a51.253920954616135,51.253920954616135 0 0,0 0.8725911169681635,-0.11297438997430112 l 3.6268761157659655 30.035737093819552" fill="#a2ff22" stroke="none" /><path d="M 98.5590905019552 79.04949213459386 l -4.322728494134429 -62.8515235962184 a84.0,84.0 0 0,0 1.439422591470065,-0.0865920887012237 l 3.24316155053188 62.91646766274432" fill="#4dd2ff" stroke="none" /></svg>