<?xml version="1.0" encoding="utf-8" ?>
<svg baseProfile="full" height="200mm" version="1.1" viewBox="0,0,200,200" width="200mm" xmlns="http://www.w3.org/2000/svg" xmlns:ev="http://www.w3.org/2001/xml-events" xmlns:xlink="http://www.w3.org/1999/xlink"><defs /><rect fill="#1a1a1a" height="200" width="200" x="0" y="0" /><text alignment-baseline="middle" fill="#e1ed5e" style="dominant-baseline: central; font-size:9.0px; font-family:Arial;" text-anchor="middle" x="100.0" y="100.0">2025</text><line stroke="#e1ed5e" stroke-width="0.3" x1="100.0" x2="100.0" y1="15.0" y2="10.0" /><path d="M 100.0 14.0 a86.0,86.0 0 0,1 42.46469731375804,11.215312516191453" fill="none" id="id121" stroke="none" /><text fill="#e1ed5e" style="font-size:6.75px; font-family:Arial;" text-anchor="middle"><textPath startOffset="22.20632615414155" xlink:href="#id121">January</textPath></text><path d="M 100.0 79.0 l 0.0 -9.73938788899499 a30.73938788899499,30.73938788899499 0 0,0 0.5291280317456221,0.004554372020916038 l -0.16764755247309368 9.737944893582632" fill="#ff1802" stroke="none" /><path d="M 101.44485096284872 79.0497635885617 l 3.5530613451149393 -51.519137321774345 a72.64151193857508,72.64151193857508 0 0,0 1.2467006458197656,0.09676796431976963 l -4.439352180297046 51.45034409526611" fill="#3dffad" stroke="none" /><path d="M 104.307194497241 79.44645832069477 l 2.487570286825998 -11.87045990220083 a33.128306733491584,33.128306733491584 0 0,0 0.5571191694955345,0.12176467194120157 l -2.6915321804750603 11.825881732163758" fill="#ff3f05" stroke="none" /><path d="M 104.66035177308747 79.52364482259891 l 2.683786880725887 -11.7918509301253 a33.09340565678061,33.09340565678061 0 0,0 0.5543560108474215,0.13119815724321368 l -2.886366578535832 11.743906860741218" fill="#ff3e05" stroke="none" /><path d="M 105.01212808612495 79.60689891045804 l 2.8845953202410546 -11.736700051808885 a33.085984373135986,33.085984373135986 0 0,0 0.5518917254769381,0.1406894892059382 l -3.0861959344030176 11.685307566434078" fill="#ff3e05" stroke="none" /><path d="M 105.71112130821622 79.79150937346287 l 3.2796054150045717 -11.604704524926396 a33.05922795161342,33.05922795161342 0 0,0 0.5462797854152841,0.15947404934075937 l -3.478875418143283 11.546532146666932" fill="#ff3e05" stroke="none" /><path d="M 106.40334571778207 80.00007090966166 l 9.603425482473947 -29.994917834977347 a52.49477539091956,52.49477539091956 0 0,0 0.8582075302013665,0.2829375296355277 l -10.11831583491773 29.82516658108258" fill="#aaff21" stroke="none" /><path d="M 106.74666289553966 80.11325718540242 l 5.854299280477816 -17.256374885354866 a39.22238442820558,39.22238442820558 0 0,0 0.6374907451854758,0.2224080035363055 l -6.150472029726566 17.15304602864635" fill="#ff9d0e" stroke="none" /><path d="M 107.08798089147638 80.2323363322302 l 6.177306237359543 -17.22788392668833 a39.30188779720735,39.30188779720735 0 0,0 0.6348521414912303,0.23382140144883665 l -6.47294070462335 17.11899925743317" fill="#ff9e0e" stroke="none" /><path d="M 107.76421540070413 80.48803036053334 l 6.103207022783984 -15.337749403647527 a37.50744355531921,37.50744355531921 0 0,0 0.5978260175461153,0.24386824307441451 l -6.366316909918487 15.230420274389534" fill="#ff830c" stroke="none" /><path d="M 108.09893153111575 80.62456947434976 l 13.539031798970623 -32.39002194273219 a56.10582435300744,56.10582435300744 0 0,0 0.8878512721460976,0.3801315796658402 l -14.094566828907036 32.15217083510356" fill="#7eff26" stroke="none" /><path d="M 108.43124777332544 80.76684994638697 l 5.311180466253773 -12.1157311012089 a34.228740607552794,34.228740607552794 0 0,0 0.5375833673682455,0.2411979867590975 l -5.5189459520887985 12.022512783933271" fill="#ff5007" stroke="none" /><path d="M 109.08828744355905 81.06846463323043 l 5.147685725359726 -10.72298768848125 a32.89458420014726,32.89458420014726 0 0,0 0.5083446539377361,0.2494425139706541 l -5.331501646307894 10.632790014375765" fill="#ff3b05" stroke="none" /><path d="M 109.41281617654863 81.2277094730956 l 13.715068537400196 -27.35241466012414 a51.59832826683443,51.59832826683443 0 0,0 0.7905343322765067,0.40494238951207634 l -14.183863357265457 27.112279745299563" fill="#b6ff1f" stroke="none" /><path d="M 110.36928655335952 81.73862282372117 l 5.9050654855580005 -10.399425990157795 a32.95900745519869,32.95900745519869 0 0,0 0.4909373917469407,0.28438262511582696 l -6.083199609770269 10.296239207651919" fill="#ff3c05" stroke="none" /><line stroke="#e1ed5e" stroke-width="0.3" x1="143.23703022742887" x2="145.7803849466894" y1="26.81831364943548" y2="22.513508569990506" /><path d="M 143.74570117128098 25.957352633546492 a86.0,86.0 0 0,1 28.547481713284135,27.462654790039103" fill="none" id="id122" stroke="none" /><text fill="#e1ed5e" style="font-size:6.75px; font-family:Arial;" text-anchor="middle"><textPath startOffset="19.985693538727396" xlink:href="#id122">February</textPath></text><path d="M 110.99172775467656 82.1063720568725 l 9.91093950727973 -16.134193647095596 a39.935124149551754,39.935124149551754 0 0,0 0.5826360565265984,0.3648466451458214 l -10.187194716178592 15.96120266062683" fill="#ffa70f" stroke="none" /><path d="M 111.60114157652 82.49532879139004 l 8.03651343968455 -12.126093324296095 a35.54742889914808,35.54742889914808 0 0,0 0.5071353725762855,0.34242006736703123 l -8.244053506667377 11.985961344630393" fill="#ff6509" stroke="none" /><path d="M 112.19680574252982 82.90503203632743 l 33.26843234713956 -46.628830300448534 a78.28033175553568,78.28033175553568 0 0,0 1.0901642694897933,0.792050704296227 l -34.06614193298314 46.049260361335634" fill="#45ffef" stroke="none" /><path d="M 113.06298171725822 83.55741782278167 l 7.606446473894717 -9.574354763001017 a33.22809458125123,33.22809458125123 0 0,0 0.4447764028079699,0.35964491894520084 l -7.770126275267178 9.442003746791686" fill="#ff4006" stroke="none" /><path d="M 114.68862486808459 84.99185889309783 l 12.54059374849392 -12.813384658673973 a38.92900772424136,38.92900772424136 0 0,0 0.4748675292362099,0.47282829715326574 l -12.759297077897452 12.595620510870589" fill="#ff980e" stroke="none" /><path d="M 114.94478906791727 85.2469230424477 l 25.740946793969613 -25.410741314973713 a57.170459162505615,57.170459162505615 0 0,0 0.6853260777002231,0.7062887649330467 l -26.174537135372944 24.963888354490553" fill="#71ff27" stroke="none" /><path d="M 115.4437574822437 85.77008943001954 l 11.31902865686346 -10.429376769960314 a36.391306297539664,36.391306297539664 0 0,0 0.4205038999708433,0.4643309090498029 l -11.49687619745034 10.232993073640962" fill="#ff720a" stroke="none" /><path d="M 115.68641384162765 86.03803664274999 l 10.886519763733759 -9.68973479622652 a35.574198879779594,35.574198879779594 0 0,0 0.40318803714701623,0.4609136245585976 l -11.051699664458624 9.500905615464974" fill="#ff6509" stroke="none" /><path d="M 115.9244219780498 86.31012108654704 l 11.096012012087485 -9.538999976079516 a35.63263486580714,35.63263486580714 0 0,0 0.39584359655627166,0.46855396282507156 l -11.258566222130874 9.346587063625337" fill="#ff6609" stroke="none" /><path d="M 116.38621287248628 86.86637796730983 l 37.333572473170044 -29.923023325051204 a68.84540686963587,68.84540686963587 0 0,0 0.7331902055353494,0.9310771043987776 l -37.843116759299356 29.27595382669939" fill="#38ff7e" stroke="none" /><path d="M 117.04232023915458 87.72973835380427 l 9.809044665217648 -7.0623919074655115 a33.08696557035177,33.08696557035177 0 0,0 0.32880153159599224,0.46506644860962854 l -9.929158816617523 6.892498958524089" fill="#ff3e05" stroke="none" /><path d="M 117.2510076193507 88.02491185347247 l 11.160625541627931 -7.747343087453311 a34.58605488709465,34.58605488709465 0 0,0 0.3352797430500385,0.4919816515786254 l -11.292329750346703 7.55408341260428" fill="#ff5607" stroke="none" /><line stroke="#e1ed5e" stroke-width="0.3" x1="172.23445277983987" x2="176.4835382374775" y1="55.19839476539836" y2="52.563006222186495" /><path d="M 173.08426987136738 54.67131705675599 a86.0,86.0 0 0,1 12.851231095245387,41.99856678651699" fill="none" id="id123" stroke="none" /><text fill="#e1ed5e" style="font-size:6.75px; font-family:Arial;" text-anchor="middle"><textPath startOffset="22.20632615414155" xlink:href="#id123">March</textPath></text><path d="M 117.84615892207809 88.93136811851018 l 53.538476766234254 -33.20589564446945 a84.0,84.0 0 0,0 0.7515368068551043,1.2353289071716742 l -54.10212937137558 32.279398964090696" fill="#4dd2ff" stroke="none" /><path d="M 118.21658344932153 89.55222093294921 l 7.161431440325541 -4.107304407574807 a29.255667736226222,29.255667736226222 0 0,0 0.24678180896952287,0.4389973015025477 l -7.231070890587497 3.983423596137465" fill="#ff0000" stroke="none" /><path d="M 118.56541770881063 90.18545643968196 l 10.731657834482881 -5.67325362364326 a33.138957391580185,33.138957391580185 0 0,0 0.26225629111378396,0.5065956799309244 l -10.827723558756782 5.487685221451991" fill="#ff3f05" stroke="none" /><path d="M 118.73160827565052 90.50648371742162 l 16.20491319661367 -8.212941730678951 a39.167322961331195,39.167322961331195 0 0,0 0.29961134538847256,0.6039981897710488 l -16.34388455495555 7.932783952408952" fill="#ff9c0e" stroke="none" /><path d="M 119.196687751892 91.48605970444005 l 33.66880370182983 -14.932481490826689 a57.83160797720121,57.83160797720121 0 0,0 0.3957590157647594,0.9134663731414232 l -33.92085342743727 14.350715973098662" fill="#69ff28" stroke="none" /><path d="M 119.34039704204932 91.81776055985345 l 11.188686853244223 -4.7335385439617355 a33.14879008984563,33.14879008984563 0 0,0 0.21780067325525893,0.5274216060820458 l -11.268509213385679 4.540242367426387" fill="#ff3f05" stroke="none" /><path d="M 119.47837535516314 92.15188598940014 l 19.23121102437388 -7.748527992155378 a41.73352752208883,41.73352752208883 0 0,0 0.2627353106957009,0.6686327078102836 l -19.36173988495128 7.41634627944931" fill="#ffc212" stroke="none" /><line stroke="#e1ed5e" stroke-width="0.3" x1="184.98032266829074" x2="189.97916517819016" y1="98.17113171792111" y2="98.06355123074" /><path d="M 185.9800911702706 98.14961562048488 a86.0,86.0 0 0,1 -9.607161424134198,41.387399972396054" fill="none" id="id124" stroke="none" /><text fill="#e1ed5e" style="font-size:6.75px; font-family:Arial;" text-anchor="middle"><textPath startOffset="21.466115282336823" xlink:href="#id124">April</textPath></text><line stroke="#e1ed5e" stroke-width="0.3" x1="174.80103733775053" x2="179.2010983576182" y1="140.37084112569926" y2="142.7455964860345" /><path d="M 175.68104954172406 140.8457921977663 a86.0,86.0 0 0,1 -30.038265399797805,32.042727171017184" fill="none" id="id125" stroke="none" /><text fill="#e1ed5e" style="font-size:6.75px; font-family:Arial;" text-anchor="middle"><textPath startOffset="22.206326154141568" xlink:href="#id125">May</textPath></text><line stroke="#e1ed5e" stroke-width="0.3" x1="143.8653032363475" x2="146.44561519142675" y1="172.8068346515853" y2="177.08958963109032" /><path d="M 144.38136562736335 173.6633856474863 a86.0,86.0 0 0,1 -40.68145358897372,12.25698825130547" fill="none" id="id126" stroke="none" /><text fill="#e1ed5e" style="font-size:6.75px; font-family:Arial;" text-anchor="middle"><textPath startOffset="21.466115282336833" xlink:href="#id126">June</textPath></text><line stroke="#e1ed5e" stroke-width="0.3" x1="102.19456741930631" x2="102.32365962044197" y1="184.97166512339345" y2="189.96999836594603" /><path d="M 102.22038585953345 185.97133177190398 a86.0,86.0 0 0,1 -42.740103519485714,-10.115201625700543" fill="none" id="id127" stroke="none" /><text fill="#e1ed5e" style="font-size:6.75px; font-family:Arial;" text-anchor="middle"><textPath startOffset="22.20632615414155" xlink:href="#id127">July</textPath></text><line stroke="#e1ed5e" stroke-width="0.3" x1="58.666819895761336" x2="56.23545636021788" y1="174.27360380694188" y2="178.64263932499728" /><path d="M 58.180547188652646 175.14741091055294 a86.0,86.0 0 0,1 -31.652253787137756,-30.449443065178592" fill="none" id="id128" stroke="none" /><text fill="#e1ed5e" style="font-size:6.75px; font-family:Arial;" text-anchor="middle"><textPath startOffset="22.20632615414155" xlink:href="#id128">August</textPath></text><line stroke="#e1ed5e" stroke-width="0.3" x1="26.63291911575756" x2="22.317208475507996" y1="142.92168965132927" y2="145.44649492493687" /><path d="M 25.769776987707644 143.4266507060508 a86.0,86.0 0 0,1 -11.730757126820373,-40.83630448921669" fill="none" id="id129" stroke="none" /><text fill="#e1ed5e" style="font-size:6.75px; font-family:Arial;" text-anchor="middle"><textPath startOffset="21.46611528233685" xlink:href="#id129">September</textPath></text><line stroke="#e1ed5e" stroke-width="0.3" x1="15.007084014347285" x2="10.007500721073583" y1="101.09737516637583" y2="101.16192664675087" /><path d="M 14.007167355692545 101.11028546245083 a86.0,86.0 0 0,1 10.666146001902534,-42.60595125391555" fill="none" id="id130" stroke="none" /><text fill="#e1ed5e" style="font-size:6.75px; font-family:Arial;" text-anchor="middle"><textPath startOffset="22.20632615414155" xlink:href="#id130">October</textPath></text><line stroke="#e1ed5e" stroke-width="0.3" x1="26.266209847984243" x2="21.928928074336255" y1="57.711370442889674" y2="55.22380399835377" /><path d="M 25.398753493254645 57.213857153982495 a86.0,86.0 0 0,1 29.58750427330803,-30.492523968695096" fill="none" id="id131" stroke="none" /><text fill="#e1ed5e" style="font-size:6.75px; font-family:Arial;" text-anchor="middle"><textPath startOffset="21.46611528233685" xlink:href="#id131">November</textPath></text><line stroke="#e1ed5e" stroke-width="0.3" x1="56.762969772571076" x2="54.21961505331055" y1="26.818313649435495" y2="22.513508569990535" /><path d="M 56.25429882871897 25.957352633546506 a86.0,86.0 0 0,1 42.265352541879196,-11.944610805530505" fill="none" id="id132" stroke="none" /><text fill="#e1ed5e" style="font-size:6.75px; font-family:Arial;" text-anchor="middle"><textPath startOffset="22.20632615414155" xlink:href="#id132">December</textPath></text></svg>