<?xml version="1.0" encoding="utf-8" ?>
<svg baseProfile="full" height="200mm" version="1.1" viewBox="0,0,200,200" width="200mm" xmlns="http://www.w3.org/2000/svg" xmlns:ev="http://www.w3.org/2001/xml-events" xmlns:xlink="http://www.w3.org/1999/xlink"><defs /><rect fill="#1a1a1a" height="200" width="200" x="0" y="0" /><text alignment-baseline="middle" fill="#e1ed5e" style="dominant-baseline: central; font-size:9.0px; font-family:Arial;" text-anchor="middle" x="100.0" y="100.0">2017</text><line stroke="#e1ed5e" stroke-width="0.3" x1="100.0" x2="100.0" y1="15.0" y2="10.0" /><path d="M 100.0 14.0 a86.0,86.0 0 0,1 42.46469731375804,11.215312516191453" fill="none" id="id25" stroke="none" /><text fill="#e1ed5e" style="font-size:6.75px; font-family:Arial;" text-anchor="middle"><textPath startOffset="22.20632615414155" xlink:href="#id25">January</textPath></text><path d="M 100.36148047927253 79.00311137660856 l 0.9000613458756105 -52.28079776701301 a73.28854487917647,73.28854487917647 0 0,0 1.2611680030790449,0.03257224871149323 l -1.7998559841495232 52.25755872615916" fill="#40ffc3" stroke="none" /><path d="M 101.08401301168833 79.027996857942 l 0.37300443072019024 -7.216380254404658 a28.226013858379897,28.226013858379897 0 0,0 0.48500081000392964,0.02925657333919805 l -0.4971672895637318 7.2088904116851555" fill="#ff5107" stroke="none" /><path d="M 101.44485096284872 79.0497635885617 l 0.43493057095276405 -6.306462409144898 a27.3214422974118,27.3214422974118 0 0,0 0.46890075451228136,0.03639572309062336 l -0.5434215148273865 6.2980414238658105" fill="#ff4406" stroke="none" /><path d="M 102.52436894288641 79.15227682838746 l 3.137723631306666 -25.913166868434175 a47.10244292662614,47.10244292662614 0 0,0 0.8040729543092979,0.10439174651765376 l -3.5833113141238098 25.855316798752384" fill="#bcff1f" stroke="none" /><path d="M 102.88285421437855 79.19881850522331 l 5.412809404264381 -39.056026577122076 a60.42932560467854,60.42932560467854 0 0,0 1.0291143489528534,0.15166470370473092 l -6.08429273364589 38.95706738925637" fill="#2fff30" stroke="none" /><path d="M 103.95276090670814 79.375362276772 l 0.784684527124144 -4.094311414457876 a25.16882666534219,25.16882666534219 0 0,0 0.42479417164270433,0.0852097145754428 l -0.8550451082339737 4.080197743805225" fill="#ff2503" stroke="none" /><path d="M 105.36241919743992 79.69619591428918 l 3.046423079021531 -11.534715038348892 a32.93022818693369,32.93022818693369 0 0,0 0.5468019084346967,0.149461617136959 l -3.2445228766799383 11.48056688038564" fill="#ff910d" stroke="none" /><path d="M 108.43124777332544 80.76684994638697 l 9.831666965528925 -22.427751041004708 a45.488072445138684,45.488072445138684 0 0,0 0.7144180804231081,0.3205385678986526 l -10.216267164418813 22.255192142589525" fill="#cfff1d" stroke="none" /><path d="M 109.08828744355905 81.06846463323043 l 10.618181498982272 -22.11841117780937 a45.53507471714671,45.53507471714671 0 0,0 0.7036876240257592,0.34529646102764233 l -10.997340390018463 21.932359556646897" fill="#ceff1d" stroke="none" /><line stroke="#e1ed5e" stroke-width="0.3" x1="143.23703022742887" x2="145.7803849466894" y1="26.81831364943548" y2="22.513508569990506" /><path d="M 143.74570117128098 25.957352633546492 a86.0,86.0 0 0,1 28.547481713284135,27.462654790039103" fill="none" id="id26" stroke="none" /><text fill="#e1ed5e" style="font-size:6.75px; font-family:Arial;" text-anchor="middle"><textPath startOffset="19.985693538727396" xlink:href="#id26">February</textPath></text><path d="M 113.06298171725822 83.55741782278167 l 11.40614675816883 -14.357097748121735 a39.336478386484345,39.336478386484345 0 0,0 0.5265404946134332,0.42575912820710665 l -11.651590651346755 14.158632522650498" fill="#ffe415" stroke="none" /><path d="M 114.42810811169701 84.74124197986012 l 8.398551295766126 -8.882069703784232 a33.22402659071456,33.22402659071456 0 0,0 0.41216264959751064,0.39650014235676595 l -8.550197188976055 8.736186474665166" fill="#ff950d" stroke="none" /><path d="M 114.68862486808459 84.99185889309783 l 1.3893771564153041 -1.4195997652233936 a22.98636159250802,22.98636159250802 0 0,0 0.2803944249718765,0.2791903222019924 l -1.4136073815545032 1.3954735923712824" fill="#ff0600" stroke="none" /><path d="M 116.60985879189232 87.15038557335679 l 12.514907934533314 -9.681704315402548 a36.8227152872296,36.8227152872296 0 0,0 0.3835244656949741,0.5046732406220418 l -12.679708340452402 9.464846298899474" fill="#ffc512" stroke="none" /><path d="M 117.2510076193507 88.02491185347247 l 38.15980694102325 -26.48929626931705 a67.45270371700468,67.45270371700468 0 0,0 0.6538914381560877,0.9595049995285353 l -38.61012284484807 25.82851324651811" fill="#38ff83" stroke="none" /><line stroke="#e1ed5e" stroke-width="0.3" x1="172.23445277983987" x2="176.4835382374775" y1="55.19839476539836" y2="52.563006222186495" /><path d="M 173.08426987136738 54.67131705675599 a86.0,86.0 0 0,1 12.851231095245387,41.99856678651699" fill="none" id="id27" stroke="none" /><text fill="#e1ed5e" style="font-size:6.75px; font-family:Arial;" text-anchor="middle"><textPath startOffset="22.20632615414155" xlink:href="#id27">March</textPath></text><path d="M 117.84615892207809 88.93136811851018 l 9.936877247215937 -6.1630985570186585 a32.69295998666562,32.69295998666562 0 0,0 0.2924995566073854,0.4807923634825585 l -10.041492602109548 5.991138420329019" fill="#ff8e0d" stroke="none" /><path d="M 118.3937258080291 89.86733742301442 l 10.48170549905584 -5.774120271321331 a32.96689663516074,32.96689663516074 0 0,0 0.26953091172186394,0.49939984476941945 l -10.579544509996168 5.592839443219453" fill="#ff920d" stroke="none" /><path d="M 120.37134235888165 94.90015583598534 l 50.98845493193693 -12.764655845243857 a73.56195368509128,73.56195368509128 0 0,0 0.2969352772013563,1.2309884244251357 l -51.2006230093991 11.885082189159315" fill="#40ffc6" stroke="none" /><path d="M 120.83666639777658 97.38593545837742 l 42.07033975187818 -5.277935601595781 a63.400118998100154,63.400118998100154 0 0,0 0.12652745746384922,1.0840099865341584 l -42.154957562345615 4.552981876736769" fill="#33ff54" stroke="none" /><line stroke="#e1ed5e" stroke-width="0.3" x1="184.98032266829074" x2="189.97916517819016" y1="98.17113171792111" y2="98.06355123074" /><path d="M 185.9800911702706 98.14961562048488 a86.0,86.0 0 0,1 -9.607161424134198,41.387399972396054" fill="none" id="id28" stroke="none" /><text fill="#e1ed5e" style="font-size:6.75px; font-family:Arial;" text-anchor="middle"><textPath startOffset="21.466115282336823" xlink:href="#id28">April</textPath></text><path d="M 119.79798401119884 107.00284435728193 l 11.709163293483613 4.1417069562174635 a33.420074136036554,33.420074136036554 0 0,0 -0.19650325481939154,0.5406925624731828 l -11.636135777658994 -4.3426473156967775" fill="#ff980e" stroke="none" /><path d="M 119.41010516605496 108.01547362559984 l 5.571980540648916 2.300969659043033 a27.028385232979623,27.028385232979623 0 0,0 -0.18128197809626032,0.428497046388924 l -5.531547581360346 -2.3965412310981202" fill="#ff4006" stroke="none" /><path d="M 119.26925614724726 108.34839909993367 l 5.503099369650184 2.3842160524186222 a26.997381833504924,26.997381833504924 0 0,0 -0.1884146188863867,0.4248252255820855 l -5.461243666032525 -2.478589614493395" fill="#ff4006" stroke="none" /><path d="M 118.81262510543309 109.33194174019688 l 1.4331833926862383 0.7109259791555169 a22.599821985381457,22.599821985381457 0 0,0 -0.17587109387831237,0.3470103531169097 l -1.4207336290216568 -0.7354905439751209" fill="#ff0000" stroke="none" /><line stroke="#e1ed5e" stroke-width="0.3" x1="174.80103733775053" x2="179.2010983576182" y1="140.37084112569926" y2="142.7455964860345" /><path d="M 175.68104954172406 140.8457921977663 a86.0,86.0 0 0,1 -30.038265399797805,32.042727171017184" fill="none" id="id29" stroke="none" /><text fill="#e1ed5e" style="font-size:6.75px; font-family:Arial;" text-anchor="middle"><textPath startOffset="22.206326154141568" xlink:href="#id29">May</textPath></text><path d="M 118.30583269289576 110.29060199501025 l 22.497580166317103 12.646987833132163 a46.808669368862425,46.808669368862425 0 0,0 -0.40087836898824586,0.6989652264692877 l -22.27654980117648 -13.032372905459766" fill="#c0ff1e" stroke="none" /><path d="M 117.35343817320211 111.8261652097733 l 20.360150558290684 13.875204544194007 a45.638527389019956,45.638527389019956 0 0,0 -0.4479945064013607,0.6453694994803096 l -20.11829514472719 -14.223615305861337" fill="#cdff1d" stroke="none" /><path d="M 116.93607887273984 112.41649034213515 l 4.041442818512524 2.962937058891614 a26.011213033813245,26.011213033813245 0 0,0 -0.26783960753123276,0.35881492401119686 l -3.9898419442862 -3.032064862412126" fill="#ff3204" stroke="none" /><path d="M 115.80600337817218 113.82643327865902 l 44.984370464518385 39.35045323785505 a80.76664417644386,80.76664417644386 0 0,0 -0.9243594367338027,1.0385276262375365 l -44.300352178136244 -40.11895503383345" fill="#49f0ff" stroke="none" /><path d="M 114.0293411484842 115.62618273729858 l 1.199674859127553 1.3362237310834453 a22.79574876503738,22.79574876503738 0 0,0 -0.2942362868563615,0.25962931288427943 l -1.176496219364604 -1.3566761857400136" fill="#ff0300" stroke="none" /><path d="M 113.48314897796784 116.09983520530334 l 1.4634462196904114 1.7474584763055026 a23.279316995140892,23.279316995140892 0 0,0 -0.3094263219248126,0.2546367973073765 l -1.4331497692209079 -1.7723903924700575" fill="#ff0a01" stroke="none" /><path d="M 113.20401910651253 116.32954008644616 l 3.7746832493381715 4.668187840117772 a27.003350010074175,27.003350010074175 0 0,0 -0.3639569472324922,0.28914941073881056 l -3.693768809388328 -4.732471164861709" fill="#ff4006" stroke="none" /><path d="M 111.1453310114006 117.79835938074945 l 3.028528448571396 4.836360415617974 a26.706344419465296,26.706344419465296 0 0,0 -0.39171950356985824,0.24062611300078174 l -2.9448297450692293 -4.887774995447133" fill="#ff3c05" stroke="none" /><line stroke="#e1ed5e" stroke-width="0.3" x1="143.8653032363475" x2="146.44561519142675" y1="172.8068346515853" y2="177.08958963109032" /><path d="M 144.38136562736335 173.6633856474863 a86.0,86.0 0 0,1 -40.68145358897372,12.25698825130547" fill="none" id="id30" stroke="none" /><text fill="#e1ed5e" style="font-size:6.75px; font-family:Arial;" text-anchor="middle"><textPath startOffset="21.466115282336833" xlink:href="#id30">June</textPath></text><path d="M 110.8373102113329 117.98757091392108 l 3.929929913450871 6.52282638647869 a28.615222465087847,28.615222465087847 0 0,0 -0.4240941242288456,0.2505622838577298 l -3.817067918193643 -6.5895072426301695" fill="#ff5608" stroke="none" /><path d="M 110.21172684928248 118.3499491758327 l 2.9322520950875877 5.269106558541253 a27.03005690474045,27.03005690474045 0 0,0 -0.4085106407360448,0.2227525728966999 l -2.841118642482894 -5.318799783197724" fill="#ff4006" stroke="none" /><path d="M 109.89434966115114 118.52300852407294 l 8.839456472467031 16.54816467933772 a39.76106993172617,39.76106993172617 0 0,0 -0.6064682106862905,0.31727550437329066 l -8.553297359254245 -16.69786960265573" fill="#ffea16" stroke="none" /><path d="M 109.57404056367764 118.69057910512821 l 5.258007076918238 10.264756719258587 a32.533077166415154,32.533077166415154 0 0,0 -0.5006160360658223,0.25101927310183486 l -5.080537133169655 -10.353743833269725" fill="#ff8c0c" stroke="none" /><path d="M 108.59647513512805 119.15986991738527 l 1.2148044342791335 2.7075626428255015 a23.967599244906303,23.967599244906303 0 0,0 -0.3778655518131861,0.16564515346995096 l -1.1680182078081935 -2.728072349589907" fill="#ff1402" stroke="none" /><path d="M 107.59598834532513 119.57807347666477 l 15.638164612763088 40.30616187257328 a64.23353880211468,64.23353880211468 0 0,0 -1.0342510616640648,0.3910652541759041 l -14.942043330338748 -40.56937537685582" fill="#34ff5e" stroke="none" /><path d="M 104.83641907484287 120.43548508189849 l 1.2759172301179866 5.39117622321852 a26.540103414911012,26.540103414911012 0 0,0 -0.44546912794218213,0.10138732319667686 l -1.1829279527829424 -5.412340279992881" fill="#ff3905" stroke="none" /><path d="M 104.13013068566511 120.58985236759428 l 1.4439400181906061 7.198443358074574 a28.34183557126828,28.34183557126828 0 0,0 -0.479155690013519,0.09183132839124467 l -1.3198167136053827 -7.222231884814287" fill="#ff5307" stroke="none" /><path d="M 103.41894727170886 120.7198165907248 l 10.256841815126581 62.15944977217439 a84.0,84.0 0 0,0 -1.4286565455659315,0.22312677061157693 l -9.185349405952133 -62.326794850133076" fill="#4dd2ff" stroke="none" /><line stroke="#e1ed5e" stroke-width="0.3" x1="102.19456741930631" x2="102.32365962044197" y1="184.97166512339345" y2="189.96999836594603" /><path d="M 102.22038585953345 185.97133177190398 a86.0,86.0 0 0,1 -42.740103519485714,-10.115201625700543" fill="none" id="id31" stroke="none" /><text fill="#e1ed5e" style="font-size:6.75px; font-family:Arial;" text-anchor="middle"><textPath startOffset="22.20632615414155" xlink:href="#id31">July</textPath></text><path d="M 99.81925306533755 120.99922214144158 l -0.1058183033413906 12.293995816007453 a33.294451213345425,33.294451213345425 0 0,0 -0.5730455605430956,-0.009865499007283436 l 0.31742355377715414 -12.29035283972101" fill="#ff960d" stroke="none" /><path d="M 99.45781275523022 120.99299961872073 l -0.1652892366776385 6.399849712483883 a27.401983823327072,27.401983823327072 0 0,0 -0.47141805138612974,-0.016236590868503622 l 0.2754276397384113 -6.396056323189286" fill="#ff4506" stroke="none" /><path d="M 98.01472825383883 120.90594882070398 l -0.5789683043014087 6.096838763730812 a27.1242670751949,27.1242670751949 0 0,0 -0.46442868005734417,-0.04813993162224426 l 0.6838295809643462 -6.085969463652807" fill="#ff4106" stroke="none" /><path d="M 97.65516085044442 120.86867818915974 l -1.6347592837192522 14.54908555887265 a35.64063962110614,35.64063962110614 0 0,0 -0.609068961186815,-0.0737497690774076 l 1.8849556679574564 -14.518790261069892" fill="#ffb510" stroke="none" /><path d="M 96.93821686468263 120.77559828337769 l -2.0663790167392833 14.02132628460196 a35.17277365303243,35.17277365303243 0 0,0 -0.5982120631561157,-0.09342842141253671 l 2.307426943503916 -13.983679555842317" fill="#ffaf10" stroke="none" /><path d="M 95.86986931433489 120.58985236759428 l -1.2155166042623011 6.059688987320746 a27.180397336603342,27.180397336603342 0 0,0 -0.4579360314015341,-0.09596494780882794 l 1.319644097093222 -6.037868058785377" fill="#ff4206" stroke="none" /><path d="M 95.16358092515715 120.4354850818985 l -14.06612333986195 59.43406665627568 a82.07588808289921,82.07588808289921 0 0,0 -1.3720224244421733,-0.3372097307881452 l 15.087099049047334 -59.18313566717351" fill="#4be4ff" stroke="none" /><path d="M 94.46302465271185 120.25689768951611 l -2.040370835730482 7.464650043693596 a28.738482630471836,28.738482630471836 0 0,0 -0.4760582087194324,-0.13453880500103005 l 2.1685602125545285 -7.428422445354045" fill="#ff5808" stroke="none" /><path d="M 93.76903079525671 120.05430185196036 l -2.774965008486077 8.93119257698213 a30.352359683281158,30.352359683281158 0 0,0 -0.49760331262266705,-0.15931686690708438 l 2.9282896661996847 -8.882102863415339" fill="#ff6e0a" stroke="none" /><path d="M 93.08242187328487 119.8279376855182 l -4.390394346729892 12.584240311738885 a34.3281156486351,34.3281156486351 0 0,0 -0.556246965508148,-0.19945037151212724 l 4.606360872867767 -12.5068023991868" fill="#ffa40f" stroke="none" /><path d="M 90.7491055286396 118.85261126421891 l -6.106743084786315 12.445072616962115 a34.862616763982395,34.862616763982395 0 0,0 -0.5364627797730666,-0.2689935745628394 l 6.320059772242142 -12.338111201489973" fill="#ffab0f" stroke="none" /><path d="M 90.42595943632237 118.69057910512821 l -5.997108549662376 11.707641199553159 a34.15424545209295,34.15424545209295 0 0,0 -0.5209483588404017,-0.2725355598053324 l 6.197747811029274 -11.60267622080311" fill="#ffa20e" stroke="none" /><line stroke="#e1ed5e" stroke-width="0.3" x1="58.666819895761336" x2="56.23545636021788" y1="174.27360380694188" y2="178.64263932499728" /><path d="M 58.180547188652646 175.14741091055294 a86.0,86.0 0 0,1 -31.652253787137756,-30.449443065178592" fill="none" id="id32" stroke="none" /><text fill="#e1ed5e" style="font-size:6.75px; font-family:Arial;" text-anchor="middle"><textPath startOffset="22.20632615414155" xlink:href="#id32">August</textPath></text><path d="M 89.7882731507175 118.34994917583269 l -0.8669521433252589 1.557868517508917 a22.78285174275981,22.78285174275981 0 0,0 -0.34103893039942235,-0.1936508052501358 l 0.8936398406458885 -1.5427145464641483" fill="#ff0300" stroke="none" /><path d="M 86.79598089348748 116.32954008644616 l -10.423593977246464 12.890961026581083 a37.57794280335534,37.57794280335534 0 0,0 -0.49948220686931494,-0.4110398516779238 l 10.643946312660468 -12.709626056045979" fill="#ffce13" stroke="none" /><path d="M 86.24171649860922 115.8653595955263 l -10.046540391779796 11.58516438409295 a36.33456904024755,36.33456904024755 0 0,0 -0.46898870439060214,-0.41382800324306057 l 10.244471449076986 -11.4105132390776" fill="#ffbe11" stroke="none" /><path d="M 85.70375840098266 115.38237550388516 l -7.080968023377403 7.61893315191886 a31.401358109473087,31.401358109473087 0 0,0 -0.39276245365809054,-0.3713814149300188 l 7.21106631142631 -7.49591710024291" fill="#ff7d0b" stroke="none" /><path d="M 84.43433777217949 114.09645910891817 l -4.532055558568375 4.10428640462987 a27.11430245221645,27.11430245221645 0 0,0 -0.31031822106421825,-0.34864581102652714 l 4.602032629280932 -4.025666423862479" fill="#ff4106" stroke="none" /><path d="M 82.05923443525364 110.91462005526583 l -6.8676542951680775 4.178073507072981 a29.038717170571786,29.038717170571786 0 0,0 -0.2561202745323821,-0.4292723121269399 l 6.938555445398691 -4.05923910105993" fill="#ff5c08" stroke="none" /><line stroke="#e1ed5e" stroke-width="0.3" x1="26.63291911575756" x2="22.317208475507996" y1="142.92168965132927" y2="145.44649492493687" /><path d="M 25.769776987707644 143.4266507060508 a86.0,86.0 0 0,1 -11.730757126820373,-40.83630448921669" fill="none" id="id33" stroke="none" /><text fill="#e1ed5e" style="font-size:6.75px; font-family:Arial;" text-anchor="middle"><textPath startOffset="21.46611528233685" xlink:href="#id33">September</textPath></text><path d="M 81.35079622478065 109.6543875284942 l -7.930497928560493 4.10548896451977 a29.93016444600523,29.93016444600523 0 0,0 -0.23291558510866475,-0.459564546126687 l 7.999992183455425 -3.968370206690398" fill="#ff6909" stroke="none" /><path d="M 81.18737489456691 109.33194174019688 l -11.701651666632278 5.804566401823074 a34.06222197179221,34.06222197179221 0 0,0 -0.2560290862244746,-0.5274957509327982 l 11.799834009471471 -5.602281694924991" fill="#ffa00e" stroke="none" /><path d="M 80.58989483394504 108.01547362559985 l -6.168807827289492 2.5474316608807204 a27.674099046079974,27.674099046079974 0 0,0 -0.1780332587575011,-0.44186394783483013 l 6.211743700304381 -2.4408683452030853" fill="#ff4906" stroke="none" /><path d="M 80.20201598880116 107.00284435728193 l -14.624764834973755 5.1729990206699625 a36.512693684403665,36.512693684403665 0 0,0 -0.20448702686891168,-0.5943350183365813 l 14.711642692785896 -4.920491299244084" fill="#ffc111" stroke="none" /><path d="M 79.58551787078972 104.9243191809786 l -2.4889510275017175 0.6003771835929121 a23.56033786440009,23.56033786440009 0 0,0 -0.09170517540576076,-0.39506349550059183 l 2.498916768838033 -0.5574450307437461" fill="#ff0e01" stroke="none" /><path d="M 79.50377843672027 104.57218783832718 l -2.4414380624390666 0.5446229873466859 a23.501446383809306,23.501446383809306 0 0,0 -0.08467902533318794,-0.3955922152575505 l 2.4504511264966955 -0.5025169526729716" fill="#ff0d01" stroke="none" /><path d="M 79.29508885075956 103.50808413554451 l -6.1515531241076244 1.0422728099672571 a27.239225789239825,27.239225789239825 0 0,0 -0.07434783975218628,-0.46296406910742655 l 6.168582718221101 -0.9362295111666169" fill="#ff4306" stroke="none" /><path d="M 79.0235259727143 100.99374915477108 l -14.503130747865242 0.6870780047913735 a35.519396601592724,35.519396601592724 0 0,0 -0.023675990230219168,-0.6109721059442386 l 14.512808870946664 -0.4373286518331381" fill="#ffb410" stroke="none" /><line stroke="#e1ed5e" stroke-width="0.3" x1="15.007084014347285" x2="10.007500721073583" y1="101.09737516637583" y2="101.16192664675087" /><path d="M 14.007167355692545 101.11028546245083 a86.0,86.0 0 0,1 10.666146001902534,-42.60595125391555" fill="none" id="id34" stroke="none" /><text fill="#e1ed5e" style="font-size:6.75px; font-family:Arial;" text-anchor="middle"><textPath startOffset="22.20632615414155" xlink:href="#id34">October</textPath></text><path d="M 79.00175016825051 100.2711162175752 l -15.230071165703349 0.1966411163278674 a36.23134056611627,36.23134056611627 0 0,0 -0.002684056891602215,-0.6236802955536055 l 15.231199519884454 0.06554865742941342" fill="#ffbd11" stroke="none" /><path d="M 79.03285615573316 98.82574320788736 l -9.744765648925856 -0.54575183610075 a30.760035994764195,30.760035994764195 0 0,0 0.03415742190861327,-0.5284001984934417 l 9.73392763601283 0.7134110988472034" fill="#ff740a" stroke="none" /><path d="M 79.16333360222342 97.38593545837743 l -7.259292063920507 -0.9107146805211398 a28.316195903515432,28.316195903515432 0 0,0 0.06483599954777128,-0.4831035054634957 l 7.242540065314903 1.035536528049295" fill="#ff5207" stroke="none" /><path d="M 79.46518482838121 95.60439243477599 l -18.060751143226707 -3.86601845184941 a39.469889835286104,39.469889835286104 0 0,0 0.14792866068801136,-0.6631351799689096 l 17.99152809553666 4.176331801368279" fill="#ffe615" stroke="none" /><path d="M 79.54389044137918 95.25157060432595 l -7.551562294283086 -1.7529266881700816 a28.752344487865393,28.752344487865393 0 0,0 0.11605979657965462,-0.48114278464059224 l 7.520269697442616 1.8826547044700706" fill="#ff5808" stroke="none" /><path d="M 79.71946130924805 94.55025226153421 l -10.13226507270201 -2.7227229763218044 a31.49171177212221,31.49171177212221 0 0,0 0.14518163414535737,-0.5222955831532755 l 10.083896667990292 2.8967298628940226" fill="#ff7e0b" stroke="none" /><path d="M 79.91906864156998 93.8553929516997 l -7.033264566167938 -2.1521236368199554 a28.355164621262574,28.355164621262574 0 0,0 0.1468318409243876,-0.46549706114913775 l 6.995177241475347 2.272870864395508" fill="#ff5307" stroke="none" /><path d="M 80.14247586403 93.16781622104843 l -15.135043966272365 -5.207366294611519 a37.00581830420593,37.00581830420593 0 0,0 0.21242558993733252,-0.6005557482904259 l 15.043165295525224 5.4671196693285555" fill="#ffc712" stroke="none" /><path d="M 80.2630227832202 92.82701384747504 l -5.597987104058901 -2.0344697943558336 a26.956217504537257,26.956217504537257 0 0,0 0.16224486685360076,-0.43473558009483015 l 5.562137648703673 2.1305285114800054" fill="#ff3f05" stroke="none" /><path d="M 80.38941819471856 92.48833698450439 l -5.770156551852718 -2.210208345399457 a27.17897463686025,27.17897463686025 0 0,0 0.17110646450451653,-0.43544728868973515 l 5.7312565374665105 2.309204638984956" fill="#ff4206" stroke="none" /><path d="M 80.52162464483688 92.15188598940014 l -9.258854203277252 -3.730523828086123 a30.982143516773498,30.982143516773498 0 0,0 0.20356494757590812,-0.492948667181862 l 9.193267568815143 3.8893470657212963" fill="#ff770b" stroke="none" /><path d="M 80.803312248108 91.48605970444005 l -23.055998816587735 -10.225586826018034 a46.22184980065754,46.22184980065754 0 0,0 0.3288303459945811,-0.7245340792849511 l 22.876566153629803 10.620942914145056" fill="#c6ff1e" stroke="none" /><path d="M 81.26839172434947 90.50648371742162 l -12.14953434740157 -6.157602724520803 a34.620839040665466,34.620839040665466 0 0,0 0.27398366022098325,-0.5292492242994253 l 12.041741254020472 6.3658246710805635" fill="#ffa80f" stroke="none" /><path d="M 81.6062741919709 89.86733742301443 l -11.475306170861698 -6.321471060865011 a34.101284215235175,34.101284215235175 0 0,0 0.2876562819449505,-0.5117084280295829 l 11.364792247624315 6.518062998829378" fill="#ffa10e" stroke="none" /><line stroke="#e1ed5e" stroke-width="0.3" x1="26.266209847984243" x2="21.928928074336255" y1="57.711370442889674" y2="55.22380399835377" /><path d="M 25.398753493254645 57.213857153982495 a86.0,86.0 0 0,1 29.58750427330803,-30.492523968695096" fill="none" id="id35" stroke="none" /><text fill="#e1ed5e" style="font-size:6.75px; font-family:Arial;" text-anchor="middle"><textPath startOffset="21.46611528233685" xlink:href="#id35">November</textPath></text><path d="M 82.34701348167596 88.62581576622439 l -21.83188518857815 -14.066735056290064 a46.971219571501024,46.971219571501024 0 0,0 0.44377371449179576,-0.6758978127355371 l 21.586514838728434 14.440450933003268" fill="#beff1f" stroke="none" /><path d="M 82.54541684631803 88.32363383020206 l -9.976760530197932 -6.674024129553901 a33.00326408768811,33.00326408768811 0 0,0 0.31993605339651326,-0.4694666803239376 l 9.860400011132679 6.844768833148255" fill="#ff920d" stroke="none" /><path d="M 82.95767976084542 87.72973835380427 l -13.0963959964484 -9.429244565503119 a37.137727261664196,37.137727261664196 0 0,0 0.37798670486139624,-0.5155734406409462 l 12.932146679073371 9.653280449815567" fill="#ffc912" stroke="none" /><path d="M 84.07557802195018 86.31012108654704 l -40.31266577724484 -34.65592119636649 a74.16148884330283,74.16148884330283 0 0,0 0.840525607327955,-0.9608660687186519 l 39.71014830633904 35.34470282128809" fill="#41ffcc" stroke="none" /><path d="M 84.31358615837235 86.03803664274999 l -4.532187061733119 -4.033951311178371 a27.067411535696156,27.067411535696156 0 0,0 0.31276569243806174,-0.3453636893722691 l 4.462077728679012 4.111367787820196" fill="#ff4106" stroke="none" /><path d="M 85.05521093208273 85.24692304244772 l -6.557941838164783 -6.473816403959466 a30.21503662417718,30.21503662417718 0 0,0 0.3685719371308416,-0.3669891721010259 l 6.445534100866628 6.585741426710602" fill="#ff6d0a" stroke="none" /><path d="M 85.83668400450813 84.49514656593479 l -17.91552055905529 -19.612463673870575 a47.56340731647252,47.56340731647252 0 0,0 0.6092397124108806,-0.5469814292018406 l 17.57526985904844 19.917944111841695" fill="#b7ff1f" stroke="none" /><path d="M 86.37877921826538 84.01681056812374 l -7.846184816173857 -9.20674146935366 a33.09655755382801,33.09655755382801 0 0,0 0.43678387993535506,-0.36579393821393136 l 7.686543399279392 9.340436564961403" fill="#ff940d" stroke="none" /><path d="M 86.93701828274178 83.55741782278169 l -2.2008841542805513 -2.7702877759895608 a24.53813304192485,24.53813304192485 0 0,0 0.3329794797197807,-0.2598957655542767 l 2.1528721194013447 2.807761930767059" fill="#ff1c02" stroke="none" /><path d="M 87.22198572758235 83.33499621200491 l -2.118310643818117 -2.7626870772542986 a24.481333059410005,24.481333059410005 0 0,0 0.33662281342983436,-0.2535373241525507 l 2.070441676629893 2.798740990912704" fill="#ff1c02" stroke="none" /><path d="M 87.51073957382395 83.11751280151077 l -15.461826655091254 -20.90068440103471 a46.99820555237892,46.99820555237892 0 0,0 0.6545164446076627,-0.47553403228633345 l 15.09976489412981 21.16373766813771" fill="#bdff1f" stroke="none" /><line stroke="#e1ed5e" stroke-width="0.3" x1="56.762969772571076" x2="54.21961505331055" y1="26.818313649435495" y2="22.513508569990535" /><path d="M 56.25429882871897 25.957352633546506 a86.0,86.0 0 0,1 42.265352541879196,-11.944610805530505" fill="none" id="id36" stroke="none" /><text fill="#e1ed5e" style="font-size:6.75px; font-family:Arial;" text-anchor="middle"><textPath startOffset="22.20632615414155" xlink:href="#id36">December</textPath></text><path d="M 89.63071344664047 81.73862282372117 l -12.919762107804523 -22.753026224545238 a47.165252823106925,47.165252823106925 0 0,0 0.7094460571260083,-0.39480596268967777 l 12.52619196160647 22.9720475847951" fill="#bbff1f" stroke="none" /><path d="M 92.23578459929587 80.48803036053334 l -12.101782284267202 -30.412552502425747 a53.731887879690134,53.731887879690134 0 0,0 0.8623119424669248,-0.33456363685734913 l 11.5764871768006 30.616358843173646" fill="#73ff27" stroke="none" /><path d="M 92.91201910852362 80.23233633223022 l -2.7040178047247387 -7.541232874899313 a29.01136103054472,29.01136103054472 0 0,0 0.4715285526829536,-0.16450705332525073 l 2.5738072479785 7.586660781396773" fill="#ff5c08" stroke="none" /><path d="M 93.59665428221793 80.00007090966166 l -2.6167540245861667 -8.173054719386291 a29.581737881762088,29.581737881762088 0 0,0 0.48628802940101984,-0.15109205786372834 l 2.4756806224744183 8.216886912132546" fill="#ff6409" stroke="none" /><path d="M 94.28887869178378 79.79150937346287 l -8.216444807611236 -29.07344090891525 a51.212165290834555,51.212165290834555 0 0,0 0.8503709587779821,-0.23243850598309249 l 7.714775959609531 29.210565955724636" fill="#8eff24" stroke="none" /><path d="M 94.63758080256005 79.69619591428918 l -3.132529389691458 -11.860740587269035 a33.267432806246454,33.267432806246454 0 0,0 0.5549183813474847,-0.14146105117864172 l 2.9279021196589743 11.91290463461654" fill="#ff960d" stroke="none" /><path d="M 95.33964822691252 79.52364482259891 l -1.2686893198397706 -5.574285888209688 a26.716837915646128,26.716837915646128 0 0,0 0.4492974141676909,-0.09819901241182857 l 1.1725491815185587 5.595298398717384" fill="#ff3c05" stroke="none" /><path d="M 97.11714578562143 79.19881850522333 l -3.644289410926126 -26.295303133290027 a47.546634667735205,47.546634667735205 0 0,0 0.8116556303524171,-0.10537619549231364 l 3.1911190520658512 26.354137651946477" fill="#b7ff1f" stroke="none" /><path d="M 98.91598698831166 79.02799685794201 l -0.1871437980970018 -3.6206025936849118 a24.625435965861772,24.625435965861772 0 0,0 0.42350961692764943,-0.018237214981050937 l 0.12479334878002823 3.623287535190155" fill="#ff1e03" stroke="none" /><path d="M 99.63851952072746 79.00311137660856 l -0.06684522815317423 -3.8827596260853094 a24.883334984067815,24.883334984067815 0 0,0 0.428325707425709,-0.0036867345910649133 l 9.511427516511176e-16 3.8833349840678153" fill="#ff2103" stroke="none" /></svg>