<?xml version="1.0" encoding="utf-8" ?>
<svg baseProfile="full" height="200mm" version="1.1" viewBox="0,0,200,200" width="200mm" xmlns="http://www.w3.org/2000/svg" xmlns:ev="http://www.w3.org/2001/xml-events" xmlns:xlink="http://www.w3.org/1999/xlink"><defs /><rect fill="#1a1a1a" height="200" width="200" x="0" y="0" /><text alignment-baseline="middle" fill="#e1ed5e" style="dominant-baseline: central; font-size:9.0px; font-family:Arial;" text-anchor="middle" x="100.0" y="100.0">2021</text><line stroke="#e1ed5e" stroke-width="0.3" x1="100.0" x2="100.0" y1="15.0" y2="10.0" /><path d="M 100.0 14.0 a86.0,86.0 0 0,1 42.46469731375804,11.215312516191453" fill="none" id="id73" stroke="none" /><text fill="#e1ed5e" style="font-size:6.75px; font-family:Arial;" text-anchor="middle"><textPath startOffset="22.20632615414155" xlink:href="#id73">January</textPath></text><path d="M 106.40334571778207 80.00007090966166 l 7.955560999253615 -24.84805020242524 a47.09054521613319,47.09054521613319 0 0,0 0.7698568134604131,0.25380968741029314 l -8.382100634956446 24.70742679075571" fill="#ecff1a" stroke="none" /><path d="M 107.08798089147638 80.2323363322302 l 4.563833075991016 -12.72807004749729 a34.521550927297774,34.521550927297774 0 0,0 0.5576342960134051,0.2053814172911488 l -4.782249697776998 12.647625362399816" fill="#ff5c08" stroke="none" /><line stroke="#e1ed5e" stroke-width="0.3" x1="143.23703022742887" x2="145.7803849466894" y1="26.81831364943548" y2="22.513508569990506" /><path d="M 143.74570117128098 25.957352633546492 a86.0,86.0 0 0,1 28.547481713284135,27.462654790039103" fill="none" id="id74" stroke="none" /><text fill="#e1ed5e" style="font-size:6.75px; font-family:Arial;" text-anchor="middle"><textPath startOffset="19.985693538727396" xlink:href="#id74">February</textPath></text><line stroke="#e1ed5e" stroke-width="0.3" x1="172.23445277983987" x2="176.4835382374775" y1="55.19839476539836" y2="52.563006222186495" /><path d="M 173.08426987136738 54.67131705675599 a86.0,86.0 0 0,1 12.851231095245387,41.99856678651699" fill="none" id="id75" stroke="none" /><text fill="#e1ed5e" style="font-size:6.75px; font-family:Arial;" text-anchor="middle"><textPath startOffset="22.20632615414155" xlink:href="#id75">March</textPath></text><path d="M 120.78858239683441 97.02765380044208 l 22.053919957037262 -3.153263840618398 a43.27820590442502,43.27820590442502 0 0,0 0.09909472826112058,0.7383708268525824 l -22.10493068435622 2.773174671701151" fill="#ffdd14" stroke="none" /><path d="M 120.83666639777658 97.38593545837742 l 29.204609317418832 -3.663865044974335 a50.43353720589579,50.43353720589579 0 0,0 0.10065008290854559,0.8623084443906378 l -29.263349753330967 3.1606128622588443" fill="#c1ff1e" stroke="none" /><path d="M 120.91429891909075 98.10471618934814 l 28.383117990847836 -2.572118923612203 a49.49942425101943,49.49942425101943 0 0,0 0.06959505007853181,0.8492358887557411 l -28.423187524745863 2.083169117648693" fill="#cdff1d" stroke="none" /><line stroke="#e1ed5e" stroke-width="0.3" x1="184.98032266829074" x2="189.97916517819016" y1="98.17113171792111" y2="98.06355123074" /><path d="M 185.9800911702706 98.14961562048488 a86.0,86.0 0 0,1 -9.607161424134198,41.387399972396054" fill="none" id="id76" stroke="none" /><text fill="#e1ed5e" style="font-size:6.75px; font-family:Arial;" text-anchor="middle"><textPath startOffset="21.466115282336823" xlink:href="#id76">April</textPath></text><path d="M 120.99824983174949 100.27111621757518 l 18.560069562880393 0.2396359648132261 a39.56161651297082,39.56161651297082 0 0,0 -0.01465275111036481,0.6808557672187437 l -18.55319474908502 -0.5590815478220847" fill="#ffa80f" stroke="none" /><path d="M 120.95626037817324 101.35467743843564 l 24.674224189466422 1.5950181099671383 a45.725723894826075,45.725723894826075 0 0,0 -0.05753480870788713,0.7850167532007777 l -24.6431128220942 -2.019507999664686" fill="#ffff18" stroke="none" /><path d="M 120.76222939487914 103.15116336523771 l 17.403660972183967 2.641420525393561 a38.60296900033315,38.60296900033315 0 0,0 -0.1053644980735554,0.656104830082297 l -17.355614719749124 -2.9406045851690634" fill="#ff9a0e" stroke="none" /><path d="M 120.23288151984713 105.62410040840565 l 41.79782910631728 11.618473004782619 a64.3825706126754,64.3825706126754 0 0,0 -0.3059930763497923,1.0652020412939263 l -41.59164339308139 -12.336232521581126" fill="#32ff46" stroke="none" /><path d="M 119.9155931802556 106.66101706037122 l 22.40847507108201 7.494792316472938 a44.628619656644474,44.628619656644474 0 0,0 -0.24993975590326445,0.7264419248612617 l -22.276144484235516 -7.8794069444235" fill="#fff016" stroke="none" /><path d="M 119.79798401119884 107.00284435728193 l 24.358659383789774 8.616023748692552 a46.83757249072605,46.83757249072605 0 0,0 -0.27539542266731726,0.7577699255528194 l -24.20673970011723 -9.034041471251502" fill="#f0ff19" stroke="none" /><path d="M 119.54520255179757 107.68017299344265 l 24.637550877157313 9.681181475088383 a47.47138432304041,47.47138432304041 0 0,0 -0.30539332950596965,0.7579611987091525 l -24.467254933393953 -10.10384204164035" fill="#e7ff1a" stroke="none" /><path d="M 119.41010516605496 108.01547362559984 l 12.085507008165655 4.990754137971654 a34.075439056112124,34.075439056112124 0 0,0 -0.2285472455473651,0.5402181767090413 l -11.99780878142598 -5.1980468403468585" fill="#ff5607" stroke="none" /><path d="M 119.12269723197855 108.67885076344098 l 22.167774521344924 10.060861420042267 a45.34401691879309,45.34401691879309 0 0,0 -0.32869096902306894,0.7079711055543545 l -21.991308935482024 -10.440952592875453" fill="#fffa17" stroke="none" /><path d="M 118.81262510543309 109.33194174019688 l 23.34501989272558 11.580221491775538 a47.05938379145472,47.05938379145472 0 0,0 -0.36621462372562,0.7225761954010033 l -23.142226599213693 -11.980351898879235" fill="#edff1a" stroke="none" /><path d="M 118.64920377521936 109.65438752849418 l 21.91577506559346 11.345438015519813 a45.678333827260104,45.678333827260104 0 0,0 -0.3674876156467436,0.6951480774797829 l -21.717234941721827 -11.72100110808573" fill="#ffff18" stroke="none" /><line stroke="#e1ed5e" stroke-width="0.3" x1="174.80103733775053" x2="179.2010983576182" y1="140.37084112569926" y2="142.7455964860345" /><path d="M 175.68104954172406 140.8457921977663 a86.0,86.0 0 0,1 -30.038265399797805,32.042727171017184" fill="none" id="id77" stroke="none" /><text fill="#e1ed5e" style="font-size:6.75px; font-family:Arial;" text-anchor="middle"><textPath startOffset="22.206326154141568" xlink:href="#id77">May</textPath></text><path d="M 117.55443506779139 111.5257021239791 l 32.74914628231242 21.50208214658544 a60.17711218120608,60.17711218120608 0 0,0 -0.5759720320844329,0.8610000390546907 l -32.37417114481727 -22.06261909984594" fill="#4bff2c" stroke="none" /><path d="M 117.35343817320211 111.8261652097733 l 19.425056639884076 13.23794897239568 a44.506937666537006,44.506937666537006 0 0,0 -0.43688665502720425,0.6293678111131346 l -19.194309077694736 -13.570358045695835" fill="#ffef16" stroke="none" /><path d="M 116.71984013943494 112.70617746262583 l 45.61220609454459 34.66281855962372 a78.2886056324345,78.2886056324345 0 0,0 -0.8246145645427447,1.0659254838334369 l -45.00878471278378 -35.44282203757041" fill="#45fff0" stroke="none" /><path d="M 116.27256486870786 113.27417163493432 l 10.098392839548385 8.237656501645356 a34.03213422970091,34.03213422970091 0 0,0 -0.37419790122846686,0.450745477732592 l -9.955098938426376 -8.410263236491717" fill="#ff5507" stroke="none" /><path d="M 116.0416608686014 113.55231037782055 l 18.381818851253726 15.529321834041655 a45.063480648184495,45.063480648184495 0 0,0 -0.5056927028360445,0.5882348589123182 l -18.1117836388469 -15.843433792115501" fill="#fff617" stroke="none" /><path d="M 115.80600337817218 113.82643327865902 l 17.82741091797739 15.59467638283879 a44.685660462057825,44.685660462057825 0 0,0 -0.5114191923654641,0.5745848841402333 l -17.556332875963587 -15.89923543671989" fill="#fff116" stroke="none" /><path d="M 114.29624159901734 115.38237550388516 l 15.950311550420807 17.162110752898442 a44.42969235927437,44.42969235927437 0 0,0 -0.5646811860828077,0.5158228750249485 l -15.652530814871135 -17.434126394509974" fill="#ffed16" stroke="none" /><path d="M 113.20401910651253 116.32954008644616 l 16.425020966794975 20.31298471582098 a47.122761374418886,47.122761374418886 0 0,0 -0.6351306918808326,0.5045862338826669 l -16.07293278219679 -20.592704863708775" fill="#ecff1a" stroke="none" /><path d="M 112.92097659922987 116.55440617244103 l 15.953813058615118 20.440088204110655 a46.92916035858203,46.92916035858203 0 0,0 -0.6410775191809123,0.4915509047601206 l -15.599606810940712 -20.711678450698148" fill="#efff19" stroke="none" /><path d="M 112.34349029814194 116.9893568818739 l 13.770590892408292 18.95359233851577 a44.4279285482247,44.4279285482247 0 0,0 -0.6225678691440433,0.4441856444321333 l -13.442295695415364 -19.187822244792123" fill="#ffed16" stroke="none" /><path d="M 111.1453310114006 117.79835938074945 l 9.711972524013445 15.509380304769719 a39.299270142417456,39.299270142417456 0 0,0 -0.5764282205401788,0.3540892931510738 l -9.443565103540958 -15.674258064749171" fill="#ffa40f" stroke="none" /><line stroke="#e1ed5e" stroke-width="0.3" x1="143.8653032363475" x2="146.44561519142675" y1="172.8068346515853" y2="177.08958963109032" /><path d="M 144.38136562736335 173.6633856474863 a86.0,86.0 0 0,1 -40.68145358897372,12.25698825130547" fill="none" id="id78" stroke="none" /><text fill="#e1ed5e" style="font-size:6.75px; font-family:Arial;" text-anchor="middle"><textPath startOffset="21.466115282336833" xlink:href="#id78">June</textPath></text><path d="M 110.5260780823613 118.17145234162733 l 9.142298849124503 15.782596949206074 a39.239298087037014,39.239298087037014 0 0,0 -0.5873772256574629,0.33352811833223805 l -8.869272856545841 -15.93762823333294" fill="#ffa40f" stroke="none" /><path d="M 110.21172684928248 118.3499491758327 l 7.633218808486682 13.716502531947626 a36.697403323071,36.697403323071 0 0,0 -0.5546151751618277,0.30242041434283334 l -7.395980821456206 -13.84586359805023" fill="#ff7e0b" stroke="none" /><path d="M 108.2653958097858 119.30500536409082 l 5.3208789575761575 12.427668218389613 a34.51882725045142,34.51882725045142 0 0,0 -0.5482387653667776,0.22916384838679346 l -5.106168732711918 -12.517417109796378" fill="#ff5c08" stroke="none" /><path d="M 106.91757812671514 119.82793768551818 l 3.5618365023051335 10.209334960882689 a31.812825699725988,31.812825699725988 0 0,0 -0.5185949103718404,0.17593555024270502 l -3.385571858996066 -10.269133498023516" fill="#ff3204" stroke="none" /><path d="M 106.2309692047433 120.05430185196036 l 5.435790588874016 17.49502873330534 a39.32003956614916,39.32003956614916 0 0,0 -0.648078557135425,0.19526075299543483 l -5.133837057298345 -17.5860048554065" fill="#ffa50f" stroke="none" /><path d="M 105.53697534728816 120.25689768951611 l 3.432104385635319 12.556275410112644 a34.01688874841053,34.01688874841053 0 0,0 -0.5661537011136915,0.14952633815504154 l -3.2154602417101303 -12.61349309757127" fill="#ff5507" stroke="none" /><path d="M 103.41894727170886 120.7198165907248 l 4.704920350593882 28.51318812224583 a49.898757281239845,49.898757281239845 0 0,0 -0.8486688833982022,0.13254462582968995 l -4.213415603587163 -28.589951055422624" fill="#c7ff1e" stroke="none" /><path d="M 103.06178313531738 120.77559828337769 l 2.6197592776321814 17.77626433545436 a38.96826959939901,38.96826959939901 0 0,0 -0.6644487235461052,0.09208653861293245 l -2.313381962899246 -17.8187254395599" fill="#ffa00e" stroke="none" /><line stroke="#e1ed5e" stroke-width="0.3" x1="102.19456741930631" x2="102.32365962044197" y1="184.97166512339345" y2="189.96999836594603" /><path d="M 102.22038585953345 185.97133177190398 a86.0,86.0 0 0,1 -42.740103519485714,-10.115201625700543" fill="none" id="id79" stroke="none" /><text fill="#e1ed5e" style="font-size:6.75px; font-family:Arial;" text-anchor="middle"><textPath startOffset="22.20632615414155" xlink:href="#id79">July</textPath></text><path d="M 100.54218724476979 120.99299961872073 l 0.47215593335983025 18.281450595924913 a39.28754677688208,39.28754677688208 0 0,0 -0.6761953852567892,0.0116413167840584 l -0.15740085821037308 -18.28686938998813" fill="#ffa40f" stroke="none" /><path d="M 99.09653310690486 120.98055641714683 l -0.45798391086601387 10.63542820827871 a31.645284516444953,31.645284516444953 0 0,0 -0.5440154899469763,-0.02811938686390301 l 0.6409874692264792 -10.625969014652606" fill="#ff2f04" stroke="none" /><path d="M 98.37488393609728 120.93702456842531 l -1.0060992938710671 12.96198228664784 a34.000969986447174,34.000969986447174 0 0,0 -0.5831258353770593,-0.05031455074188426 l 1.2290694469896681 -12.942743483627293" fill="#ff5407" stroke="none" /><line stroke="#e1ed5e" stroke-width="0.3" x1="58.666819895761336" x2="56.23545636021788" y1="174.27360380694188" y2="178.64263932499728" /><path d="M 58.180547188652646 175.14741091055294 a86.0,86.0 0 0,1 -31.652253787137756,-30.449443065178592" fill="none" id="id80" stroke="none" /><text fill="#e1ed5e" style="font-size:6.75px; font-family:Arial;" text-anchor="middle"><textPath startOffset="22.20632615414155" xlink:href="#id80">August</textPath></text><path d="M 89.1626897886671 117.98757091392108 l -13.459046118006158 22.339080616904674 a47.08026927037339,47.08026927037339 0 0,0 -0.6905572480029882,-0.4241966633704831 l 13.841582565941456 -22.104095486705813" fill="#ecff1a" stroke="none" /><path d="M 88.24862548938628 117.40417183066458 l -12.26076786334529 18.15860012603815 a42.91029865465538,42.91029865465538 0 0,0 -0.6085970015745122,-0.41859856716668875 l 12.571521749542692 -17.94486076950636" fill="#ffd814" stroke="none" /><path d="M 87.07902340077011 116.55440617244103 l -8.049276023437406 10.312764183321548 a34.082199723375425,34.082199723375425 0 0,0 -0.4593672030196164,-0.3649490882805167 l 8.225600719174379 -10.1726811810359" fill="#ff5607" stroke="none" /><line stroke="#e1ed5e" stroke-width="0.3" x1="26.63291911575756" x2="22.317208475507996" y1="142.92168965132927" y2="145.44649492493687" /><path d="M 25.769776987707644 143.4266507060508 a86.0,86.0 0 0,1 -11.730757126820373,-40.83630448921669" fill="none" id="id81" stroke="none" /><text fill="#e1ed5e" style="font-size:6.75px; font-family:Arial;" text-anchor="middle"><textPath startOffset="21.46611528233685" xlink:href="#id81">September</textPath></text><line stroke="#e1ed5e" stroke-width="0.3" x1="15.007084014347285" x2="10.007500721073583" y1="101.09737516637583" y2="101.16192664675087" /><path d="M 14.007167355692545 101.11028546245083 a86.0,86.0 0 0,1 10.666146001902534,-42.60595125391555" fill="none" id="id82" stroke="none" /><text fill="#e1ed5e" style="font-size:6.75px; font-family:Arial;" text-anchor="middle"><textPath startOffset="22.20632615414155" xlink:href="#id82">October</textPath></text><path d="M 79.62865764111835 94.90015583598534 l -7.480947447449262 -1.872810613510738 a28.711808757067054,28.711808757067054 0 0,0 0.12414940732285333,-0.4783983101454855 l 7.4476017082561015 2.0013053492050874" fill="#ff0000" stroke="none" /><path d="M 80.52162464483688 92.15188598940014 l -24.06420093698949 -9.695808253197907 a46.94406414613151,46.94406414613151 0 0,0 0.3084410848375837,-0.7469145522615952 l 23.893738165265706 10.108597375912813" fill="#eeff19" stroke="none" /><path d="M 80.803312248108 91.48605970444005 l -11.84767498164734 -5.2545730148162155 a33.96063038739965,33.96063038739965 0 0,0 0.24160188068292862,-0.532337718541959 l 11.75547078400106 5.457732742200245" fill="#ff5407" stroke="none" /><line stroke="#e1ed5e" stroke-width="0.3" x1="26.266209847984243" x2="21.928928074336255" y1="57.711370442889674" y2="55.22380399835377" /><path d="M 25.398753493254645 57.213857153982495 a86.0,86.0 0 0,1 29.58750427330803,-30.492523968695096" fill="none" id="id83" stroke="none" /><text fill="#e1ed5e" style="font-size:6.75px; font-family:Arial;" text-anchor="middle"><textPath startOffset="21.46611528233685" xlink:href="#id83">November</textPath></text><path d="M 82.15384107792192 88.93136811851018 l -10.997014800556572 -6.820622250094928 a33.94044908038938,33.94044908038938 0 0,0 0.3122075301595391,-0.4938373359118507 l 10.87797967415107 7.008907233720994" fill="#ff5307" stroke="none" /><path d="M 82.7489923806493 88.02491185347247 l -10.63648174007067 -7.383499515900785 a33.94800405113328,33.94800405113328 0 0,0 0.3373580965865873,-0.47716910297731957 l 10.507811023680203 7.565495119209891" fill="#ff5407" stroke="none" /><path d="M 82.95767976084542 87.72973835380427 l -10.385673413691409 -7.47755753733296 a33.79750284156958,33.79750284156958 0 0,0 0.343989998139054,-0.46920197087793847 l 10.25542080303872 7.6552219518824" fill="#ff5107" stroke="none" /><path d="M 83.39014120810768 87.1503855733568 l -15.715440830317284 -12.157680432110187 a40.86917899613667,40.86917899613667 0 0,0 0.4352488148552644,-0.5527217946570077 l 15.503837934868049 12.426394620720243" fill="#ffbb11" stroke="none" /><path d="M 83.84228863543731 86.58626213691792 l -20.02903737444523 -16.627618288807916 a47.03151989618016,47.03151989618016 0 0,0 0.5224740201594277,-0.6184444430795392 l 19.739852740798682 16.96992168151657" fill="#edff1a" stroke="none" /><path d="M 88.39885842347998 82.49532879139004 l -7.383870655867628 -11.141337016304009 a34.36603667410235,34.36603667410235 0 0,0 0.4959067764456904,-0.322551561944688 l 7.1909968536376505 11.266787502408231" fill="#ff5a08" stroke="none" /><path d="M 88.70189139769569 82.29822771554957 l -7.280697324279226 -11.407329371936848 a34.5327645707601,34.5327645707601 0 0,0 0.5038179847675849,-0.3154907758411123 l 7.083260187139398 11.53096448910089" fill="#ff5d08" stroke="none" /><line stroke="#e1ed5e" stroke-width="0.3" x1="56.762969772571076" x2="54.21961505331055" y1="26.818313649435495" y2="22.513508569990535" /><path d="M 56.25429882871897 25.957352633546506 a86.0,86.0 0 0,1 42.265352541879196,-11.944610805530505" fill="none" id="id84" stroke="none" /><text fill="#e1ed5e" style="font-size:6.75px; font-family:Arial;" text-anchor="middle"><textPath startOffset="22.20632615414155" xlink:href="#id84">December</textPath></text><path d="M 89.3179101791058 81.91981866633112 l -6.856591882398564 -11.605259517874995 a34.47942508859343,34.47942508859343 0 0,0 0.5135846109728212,-0.29750135626830637 l 6.655810538960423 11.721565031533348" fill="#ff5c08" stroke="none" /><path d="M 89.63071344664047 81.73862282372117 l -8.219112924072284 -14.474700876337904 a37.645443301940304,37.645443301940304 0 0,0 0.5662518426327169,-0.3151185373572471 l 7.968736992367521 14.614034811255335" fill="#ff8c0c" stroke="none" /><path d="M 92.57280143429618 80.3572730644239 l -10.663336055922787 -28.201346243248846 a51.150002749139986,51.150002749139986 0 0,0 0.8262373794899973,-0.30431019977024654 l 10.17631635066022 28.380719710825414" fill="#b7ff1f" stroke="none" /><path d="M 93.25333710446033 80.11325718540243 l -4.163246200386822 -12.271756828947153 a33.95872812408094,33.95872812408094 0 0,0 0.5551721285617519,-0.18303152215513976 l 3.9513912495826604 12.341602075361527" fill="#ff5407" stroke="none" /><path d="M 95.692805502759 79.44645832069477 l -2.6618329429568015 -12.702025499766757 a33.97793536788248,33.97793536788248 0 0,0 0.5734724586348648,-0.11503318025336526 l 2.4427940748548003 12.745962636097333" fill="#ff5407" stroke="none" /><path d="M 96.75951476605007 79.25152402106235 l -2.8159113337970076 -18.02997528147614 a39.24854419646803,39.24854419646803 0 0,0 0.6684046132225763,-0.09850546513361219 l 2.5051377401457824 18.075775230770724" fill="#ffa40f" stroke="none" /><path d="M 97.83486435360386 79.11191278185805 l -6.495406939188433 -62.66426165442583 a84.0,84.0 0 0,0 1.4394994916390547,-0.13669782193927782 l 5.415782320459142 62.766785020880285" fill="#4dd2ff" stroke="none" /></svg>