<?xml version="1.0" encoding="utf-8" ?>
<svg baseProfile="full" height="200mm" version="1.1" viewBox="0,0,200,200" width="200mm" xmlns="http://www.w3.org/2000/svg" xmlns:ev="http://www.w3.org/2001/xml-events" xmlns:xlink="http://www.w3.org/1999/xlink"><defs /><rect fill="#1a1a1a" height="200" width="200" x="0" y="0" /><text alignment-baseline="middle" fill="#e1ed5e" style="dominant-baseline: central; font-size:9.0px; font-family:Arial;" text-anchor="middle" x="100.0" y="100.0">2019</text><line stroke="#e1ed5e" stroke-width="0.3" x1="100.0" x2="100.0" y1="15.0" y2="10.0" /><path d="M 100.0 14.0 a86.0,86.0 0 0,1 42.46469731375804,11.215312516191453" fill="none" id="id49" stroke="none" /><text fill="#e1ed5e" style="font-size:6.75px; font-family:Arial;" text-anchor="middle"><textPath startOffset="22.20632615414155" xlink:href="#id49">January</textPath></text><path d="M 100.0 79.0 l 0.0 -26.34906634132531 a47.34906634132531,47.34906634132531 0 0,0 0.8150363425794769,0.0070152751167381735 l -0.4535558633069485 26.34516244281713" fill="#b8ff1f" stroke="none" /><path d="M 100.72285384407766 79.0124445844662 l 0.22253548112521995 -6.461161935159125 a27.464993085279275,27.464993085279275 0 0,0 0.47234447814820135,0.020340146832064906 l -0.3337207916627528 6.456374061802865" fill="#ff4a06" stroke="none" /><path d="M 101.80526077348638 79.07773832637324 l 4.792867534897466 -55.54744788393976 a76.75383884205712,76.75383884205712 0 0,0 1.3153227618391041,0.12490574518081268 l -5.748315423826814 55.456716594243765" fill="#44ffe7" stroke="none" /><path d="M 102.16513564639614 79.11191278185805 l 2.793670153264239 -26.95185676575707 a48.09625760224324,48.09625760224324 0 0,0 0.8227512936809179,0.09244569427366263 l -3.257188150454882 26.89977511801281" fill="#afff20" stroke="none" /><path d="M 103.2404852339499 79.25152402106235 l 1.6992837399408955 -10.880329738946761 a32.01222686185845,32.01222686185845 0 0,0 0.5437060175276894,0.0897161515449953 l -1.8863189636074602 10.849467324462141" fill="#ff880c" stroke="none" /><path d="M 103.95276090670814 79.375362276772 l 5.320437261577144 -27.760872372262234 a49.26611199870635,49.26611199870635 0 0,0 0.8315030936807728,0.1667916982173905 l -5.797506764725042 27.665176717967636" fill="#a2ff22" stroke="none" /><path d="M 104.66035177308747 79.52364482259891 l 1.6391102625853413 -7.201817705144 a28.385990841521412,28.385990841521412 0 0,0 0.47550091429266556,0.1125357035946915 l -1.7628348638405305 7.172536089408441" fill="#ff5708" stroke="none" /><path d="M 105.01212808612495 79.60689891045804 l 3.6770977121505295 -14.961194939849305 a36.40644026415171,36.40644026415171 0 0,0 0.6072786866262835,0.15480885884503995 l -3.934085287461838 14.895683084835397" fill="#ffc212" stroke="none" /><path d="M 105.71112130821622 79.79150937346287 l 2.8446672585340234 -10.065699628372435 a31.459944589738154,31.459944589738154 0 0,0 0.5198527867865754,0.1517592837650223 l -3.017510263044026 10.01524201568871" fill="#ff810b" stroke="none" /><path d="M 107.76421540070413 80.48803036053334 l 9.473878705076439 -23.808462815789063 a46.62415421763831,46.62415421763831 0 0,0 0.7431360230210552,0.3031438428245938 l -9.882298597685882 23.641858086780893" fill="#c0ff1e" stroke="none" /><path d="M 108.09893153111575 80.62456947434976 l 10.531828559004149 -25.19575721427686 a48.3083429449141,48.3083429449141 0 0,0 0.7644593807062185,0.327301611311322 l -10.963971697500682 25.010736075002747" fill="#adff20" stroke="none" /><path d="M 108.76106565485865 80.91482961587045 l 12.769433960187849 -27.817029621724398 a51.607933295789366,51.607933295789366 0 0,0 0.804154297341868,0.3775612251339129 l -13.246366468829315 27.59310341395048" fill="#88ff25" stroke="none" /><path d="M 109.08828744355905 81.06846463323043 l 5.716898411684675 -11.90869733612359 a34.20984480199975,34.20984480199975 0 0,0 0.5286703613982259,0.25941625034793814 l -5.921040040093333 11.808525925640819" fill="#ffa50f" stroke="none" /><path d="M 109.73455568895987 81.39251694778311 l 7.338150919584061 -14.026784912805812 a36.83032387251471,36.83032387251471 0 0,0 0.5592157716532338,0.2987136983485501 l -7.578511737765606 13.898392487955508" fill="#ffc712" stroke="none" /><path d="M 110.05341064243156 81.56283822128135 l 13.158180649916327 -24.131064967364807 a48.485378194141944,48.485378194141944 0 0,0 0.7293030001791178,0.40585633000007443 l -13.57160773916748 23.900993239804553" fill="#abff21" stroke="none" /><path d="M 110.36928655335952 81.73862282372117 l 5.532252844955193 -9.74286469145141 a32.20398294966774,32.20398294966774 0 0,0 0.4796910044898535,0.2778679917124535 l -5.699140581910374 9.646192542348908" fill="#ff8b0c" stroke="none" /><line stroke="#e1ed5e" stroke-width="0.3" x1="143.23703022742887" x2="145.7803849466894" y1="26.81831364943548" y2="22.513508569990506" /><path d="M 143.74570117128098 25.957352633546492 a86.0,86.0 0 0,1 28.547481713284135,27.462654790039103" fill="none" id="id50" stroke="none" /><text fill="#e1ed5e" style="font-size:6.75px; font-family:Arial;" text-anchor="middle"><textPath startOffset="19.985693538727396" xlink:href="#id50">February</textPath></text><path d="M 110.68208982089419 81.91981866633111 l 9.840426130080745 -16.65560689111862 a40.34536707672031,40.34536707672031 0 0,0 0.5948788618726967,0.3584078581332837 l -10.12566705817108 16.483752423526724" fill="#fff316" stroke="none" /><path d="M 110.99172775467656 82.1063720568725 l 10.31997863885243 -16.800075681103202 a40.716604727923254,40.716604727923254 0 0,0 0.5940375175745067,0.3719862390080495 l -10.6076353087992 16.619945100772206" fill="#fff817" stroke="none" /><path d="M 111.90073688211348 82.69761687909136 l 3.7780630875023995 -5.492894737734964 a27.666757329690697,27.666757329690697 0 0,0 0.39006025304843794,0.2732621343690397 l -3.872054480134488 5.427047760601989" fill="#ff4c07" stroke="none" /><path d="M 112.19680574252982 82.90503203632743 l 16.764953826041726 -23.497656240377932 a49.86526503568403,49.86526503568403 0 0,0 0.6944443005212122,0.504543317659593 l -17.166943442916725 23.205593687901665" fill="#9bff22" stroke="none" /><path d="M 112.48926042617603 83.11751280151076 l 11.716204829456036 -15.837501284992547 a40.70014981054483,40.70014981054483 0 0,0 0.5596345143049924,0.42150511373429667 l -11.987085497519411 15.633479581752402" fill="#fff817" stroke="none" /><path d="M 113.6212207817346 84.01681056812373 l 4.39867622187348 -5.161422491438435 a27.781492065910104,27.781492065910104 0 0,0 0.36129989362122705,0.3133157074400557 l -4.486869914141471 5.084941790578708" fill="#ff4e07" stroke="none" /><path d="M 113.89432698308785 84.25364557470407 l 12.632750570335684 -14.316617716640033 a40.09324304084374,40.09324304084374 0 0,0 0.5135543737919287,0.46107418742939194 l -12.877315931723603 14.097044520441344" fill="#fff016" stroke="none" /><path d="M 114.16331599549186 84.49514656593476 l 16.017763605191845 -17.53495276946826 a44.74959619739441,44.74959619739441 0 0,0 0.5642542988778163,0.5244128761519272 l -16.31722578786451 17.25663530724169" fill="#d6ff1c" stroke="none" /><path d="M 114.68862486808459 84.99185889309783 l 4.562519083806382 -4.661765878539278 a27.52293197085563,27.52293197085563 0 0,0 0.33573284977921186,0.3342911062267116 l -4.642087733752917 4.582538921662447" fill="#ff4a06" stroke="none" /><path d="M 114.94478906791727 85.2469230424477 l 20.831143233984662 -20.563920832079013 a50.271340393340346,50.271340393340346 0 0,0 0.6026234708832937,0.6210564588438231 l -21.182030968571066 20.202300177685075" fill="#97ff23" stroke="none" /><path d="M 115.19652480421416 85.50635884689758 l 20.800464610486273 -19.83838237796263 a49.74405579222164,49.74405579222164 0 0,0 0.5856360061696029,0.6247156590920565 l -21.13886793862634 19.47739730199252" fill="#9dff22" stroke="none" /><path d="M 115.68641384162765 86.03803664274999 l 14.539903009052363 -12.941491604131617 a40.46512225629367,40.46512225629367 0 0,0 0.45862039706261876,0.5242823943944467 l -14.76051526969283 12.689293653534223" fill="#fff517" stroke="none" /><path d="M 115.9244219780498 86.31012108654704 l 1.0134388313211287 -0.8712313015882917 a22.33645136301205,22.33645136301205 0 0,0 0.24813604930247263,0.2937148162352629 l -1.0282854941107185 0.8536575357239221" fill="#ff0000" stroke="none" /><path d="M 116.15771136456269 86.58626213691792 l 10.06609844660679 -8.356629402533924 a34.08279759485998,34.08279759485998 0 0,0 0.37085574498476437,0.45462529287443937 l -10.208452683667964 8.182119940051384" fill="#ffa40f" stroke="none" /><path d="M 116.38621287248628 86.86637796730983 l 49.158638617458855 -39.400866098070516 a84.0,84.0 0 0,0 0.8945836776241438,1.1360304241878465 l -49.829576375676965 38.54884327992963" fill="#4dd2ff" stroke="none" /><path d="M 117.04232023915458 87.72973835380427 l 25.31802110725648 -18.22866481737666 a52.19753858578831,52.19753858578831 0 0,0 0.5187127419120904,0.7336823875444476 l -25.628046468972453 17.790155929500422" fill="#82ff25" stroke="none" /><path d="M 117.2510076193507 88.02491185347247 l 25.05925851715865 -17.39532184154762 a51.50514152402529,51.50514152402529 0 0,0 0.49929460507433127,0.7326532232283003 l -25.354977587901715 16.961390595048915" fill="#89ff24" stroke="none" /><path d="M 117.45458315368197 88.32363383020206 l 14.27924427582753 -9.552200893287019 a38.179678663888524,38.179678663888524 0 0,0 0.36071317656517754,0.5493909150173394 l -14.441554087750632 9.304991914292005" fill="#ffd814" stroke="none" /><line stroke="#e1ed5e" stroke-width="0.3" x1="172.23445277983987" x2="176.4835382374775" y1="55.19839476539836" y2="52.563006222186495" /><path d="M 173.08426987136738 54.67131705675599 a86.0,86.0 0 0,1 12.851231095245387,41.99856678651699" fill="none" id="id51" stroke="none" /><text fill="#e1ed5e" style="font-size:6.75px; font-family:Arial;" text-anchor="middle"><textPath startOffset="22.20632615414155" xlink:href="#id51">March</textPath></text><path d="M 119.61058180528143 92.48833698450437 l 6.166640845364442 -2.362078210014843 a27.6035500138898,27.6035500138898 0 0,0 0.16614105061055093,0.4451754155027668 l -6.206386484476617 2.2555796574827434" fill="#ff4c07" stroke="none" /><path d="M 120.18372546131832 94.20196356495316 l 26.81550099469755 -7.703099811244471 a48.899979216813406,48.899979216813406 0 0,0 0.22543642415321108,0.8110147630602039 l -26.944124189417128 7.240373744765315" fill="#a6ff21" stroke="none" /><line stroke="#e1ed5e" stroke-width="0.3" x1="184.98032266829074" x2="189.97916517819016" y1="98.17113171792111" y2="98.06355123074" /><path d="M 185.9800911702706 98.14961562048488 a86.0,86.0 0 0,1 -9.607161424134198,41.387399972396054" fill="none" id="id52" stroke="none" /><text fill="#e1ed5e" style="font-size:6.75px; font-family:Arial;" text-anchor="middle"><textPath startOffset="21.466115282336823" xlink:href="#id52">April</textPath></text><path d="M 120.99980553446 99.90962569577887 l 5.652404570221328 -0.02432556479496105 a26.65245691346352,26.65245691346352 0 0,0 -0.0019744428315085407,0.4587909788953209 l -5.651985830100316 -0.07297489230404457" fill="#ff3e05" stroke="none" /><path d="M 120.89721153311464 102.0752229133903 l 3.954547853003648 0.39271116644663784 a24.973999343475995,24.973999343475995 0 0,0 -0.04616348461085616,0.42741653434724175 l -3.94720206689174 -0.460724022678671" fill="#ff2603" stroke="none" /><path d="M 120.8583938346157 102.4346265915055 l 6.493175972670523 0.7578943523519657 a27.537257686629218,27.537257686629218 0 0,0 -0.05900643025614025,0.47033930608604113 l -6.479168033167534 -0.8695514127254017" fill="#ff4b06" stroke="none" /><path d="M 120.5718875245553 104.21870165774334 l 5.549023713136532 1.1379449508229909 a26.664501997532977,26.664501997532977 0 0,0 -0.0960759607417781,0.4488349032513268 l -5.52861371367031 -1.2332936734904867" fill="#ff3e05" stroke="none" /><path d="M 119.67450827220406 107.3425965602758 l 3.083075887101502 1.1506149018058636 a24.2907858602292,24.2907858602292 0 0,0 -0.149568455471276,0.3904760404531465 l -3.0628131520367194 -1.203514509092154" fill="#ff1c02" stroke="none" /><line stroke="#e1ed5e" stroke-width="0.3" x1="174.80103733775053" x2="179.2010983576182" y1="140.37084112569926" y2="142.7455964860345" /><path d="M 175.68104954172406 140.8457921977663 a86.0,86.0 0 0,1 -30.038265399797805,32.042727171017184" fill="none" id="id53" stroke="none" /><text fill="#e1ed5e" style="font-size:6.75px; font-family:Arial;" text-anchor="middle"><textPath startOffset="22.206326154141568" xlink:href="#id53">May</textPath></text><path d="M 115.32070863581623 114.36230785411682 l 3.8020401232434184 3.564200065528954 a26.211432740223117,26.211432740223117 0 0,0 -0.31140860703126594,0.3265106794770782 l -3.740124964833188 -3.629117861588539" fill="#ff3805" stroke="none" /><line stroke="#e1ed5e" stroke-width="0.3" x1="143.8653032363475" x2="146.44561519142675" y1="172.8068346515853" y2="177.08958963109032" /><path d="M 144.38136562736335 173.6633856474863 a86.0,86.0 0 0,1 -40.68145358897372,12.25698825130547" fill="none" id="id54" stroke="none" /><text fill="#e1ed5e" style="font-size:6.75px; font-family:Arial;" text-anchor="middle"><textPath startOffset="21.466115282336833" xlink:href="#id54">June</textPath></text><path d="M 106.91757812671514 119.82793768551818 l 2.0136093437023 5.771632767791434 a27.112803562628937,27.112803562628937 0 0,0 -0.4419777754483461,0.14994285821817396 l -1.9139618353167271 -5.805438612907731" fill="#ff4506" stroke="none" /><path d="M 106.57524785965236 119.94407469862006 l 2.1730908787361773 6.5914301236236055 a27.94040885264399,27.94040885264399 0 0,0 -0.45806125606654546,0.14665674909480386 l -2.0593082775786917 -6.627859719378116" fill="#ff5007" stroke="none" /><path d="M 105.88484417918355 120.15858648285463 l 1.8464650736121857 6.325082659902456 a27.58908976435049,27.58908976435049 0 0,0 -0.4570183061610373,0.12915793835358144 l -1.7373155993465428 -6.355929391594557" fill="#ff4b07" stroke="none" /><line stroke="#e1ed5e" stroke-width="0.3" x1="102.19456741930631" x2="102.32365962044197" y1="184.97166512339345" y2="189.96999836594603" /><path d="M 102.22038585953345 185.97133177190398 a86.0,86.0 0 0,1 -42.740103519485714,-10.115201625700543" fill="none" id="id55" stroke="none" /><text fill="#e1ed5e" style="font-size:6.75px; font-family:Arial;" text-anchor="middle"><textPath startOffset="22.20632615414155" xlink:href="#id55">July</textPath></text><line stroke="#e1ed5e" stroke-width="0.3" x1="58.666819895761336" x2="56.23545636021788" y1="174.27360380694188" y2="178.64263932499728" /><path d="M 58.180547188652646 175.14741091055294 a86.0,86.0 0 0,1 -31.652253787137756,-30.449443065178592" fill="none" id="id56" stroke="none" /><text fill="#e1ed5e" style="font-size:6.75px; font-family:Arial;" text-anchor="middle"><textPath startOffset="22.20632615414155" xlink:href="#id56">August</textPath></text><path d="M 84.43433777217949 114.09645910891817 l -3.974738417293009 3.5995730055014996 a26.362412825197257,26.362412825197257 0 0,0 -0.30171298211682424,-0.33897773384561813 l 4.036110249058171 -3.5306211019150173" fill="#ff3a05" stroke="none" /><line stroke="#e1ed5e" stroke-width="0.3" x1="26.63291911575756" x2="22.317208475507996" y1="142.92168965132927" y2="145.44649492493687" /><path d="M 25.769776987707644 143.4266507060508 a86.0,86.0 0 0,1 -11.730757126820373,-40.83630448921669" fill="none" id="id57" stroke="none" /><text fill="#e1ed5e" style="font-size:6.75px; font-family:Arial;" text-anchor="middle"><textPath startOffset="21.46611528233685" xlink:href="#id57">September</textPath></text><line stroke="#e1ed5e" stroke-width="0.3" x1="15.007084014347285" x2="10.007500721073583" y1="101.09737516637583" y2="101.16192664675087" /><path d="M 14.007167355692545 101.11028546245083 a86.0,86.0 0 0,1 10.666146001902534,-42.60595125391555" fill="none" id="id58" stroke="none" /><text fill="#e1ed5e" style="font-size:6.75px; font-family:Arial;" text-anchor="middle"><textPath startOffset="22.20632615414155" xlink:href="#id58">October</textPath></text><line stroke="#e1ed5e" stroke-width="0.3" x1="26.266209847984243" x2="21.928928074336255" y1="57.711370442889674" y2="55.22380399835377" /><path d="M 25.398753493254645 57.213857153982495 a86.0,86.0 0 0,1 29.58750427330803,-30.492523968695096" fill="none" id="id59" stroke="none" /><text fill="#e1ed5e" style="font-size:6.75px; font-family:Arial;" text-anchor="middle"><textPath startOffset="21.46611528233685" xlink:href="#id59">November</textPath></text><path d="M 83.84228863543731 86.58626213691792 l -5.001023171698249 -4.151727454389715 a27.49977488990166,27.49977488990166 0 0,0 0.30549550539558784,-0.3616103201457289 l 4.928817052815537 4.23719672416456" fill="#ff4a06" stroke="none" /><line stroke="#e1ed5e" stroke-width="0.3" x1="56.762969772571076" x2="54.21961505331055" y1="26.818313649435495" y2="22.513508569990535" /><path d="M 56.25429882871897 25.957352633546506 a86.0,86.0 0 0,1 42.265352541879196,-11.944610805530505" fill="none" id="id60" stroke="none" /><text fill="#e1ed5e" style="font-size:6.75px; font-family:Arial;" text-anchor="middle"><textPath startOffset="22.20632615414155" xlink:href="#id60">December</textPath></text></svg>