<?xml version="1.0" encoding="utf-8" ?>
<svg baseProfile="full" height="200mm" version="1.1" viewBox="0,0,200,200" width="200mm" xmlns="http://www.w3.org/2000/svg" xmlns:ev="http://www.w3.org/2001/xml-events" xmlns:xlink="http://www.w3.org/1999/xlink"><defs /><rect fill="#1a1a1a" height="200" width="200" x="0" y="0" /><text alignment-baseline="middle" fill="#e1ed5e" style="dominant-baseline: central; font-size:9.0px; font-family:Arial;" text-anchor="middle" x="100.0" y="100.0">2018</text><line stroke="#e1ed5e" stroke-width="0.3" x1="100.0" x2="100.0" y1="15.0" y2="10.0" /><path d="M 100.0 14.0 a86.0,86.0 0 0,1 42.46469731375804,11.215312516191453" fill="none" id="id37" stroke="none" /><text fill="#e1ed5e" style="font-size:6.75px; font-family:Arial;" text-anchor="middle"><textPath startOffset="22.20632615414155" xlink:href="#id37">January</textPath></text><path d="M 100.0 79.0 l 0.0 -8.096333010024445 a29.096333010024445,29.096333010024445 0 0,0 0.5008455429303202,0.004310935710582349 l -0.13936506365779183 8.095133450922422" fill="#ff5107" stroke="none" /><path d="M 100.36148047927253 79.00311137660856 l 0.10826128118518472 -6.288444863871078 a27.289376702897545,27.289376702897545 0 0,0 0.46960256583623194,0.012128448813028147 l -0.21649048221628445 6.28564962291569" fill="#ff3705" stroke="none" /><path d="M 102.16513564639614 79.11191278185805 l 5.695437881746539 -54.946581946240435 a76.24097102911705,76.24097102911705 0 0,0 1.3042045404956786,0.14654257628885026 l -6.640409125751943 54.84040341648098" fill="#43ffe0" stroke="none" /><path d="M 109.08828744355905 81.06846463323043 l 5.2813950418313045 -11.00151350199326 a33.20354181876804,33.20354181876804 0 0,0 0.513119207486235,0.25178536666124407 l -5.469985516327971 10.908972975197186" fill="#ff8a0c" stroke="none" /><line stroke="#e1ed5e" stroke-width="0.3" x1="143.23703022742887" x2="145.7803849466894" y1="26.81831364943548" y2="22.513508569990506" /><path d="M 143.74570117128098 25.957352633546492 a86.0,86.0 0 0,1 28.547481713284135,27.462654790039103" fill="none" id="id38" stroke="none" /><text fill="#e1ed5e" style="font-size:6.75px; font-family:Arial;" text-anchor="middle"><textPath startOffset="19.985693538727396" xlink:href="#id38">February</textPath></text><path d="M 111.2981086023043 82.29822771554956 l 6.836272481609569 -10.711008630172506 a33.70670403048887,33.70670403048887 0 0,0 0.48639251301752545,0.31636322035455855 l -7.0196320204113745 10.591746485658419" fill="#ff910d" stroke="none" /><path d="M 111.60114157652 82.49532879139004 l 7.05845896441575 -10.650331486483449 a33.77698727104014,33.77698727104014 0 0,0 0.48187746778541035,0.3253658173033748 l -7.240741126607703 10.527253756881404" fill="#ff920d" stroke="none" /><path d="M 112.48926042617603 83.11751280151076 l 5.451222980900999 -7.368747151615716 a30.165929662175458,30.165929662175458 0 0,0 0.4147870578765356,0.31240901255507814 l -5.577256192535917 7.273821549554791" fill="#ff6008" stroke="none" /><path d="M 113.34407831869373 83.78471172551755 l 4.412967249206094 -5.362493713146277 a27.944826762857296,27.944826762857296 0 0,0 0.36879514849090694,0.3088553308804476 l -4.504619934656119 5.28573722487201" fill="#ff4106" stroke="none" /><path d="M 114.16331599549186 84.49514656593476 l 18.316788296441946 -20.051739155543096 a48.15836844618271,48.15836844618271 0 0,0 0.6072360139929617,0.5643596960349193 l -18.659232194229755 19.733474873433536" fill="#b7ff1f" stroke="none" /><path d="M 114.68862486808459 84.99185889309783 l 11.87290494241168 -12.131171864271794 a37.97442790117073,37.97442790117073 0 0,0 0.46322328273367147,0.4612340547457386 l -12.079964025312673 11.925001958875937" fill="#ffca12" stroke="none" /><path d="M 115.4437574822437 85.77008943001954 l 4.14497055122626 -3.8191845687143773 a26.63621784891597,26.63621784891597 0 0,0 0.30778322147505327,0.33986192049038677 l -4.2100974133173485 3.7472698609544413" fill="#ff2e04" stroke="none" /><path d="M 117.04232023915458 87.72973835380427 l 27.323392055497575 -19.672507315774553 a54.66860997290549,54.66860997290549 0 0,0 0.5432689997242366,0.7684154727475594 l -27.657973675025694 19.1992653426952" fill="#6eff28" stroke="none" /><path d="M 117.45458315368197 88.32363383020206 l 6.970276759981527 -4.6628156649624 a29.386096114173586,29.386096114173586 0 0,0 0.27763334965464037,0.4228546388532917 l -7.049506744994092 4.542142962131434" fill="#ff5507" stroke="none" /><line stroke="#e1ed5e" stroke-width="0.3" x1="172.23445277983987" x2="176.4835382374775" y1="55.19839476539836" y2="52.563006222186495" /><path d="M 173.08426987136738 54.67131705675599 a86.0,86.0 0 0,1 12.851231095245387,41.99856678651699" fill="none" id="id39" stroke="none" /><text fill="#e1ed5e" style="font-size:6.75px; font-family:Arial;" text-anchor="middle"><textPath startOffset="22.20632615414155" xlink:href="#id39">March</textPath></text><path d="M 118.21658344932153 89.55222093294921 l 26.74918415634975 -15.341491837197735 a51.83634584092475,51.83634584092475 0 0,0 0.4372577413829805,0.7778327313903977 l -27.00929953902516 14.878775595872542" fill="#8dff24" stroke="none" /><path d="M 119.47837535516314 92.15188598940014 l 8.924896255018776 -3.5959674287515226 a30.622097220018617,30.622097220018617 0 0,0 0.19278279850648147,0.49061119437396655 l -8.985472603406958 3.4418072294817716" fill="#ff6709" stroke="none" /><path d="M 120.18372546131832 94.20196356495316 l 28.205499282328507 -8.10239481413095 a50.346192112256915,50.346192112256915 0 0,0 0.23210368800351855,0.8350004585046193 l -28.340789740898387 7.615683052207379" fill="#9dff22" stroke="none" /><path d="M 120.45610955862082 95.25157060432595 l 8.909421784231625 -2.068123470764033 a30.146306971650695,30.146306971650695 0 0,0 0.112984931896596,0.5064892955736421 l -8.943701103130259 1.9144560056404272" fill="#ff6008" stroke="none" /><path d="M 120.78858239683441 97.02765380044208 l 9.69227809663973 -1.3857994458531413 a30.790847501964738,30.790847501964738 0 0,0 0.07050224477592831,0.5253236139160959 l -9.714696340473495 1.2187574898723812" fill="#ff6909" stroke="none" /><path d="M 120.83666639777658 97.38593545837742 l 6.224666150201933 -0.7809156587743561 a27.273459806804276,27.273459806804276 0 0,0 0.05442957489876064,0.46631935815135844 l -6.2371860781042825 0.673652562298145" fill="#ff3705" stroke="none" /><path d="M 120.87857604477298 97.74499172005257 l 6.2141431711508455 -0.6711637936262475 a27.250282888752754,27.250282888752754 0 0,0 0.04635516336945853,0.46679016906240955 l -6.224775460202532 0.564098093859403" fill="#ff3705" stroke="none" /><line stroke="#e1ed5e" stroke-width="0.3" x1="184.98032266829074" x2="189.97916517819016" y1="98.17113171792111" y2="98.06355123074" /><path d="M 185.9800911702706 98.14961562048488 a86.0,86.0 0 0,1 -9.607161424134198,41.387399972396054" fill="none" id="id40" stroke="none" /><text fill="#e1ed5e" style="font-size:6.75px; font-family:Arial;" text-anchor="middle"><textPath startOffset="21.466115282336823" xlink:href="#id40">April</textPath></text><path d="M 120.99824983174949 100.27111621757518 l 8.53856231768381 0.11024455550577518 a29.539273992265887,29.539273992265887 0 0,0 -0.010940696259153983,0.5083711645224326 l -8.535399558739648 -0.2572055358183226" fill="#ff5708" stroke="none" /><path d="M 120.8583938346157 102.4346265915055 l 8.946185870723491 1.044213767661635 a30.006920895961436,30.006920895961436 0 0,0 -0.06429838821273716,0.5125214178039973 l -8.926885973263907 -1.198052939753027" fill="#ff5e08" stroke="none" /><path d="M 120.81339534386255 102.79330883721812 l 11.268187279718944 1.5122725815684448 a32.36921338227863,32.36921338227863 0 0,0 -0.07886673907382921,0.5515937893943208 l -11.240486489628513 -1.7060118429431748" fill="#ff7f0b" stroke="none" /><path d="M 120.70491114924044 103.5080841355445 l 8.230580332702276 1.3945275149145788 a29.347883540330407,29.347883540330407 0 0,0 -0.08867750573567286,0.4973505456032764 l -8.205356384627414 -1.5359968112510736" fill="#ff5507" stroke="none" /><path d="M 120.5718875245553 104.21870165774334 l 14.097910571245441 2.891075436157195 a35.39129596847989,35.39129596847989 0 0,0 -0.12751983001156061,0.5957301922766615 l -14.046056702509437 -3.1333194478500253" fill="#ffa80f" stroke="none" /><path d="M 119.79798401119884 107.00284435728193 l 12.108544868570931 4.2829742189812166 a33.843703788029885,33.843703788029885 0 0,0 -0.1989941112165332,0.5475463294978619 l -12.033026496349171 -4.490768345485209" fill="#ff930d" stroke="none" /><path d="M 118.64920377521936 109.65438752849418 l 23.79944868488939 12.32058501466671 a47.799450979606156,47.799450979606156 0 0,0 -0.38455225482055416,0.7274279438194522 l -23.583843921843947 -12.728427973572296" fill="#bbff1f" stroke="none" /><line stroke="#e1ed5e" stroke-width="0.3" x1="174.80103733775053" x2="179.2010983576182" y1="140.37084112569926" y2="142.7455964860345" /><path d="M 175.68104954172406 140.8457921977663 a86.0,86.0 0 0,1 -30.038265399797805,32.042727171017184" fill="none" id="id41" stroke="none" /><text fill="#e1ed5e" style="font-size:6.75px; font-family:Arial;" text-anchor="middle"><textPath startOffset="22.206326154141568" xlink:href="#id41">May</textPath></text><path d="M 118.48025628344425 109.97397251340804 l 5.873145611026897 3.1697933185106146 a27.673936548274867,27.673936548274867 0 0,0 -0.22985654177910478,0.4172563896748718 l -5.817712659796283 -3.270420226583292" fill="#ff3d05" stroke="none" /><path d="M 118.30583269289576 110.29060199501025 l 5.6012073409147645 3.1487120200357075 a27.425566983623686,27.425566983623686 0 0,0 -0.2348777845901869,0.40952921534037234 l -5.5461775601721985 -3.2446610812343946" fill="#ff3905" stroke="none" /><path d="M 118.12598468904814 110.60418214915192 l 5.510001542986129 3.2234971509843753 a27.38365497862423,27.38365497862423 0 0,0 -0.24152269501536477,0.40480592920521263 l -5.453697972272536 -3.3178651740756924" fill="#ff3805" stroke="none" /><path d="M 117.94076556474637 110.91462005526583 l 5.466551856290526 3.3256850889942893 a27.398700689098714,27.398700689098714 0 0,0 -0.2485914908774789,0.4008086365483778 l -5.408495725745085 -3.4192900569079407" fill="#ff3905" stroke="none" /><path d="M 117.75023020441432 111.22182372390056 l 10.844101193671 6.855719088603825 a33.829474460024606,33.829474460024606 0 0,0 -0.31541174160871926,0.48952602735287365 l -10.72448458868523 -7.041366715878152" fill="#ff930d" stroke="none" /><path d="M 117.55443506779139 111.5257021239791 l 5.345290644495001 3.5095534260501213 a27.394458329243058,27.394458329243058 0 0,0 -0.26220005014920295,0.391953499203086 l -5.284087488935077 -3.601043839459014" fill="#ff3905" stroke="none" /><path d="M 117.35343817320211 111.8261652097733 l 5.2710558542710935 3.592162932808039 a27.378688294209525,27.378688294209525 0 0,0 -0.2687532365742377,0.38715908184873726 l -5.20844171053472 -3.682363276843796" fill="#ff3805" stroke="none" /><path d="M 117.14729908036423 112.12312394758627 l 5.147485113461623 3.6392670213765745 a27.304035806226686,27.304035806226686 0 0,0 -0.2746268624750084,0.38143269243361616 l -5.084078458611011 -3.727333319261322" fill="#ff3705" stroke="none" /><path d="M 116.93607887273984 112.41649034213515 l 5.14858670581419 3.7746267945931806 a27.3840232225257,27.3840232225257 0 0,0 -0.2819755473538638,0.37775232546588183 l -5.0828498917652345 -3.8626919995683773" fill="#ff3805" stroke="none" /><path d="M 116.498646956653 112.99209946851258 l 4.956535288939441 3.903095790962823 a27.308834981510746,27.308834981510746 0 0,0 -0.29400183009378067,0.3668124878899428 l -4.888615546790806 -3.987836112431016" fill="#ff3705" stroke="none" /><path d="M 116.27256486870786 113.27417163493432 l 5.075745808117743 4.1404856318513135 a27.550329516611512,27.550329516611512 0 0,0 -0.30292768045888474,0.36489590561198615 l -5.0037221277653146 -4.22724279457707" fill="#ff3b05" stroke="none" /><path d="M 116.0416608686014 113.55231037782055 l 4.976523303241664 4.204264693065283 a27.514723769820378,27.514723769820378 0 0,0 -0.30876432159281486,0.3591626616929724 l -4.90341647207807 -4.289304453919783" fill="#ff3a05" stroke="none" /><path d="M 115.56566222782051 114.09645910891815 l 5.016080849905207 4.542625784422972 a27.76731232544281,27.76731232544281 0 0,0 -0.32389061402008945,0.3515192923456381 l -4.937143827889396 -4.628296331569945" fill="#ff3e05" stroke="none" /><path d="M 115.07121518719521 114.62390073753431 l 6.37672608531549 6.187464523851318 a29.88523228740035,29.88523228740035 0 0,0 -0.36141118627515806,0.3661076235966526 l -6.269274273984797 -6.296312641428635" fill="#ff5c08" stroke="none" /><path d="M 114.81725581225074 114.88116024355365 l 4.546111419013899 4.565718063358365 a27.443051332106972,27.443051332106972 0 0,0 -0.33761493421920763,0.330427271657801 l -4.466846532418898 -4.643295437938738" fill="#ff3905" stroke="none" /><path d="M 114.55890576462653 115.13401014063108 l 2.23902188009389 2.3274674887151474 a24.229601196829908,24.229601196829908 0 0,0 -0.30305942768613414,0.2865616048929579 l -2.1986266180169483 -2.3656637303540267" fill="#ff0a01" stroke="none" /><path d="M 114.29624159901734 115.38237550388516 l 8.721288628281958 9.383874470001803 a33.810853812550974,33.810853812550974 0 0,0 -0.4297205769276122,0.3925395584468351 l -8.558468501887482 -9.532606795035221" fill="#ff930d" stroke="none" /><path d="M 114.0293411484842 115.62618273729858 l 9.989949985885307 11.127021744195268 a35.95358530976047,35.95358530976047 0 0,0 -0.46407115422075934,0.4094888369719285 l -9.79693647875796 -11.297333722939484" fill="#ffaf10" stroke="none" /><path d="M 113.75828350139079 115.86535959552629 l 11.078015945314853 12.774610041988696 a37.90896504844482,37.90896504844482 0 0,0 -0.49666976343148755,0.42327274741671883 l -10.856480705306318 -12.963407179628362" fill="#ffc912" stroke="none" /><path d="M 113.48314897796784 116.09983520530334 l 4.299578959166099 5.134001916605461 a27.69659278333485,27.69659278333485 0 0,0 -0.368140303969633,0.3029544073027173 l -4.210568526651775 -5.207251442765357" fill="#ff3d05" stroke="none" /><path d="M 113.20401910651253 116.32954008644616 l 4.201717020486816 5.196304698173415 a27.682515128041814,27.682515128041814 0 0,0 -0.3731108804633721,0.29642184892079293 l -4.111648647306093 -5.267860461099334" fill="#ff3d05" stroke="none" /><path d="M 112.63410532772338 116.77436683061366 l 7.0210751883494495 9.3219177535475 a32.67020340029943,32.67020340029943 0 0,0 -0.45211676798140665,0.3344651763672641 l -6.859573449949479 -9.441392878654534" fill="#ff830c" stroke="none" /><line stroke="#e1ed5e" stroke-width="0.3" x1="143.8653032363475" x2="146.44561519142675" y1="172.8068346515853" y2="177.08958963109032" /><path d="M 144.38136562736335 173.6633856474863 a86.0,86.0 0 0,1 -40.68145358897372,12.25698825130547" fill="none" id="id42" stroke="none" /><text fill="#e1ed5e" style="font-size:6.75px; font-family:Arial;" text-anchor="middle"><textPath startOffset="21.466115282336833" xlink:href="#id42">June</textPath></text><path d="M 108.92500713936063 119.00905698771935 l 2.7550846964123603 5.867957434916722 a27.48254704127938,27.48254704127938 0 0,0 -0.42994744099465193,0.1973677825703314 l -2.653669259650289 -5.914512287821127" fill="#ff3a05" stroke="none" /><path d="M 108.59647513512805 119.15986991738527 l 3.4064380225806485 7.592287346656552 a29.32145703322948,29.32145703322948 0 0,0 -0.46227277202920364,0.2026467983131056 l -3.2752445758936912 -7.649798698264112" fill="#ff5407" stroke="none" /><path d="M 107.93186726928326 119.44442032107085 l 10.468255504968646 25.66219947416835 a48.71520981644037,48.71520981644037 0 0,0 -0.7791624882638432,0.3100448341613192 l -10.024971940662937 -25.838591152735738" fill="#b0ff20" stroke="none" /><path d="M 103.06178313531738 120.77559828337769 l 0.9120901609329471 6.188948708739944 a27.255796878183027,27.255796878183027 0 0,0 -0.464739123166504,0.06440860775834281 l -0.8054224465796126 -6.2037318819908895" fill="#ff3705" stroke="none" /><line stroke="#e1ed5e" stroke-width="0.3" x1="102.19456741930631" x2="102.32365962044197" y1="184.97166512339345" y2="189.96999836594603" /><path d="M 102.22038585953345 185.97133177190398 a86.0,86.0 0 0,1 -42.740103519485714,-10.115201625700543" fill="none" id="id43" stroke="none" /><text fill="#e1ed5e" style="font-size:6.75px; font-family:Arial;" text-anchor="middle"><textPath startOffset="22.20632615414155" xlink:href="#id43">July</textPath></text><path d="M 100.54218724476979 120.99299961872073 l 0.23374069581634194 9.050228284576109 a30.053246197680814,30.053246197680814 0 0,0 -0.5172597440677025,0.008905095585717972 l -0.07792126185597155 -9.052910857440986" fill="#ff5f08" stroke="none" /><path d="M 99.81925306533755 120.99922214144158 l -0.04100222506741898 4.7636483246152626 a25.763824780895103,25.763824780895103 0 0,0 -0.44343261039798537,-0.007634094527374722 l 0.12299452535807227 -4.762236752808728" fill="#ff2103" stroke="none" /><path d="M 99.45781275523022 120.99299961872073 l -0.06632373665048168 2.56799508222828 a23.56885141267297,23.56885141267297 0 0,0 -0.40547363570490874,-0.01396533185682543 l 0.11051772403003345 -2.566472951945361" fill="#ff0000" stroke="none" /><path d="M 98.73552117531835 120.96189622390904 l -0.9280285315319282 15.384391886275058 a36.412357076898495,36.412357076898495 0 0,0 -0.62531675855926,-0.043125504788886916 l 1.1927080508701184 -15.366138036969884" fill="#ffb610" stroke="none" /><path d="M 98.37488393609728 120.93702456842531 l -1.0115305638287033 13.031955524293217 a34.07115369310284,34.07115369310284 0 0,0 -0.5843295049367736,-0.05041840841627378 l 1.2357043865070187 -13.01261286359828" fill="#ff960d" stroke="none" /><path d="M 97.65516085044442 120.86867818915974 l -1.0036222188903272 8.932070719427488 a29.988278194131745,29.988278194131745 0 0,0 -0.5124747939895185,-0.06205356063634062 l 1.1572244359312351 -8.913471630065798" fill="#ff5e08" stroke="none" /><path d="M 97.2962882734958 120.8252237178851 l -1.2175824645519335 9.378376759142474 a30.45708505272148,30.45708505272148 0 0,0 -0.5193243501509758,-0.07197362283666628 l 1.3788354058897403 -9.356028570813203" fill="#ff6409" stroke="none" /><path d="M 95.86986931433489 120.58985236759428 l -2.1084448664544406 10.511185197162341 a31.720566869523402,31.720566869523402 0 0,0 -0.5344289241303565,-0.11199477720661821 l 2.2890652520141836 -10.473334439229182" fill="#ff760a" stroke="none" /><path d="M 95.51606077576429 120.51570834832081 l -3.7885774882602563 17.334166882560616 a38.74335540130484,38.74335540130484 0 0,0 -0.6502977201843408,-0.1480056439263451 l 4.08639535783746 -17.266384505056585" fill="#ffd413" stroke="none" /><line stroke="#e1ed5e" stroke-width="0.3" x1="58.666819895761336" x2="56.23545636021788" y1="174.27360380694188" y2="178.64263932499728" /><path d="M 58.180547188652646 175.14741091055294 a86.0,86.0 0 0,1 -31.652253787137756,-30.449443065178592" fill="none" id="id44" stroke="none" /><text fill="#e1ed5e" style="font-size:6.75px; font-family:Arial;" text-anchor="middle"><textPath startOffset="22.20632615414155" xlink:href="#id44">August</textPath></text><path d="M 89.7882731507175 118.34994917583269 l -4.392123782754475 7.892421074029563 a30.032223520973307,30.032223520973307 0 0,0 -0.4495555474245658,-0.25526937250674725 l 4.5273280971002485 -7.815648535728182" fill="#ff5e08" stroke="none" /><path d="M 89.4739219176387 118.17145234162733 l -4.566334704283523 7.882986693197034 a30.110043459647468,30.110043459647468 0 0,0 -0.44624823473209624,-0.26365132284082027 l 4.701350810044002 -7.803216798062464" fill="#ff5f08" stroke="none" /><path d="M 89.1626897886671 117.98757091392108 l -4.732343388760975 7.854657718051434 a30.170099335170512,30.170099335170512 0 0,0 -0.4425246731114734,-0.271834797673702 l 4.866847261804757 -7.772034453549354" fill="#ff6008" stroke="none" /><path d="M 88.54995079064634 117.60387380957326 l -3.5806240884076246 5.505029145233181 a27.56705525729392,27.56705525729392 0 0,0 -0.39555482048839097,-0.26215216607459857 l 3.6748536076359777 -5.442578958067265" fill="#ff3b05" stroke="none" /><path d="M 88.24862548938628 117.40417183066458 l -7.481258599351298 11.07998983907348 a34.36919612633233,34.36919612633233 0 0,0 -0.4874584974892244,-0.3352783994569745 l 7.670873981463413 -10.949570650251404" fill="#ff9a0e" stroke="none" /><path d="M 87.65650970185807 116.9893568818739 l -2.536131206295246 3.4906851402875256 a25.31472412144377,25.31472412144377 0 0,0 -0.35032568092377453,-0.2591625636432314 l 2.5958418576375846 -3.4465126279045273" fill="#ff1a02" stroke="none" /><path d="M 86.79598089348748 116.32954008644616 l -8.49031580727011 10.500056929864853 a34.50320917551023,34.50320917551023 0 0,0 -0.4586131591407564,-0.37740740774792425 l 8.669799094955554 -10.35235440325975" fill="#ff9c0e" stroke="none" /><path d="M 86.51685102203217 116.09983520530335 l -4.1422473298595035 4.9461368037481375 a27.451548823586474,27.451548823586474 0 0,0 -0.35966041918091085,-0.30651041189213607 l 4.22677322561747 -4.87410200163305" fill="#ff3905" stroke="none" /><path d="M 86.24171649860922 115.8653595955263 l -4.409252313091933 5.08452769471847 a27.730076362038226,27.730076362038226 0 0,0 -0.357926154876892,-0.31582821631842006 l 4.496120820875412 -5.007876336627761" fill="#ff3d05" stroke="none" /><path d="M 85.97065885151581 115.62618273729859 l -12.324688173913593 13.727503490540242 a39.4483682386004,39.4483682386004 0 0,0 -0.5013708216990415,-0.45799035823462625 l 12.55915854507949 -13.51332036571904" fill="#ffdd14" stroke="none" /><path d="M 85.44109423537348 115.13401014063109 l -3.6173360359846254 3.760227666537545 a26.217703719207076,26.217703719207076 0 0,0 -0.32254023830735545,-0.3156735089051463 l 3.681526226667775 -3.6974040547098292" fill="#ff2803" stroke="none" /><path d="M 84.9287848128048 114.62390073753433 l -2.7532770674231335 2.67155966103744 a24.83637402145315,24.83637402145315 0 0,0 -0.2950720288502103,-0.30938184256701984 l 2.798855647652301 -2.62377070188792" fill="#ff1302" stroke="none" /><path d="M 84.43433777217949 114.09645910891817 l -14.378774259964024 13.021598466249673 a40.39874160442475,40.39874160442475 0 0,0 -0.4623561919031895,-0.5194620830075756 l 14.600789301515551 -12.772162213501232" fill="#ffe915" stroke="none" /><path d="M 84.19399662182784 113.82643327865904 l -11.797611823124175 10.32005933550602 a36.67441448404004,36.67441448404004 0 0,0 -0.411552403822379,-0.4787284230913069 l 11.973506736517333 -10.115453813253183" fill="#ffb911" stroke="none" /><path d="M 83.95833913139862 113.55231037782056 l -12.939349046062672 10.931416378613829 a37.93879032807448,37.93879032807448 0 0,0 -0.4171532593310862,-0.5024879737369159 l 13.125598305287294 -10.707067147763151" fill="#ffca12" stroke="none" /><path d="M 83.72743513129214 113.27417163493432 l -5.1732917376345435 4.220057685866303 a27.676214067472454,27.676214067472454 0 0,0 -0.2979569648948001,-0.37174712668399057 l 5.245166614584204 -4.130382725604053" fill="#ff3d05" stroke="none" /><path d="M 83.50135304334701 112.99209946851258 l -32.622750291788805 25.689259115666914 a62.52326902487667,62.52326902487667 0 0,0 -0.6585581368354012,-0.8512751663899749 l 33.060115245842276 -25.12390595516369" fill="#32ff46" stroke="none" /><path d="M 83.06392112726016 112.41649034213515 l -6.909525575462876 5.065638759781683 a29.567510707467957,29.567510707467957 0 0,0 -0.29739313097942055,-0.4130530481921305 l 6.995698498817904 -4.945952106138414" fill="#ff5808" stroke="none" /><path d="M 82.85270091963577 112.12312394758628 l -11.99368425593788 8.479523226456758 a35.68845724299022,35.68845724299022 0 0,0 -0.3503231524215703,-0.5046666293986259 l 12.137868315521585 -8.27181533487112" fill="#ffac0f" stroke="none" /><path d="M 82.6465618267979 111.8261652097733 l -11.205192768123942 7.636207854638572 a34.55979407550354,34.55979407550354 0 0,0 -0.3307814898486119,-0.49447344630177065 l 11.334977363383283 -7.442197494130981" fill="#ff9d0e" stroke="none" /><line stroke="#e1ed5e" stroke-width="0.3" x1="26.63291911575756" x2="22.317208475507996" y1="142.92168965132927" y2="145.44649492493687" /><path d="M 25.769776987707644 143.4266507060508 a86.0,86.0 0 0,1 -11.730757126820373,-40.83630448921669" fill="none" id="id45" stroke="none" /><text fill="#e1ed5e" style="font-size:6.75px; font-family:Arial;" text-anchor="middle"><textPath startOffset="21.46611528233685" xlink:href="#id45">September</textPath></text><path d="M 81.87401531095188 110.60418214915194 l -11.040516562759167 6.45899523036479 a33.791076004716516,33.791076004716516 0 0,0 -0.28939321749102714,-0.5045814677225081 l 11.150061776402572 -6.2679939167839755" fill="#ff920d" stroke="none" /><path d="M 81.69416730710424 110.29060199501025 l -9.140735805689786 5.1384537210589585 a31.48602678391029,31.48602678391029 0 0,0 -0.261519325893112,-0.47473353991913286 l 9.227831541034416 -4.980349662742003" fill="#ff730a" stroke="none" /><path d="M 81.51974371655577 109.97397251340807 l -6.47645105237336 3.4954030826224916 a28.35950140592383,28.35950140592383 0 0,0 -0.22815555383445943,-0.4315843251893881 l 6.535659114432706 -3.383403742346977" fill="#ff4706" stroke="none" /><path d="M 81.35079622478065 109.6543875284942 l -15.6441948462429 8.098743594490225 a38.61619936866376,38.61619936866376 0 0,0 -0.30051003183932185,-0.5929348022130982 l 15.78128354786849 -7.828254580574441" fill="#ffd213" stroke="none" /><path d="M 81.18737489456691 109.33194174019688 l -7.971350872082381 3.9541627769671055 a29.898192962203098,29.898192962203098 0 0,0 -0.2247301139137375,-0.46301059752330687 l 8.038234242610837 -3.816363223478514" fill="#ff5c08" stroke="none" /><path d="M 80.73074385275274 108.34839909993369 l -23.88640812738807 10.348778727497626 a47.03185960278017,47.03185960278017 0 0,0 -0.31544720370251333,-0.7456240079551529 l 24.061006312282892 -9.936080193876315" fill="#c4ff1e" stroke="none" /><path d="M 80.58989483394504 108.01547362559985 l -11.691028433851285 4.827852773902253 a33.64864847513737,33.64864847513737 0 0,0 -0.2164687829887235,-0.5372577669023231 l 11.772399831097397 -4.625895639157125" fill="#ff900d" stroke="none" /><path d="M 80.45479744820244 107.68017299344265 l -10.42064653524217 4.094732089988912 a32.196280860233884,32.196280860233884 0 0,0 -0.19824587100201224,-0.5175574120969344 l 10.489586685837692 -3.91475111105882" fill="#ff7d0b" stroke="none" /><path d="M 80.32549172779594 107.34259656027581 l -13.768585526605767 5.138485156975835 a35.69618920373301,35.69618920373301 0 0,0 -0.2098863495822983,-0.5775170914502261 l 13.854996137193291 -4.900720268519492" fill="#ffac0f" stroke="none" /><path d="M 80.20201598880116 107.00284435728193 l -12.316883660164915 4.35666677930916 a34.06469167351352,34.06469167351352 0 0,0 -0.19077714675700239,-0.5544876892787459 l 12.390051637865147 -4.1440063869411174" fill="#ff960d" stroke="none" /><path d="M 80.0844068197444 106.66101706037122 l -11.038472092541493 3.691953850601143 a32.6395184338866,32.6395184338866 0 0,0 -0.1736231967696718,-0.5343572543697608 l 11.100387540327414 -3.501397696253579" fill="#ff830c" stroke="none" /><path d="M 79.97269907076064 106.31721596034903 l -6.160687642161754 1.943267065157511 a27.459903955231102,27.459903955231102 0 0,0 -0.13831060323887953,-0.45200705398260627 l 6.193225017906764 -1.836933038622857" fill="#ff3a05" stroke="none" /><path d="M 79.86692584326677 105.97154293290107 l -25.808210460723643 7.654808976900149 a47.919506452716334,47.919506452716334 0 0,0 -0.22774855146499706,-0.7928225854526461 l 25.936151649074745 -7.209428915942907" fill="#b9ff1f" stroke="none" /><path d="M 79.76711848015287 105.62410040840567 l -7.462211169157399 2.0742584215154642 a28.74513676653455,28.74513676653455 0 0,0 -0.12841126551844662,-0.4778660891574468 l 7.49681051101762 -1.9455013991824786" fill="#ff4c07" stroke="none" /><path d="M 79.67330655649465 105.27499134158121 l -11.67430598840248 3.0296055371204016 a33.06100866517393,33.06100866517393 0 0,0 -0.13820869041882383,-0.5520750162056234 l 11.724725993116362 -2.8282026815173866" fill="#ff880c" stroke="none" /><path d="M 79.58551787078972 104.9243191809786 l -11.179901555946403 2.6967817907379406 a32.50055784853537,32.50055784853537 0 0,0 -0.12650367645145405,-0.544974527244052 l 11.224665798328413 -2.503938606145314" fill="#ff810b" stroke="none" /><path d="M 79.4281124754447 104.21870165774334 l -6.115003543299892 1.2540111136828378 a27.24226018424499,27.24226018424499 0 0,0 -0.09024980318629797,-0.4601818020954342 l 6.1356832794618565 -1.148565584519449" fill="#ff3605" stroke="none" /><path d="M 79.29508885075956 103.50808413554451 l -5.663065577565207 0.9595071607894108 a26.74377626021506,26.74377626021506 0 0,0 -0.07299553985665179,-0.4545432963670621 l 5.678742871783149 -0.8618846347291349" fill="#ff2f04" stroke="none" /><path d="M 79.23777060512086 103.15116336523772 l -62.286688184637434 9.45349009571317 a84.0,84.0 0 0,0 -0.20466379593360395,-1.4314181120783975 l 62.440186031587636 -8.379926511654372" fill="#4dd2ff" stroke="none" /><path d="M 79.1416061653843 102.43462659150553 l -6.555886593579993 0.7652140408402902 a27.60039404552342,27.60039404552342 0 0,0 -0.05101827497672814,-0.4723658636852608 l 6.568087170057773 -0.6522518552702473" fill="#ff3c05" stroke="none" /><path d="M 79.10278846688536 102.07522291339032 l -10.87654368968278 1.0801083507028262 a31.930042849085098,31.930042849085098 0 0,0 -0.04960621613531833,-0.5474004614339238 l 10.893524502095174 -0.8927265007203361" fill="#ff790b" stroke="none" /><path d="M 79.07016306316243 101.71520430193888 l -10.060087879540092 0.8244262036509467 a31.09381229810302,31.09381229810302 0 0,0 -0.03912407262671873,-0.5338168867711206 l 10.072788510831147 -0.6511361803830654" fill="#ff6d0a" stroke="none" /><path d="M 79.0235259727143 100.99374915477108 l -6.550923873753218 0.31034648883525034 a27.558271002546498,27.558271002546498 0 0,0 -0.018369381730678546,-0.47403211995591377 l 6.5552953883350975 -0.1975371218653398" fill="#ff3b05" stroke="none" /><line stroke="#e1ed5e" stroke-width="0.3" x1="15.007084014347285" x2="10.007500721073583" y1="101.09737516637583" y2="101.16192664675087" /><path d="M 14.007167355692545 101.11028546245083 a86.0,86.0 0 0,1 10.666146001902534,-42.60595125391555" fill="none" id="id46" stroke="none" /><text fill="#e1ed5e" style="font-size:6.75px; font-family:Arial;" text-anchor="middle"><textPath startOffset="22.20632615414155" xlink:href="#id46">October</textPath></text><path d="M 79.00175016825051 100.2711162175752 l -26.490011532949808 0.3420223965274408 a47.4922194301561,47.4922194301561 0 0,0 -0.0035182749759529283,-0.8175231991939369 l 26.491974105215267 0.11401028087017143" fill="#beff1e" stroke="none" /><path d="M 79.00486145842228 99.54816195383935 l -15.61828811334867 -0.33612242050864966 a36.6219045533231,36.6219045533231 0 0,0 0.018988118399656438,-0.6301232082508648 l 15.610188300493368 0.6049157761845089" fill="#ffb811" stroke="none" /><path d="M 79.01574976396665 99.18683210126434 l -11.641737235785747 -0.4511329639693622 a32.65047496105889,32.65047496105889 0 0,0 0.026596753145057675,-0.5614154224724717 l 11.63224687440719 0.651459493064843" fill="#ff830c" stroke="none" /><path d="M 79.05617556472873 98.46500227214037 l -19.368970663429483 -1.4195748274739135 a40.42092215245171,40.42092215245171 0 0,0 0.05683088528776485,-0.6934807478645791 l 19.34166529432222 1.7527694925462711" fill="#ffe915" stroke="none" /><path d="M 79.08570108090925 98.10471618934814 l -18.92069250966838 -1.7146203340893669 a39.99822433638191,39.99822433638191 0 0,0 0.06804054956679016,-0.6851590486747677 l 18.888374834419363 2.040054913468565" fill="#ffe415" stroke="none" /><path d="M 79.16333360222342 97.38593545837743 l -18.19145627803336 -2.28220963512467 a39.33405471613563,39.33405471613563 0 0,0 0.09006374876332762,-0.6710795398579275 l 18.149476530212198 2.595007517047257" fill="#ffdc14" stroke="none" /><path d="M 79.21141760316559 97.0276538004421 l -14.279221322685293 -2.04163941633619 a35.42443943758536,35.42443943758536 0 0,0 0.09150319370025549,-0.602891718952647 l 14.241962235545737 2.287130247680929" fill="#ffa80f" stroke="none" /><path d="M 79.26566170972629 96.67025291283419 l -13.431224435169046 -2.1569330939803053 a34.60331394182276,34.60331394182276 0 0,0 0.09950617686561858,-0.5872910885826038 l 13.392106396783205 2.387809970878737" fill="#ff9d0e" stroke="none" /><path d="M 79.3925641242962 95.95851677861259 l -26.641128185605865 -5.224797165954064 a48.148631943934944,48.148631943934944 0 0,0 0.16650416916658758,-0.8119334616083714 l 26.547244720524283 5.682606283725838" fill="#b7ff1f" stroke="none" /><path d="M 79.46518482838121 95.60439243477599 l -24.037067335960245 -5.145286877175072 a45.581590330202744,45.581590330202744 0 0,0 0.170834619445743,-0.7658181016726672 l 23.944938329512464 5.558283148397698" fill="#d5ff1c" stroke="none" /><path d="M 79.62865764111835 94.90015583598534 l -22.0148662699684 -5.511290581178222 a43.694242898911085,43.694242898911085 0 0,0 0.18893321577956676,-0.7280367511078649 l 21.91673672231853 5.88942375783495" fill="#ecff1a" stroke="none" /><path d="M 79.71946130924805 94.55025226153421 l -12.186626260579741 -3.2747670027822005 a33.61895235499219,33.61895235499219 0 0,0 0.15498854036487833,-0.5575762426733762 l 12.128450949648503 3.484054548874519" fill="#ff900d" stroke="none" /><path d="M 80.14247586403 93.16781622104843 l -26.313750333681405 -9.053514273086273 a48.82767646276446,48.82767646276446 0 0,0 0.2802869508953158,-0.7924089540277915 l 26.154010301976278 9.505120853540674" fill="#afff20" stroke="none" /><path d="M 80.2630227832202 92.82701384747504 l -25.474405144809026 -9.258132759669806 a48.10458152559349,48.10458152559349 0 0,0 0.28953325604211394,-0.7758051793144904 l 25.311267300265285 9.695261076013637" fill="#b7ff1f" stroke="none" /><path d="M 80.38941819471856 92.48833698450439 l -6.052865608179573 -2.3184975937064185 a27.481713751987627,27.481713751987627 0 0,0 0.17301237230084743,-0.44029761614409624 l 6.012059685997034 2.422344214746278" fill="#ff3a05" stroke="none" /><path d="M 80.52162464483688 92.15188598940014 l -18.006153257568815 -7.254934822902253 a40.412769880148886,40.412769880148886 0 0,0 0.2655278960151971,-0.6429968616845824 l 17.878603674667417 7.563806255040147" fill="#ffe915" stroke="none" /><path d="M 80.65960295795068 91.81776055985345 l -11.140980515102477 -4.713355675914109 a33.09699006222477,33.09699006222477 0 0,0 0.22649261658029388,-0.522776186440418 l 11.058197188679504 4.904431006941126" fill="#ff890c" stroke="none" /><path d="M 81.10775173730289 90.83032412892265 l -19.13435141154412 -9.287184775863315 a42.269113874383386,42.269113874383386 0 0,0 0.32333856691674606,-0.6518308205173605 l 18.97165283167396 9.615175184879638" fill="#fdff18" stroke="none" /><path d="M 81.26839172434947 90.50648371742162 l -24.342119287430464 -12.337024264386653 a48.28994208684876,48.28994208684876 0 0,0 0.38215870705136484,-0.7382089833498624 l 24.126151147218987 12.75420596999685" fill="#b5ff20" stroke="none" /><path d="M 81.43458229118936 90.18545643968196 l -23.50280245311952 -12.424674848884331 a47.58485035223745,47.58485035223745 0 0,0 0.38904444787524856,-0.7208402763012008 l 23.2854499060258 12.827396108518004" fill="#bdff1f" stroke="none" /><line stroke="#e1ed5e" stroke-width="0.3" x1="26.266209847984243" x2="21.928928074336255" y1="57.711370442889674" y2="55.22380399835377" /><path d="M 25.398753493254645 57.213857153982495 a86.0,86.0 0 0,1 29.58750427330803,-30.492523968695096" fill="none" id="id47" stroke="none" /><text fill="#e1ed5e" style="font-size:6.75px; font-family:Arial;" text-anchor="middle"><textPath startOffset="21.46611528233685" xlink:href="#id47">November</textPath></text><path d="M 82.34701348167596 88.62581576622439 l -11.104577177578266 -7.154908690654029 a34.21000956337234,34.21000956337234 0 0,0 0.3232086191338475,-0.49226890100963716 l 10.9797719230865 7.344995655641333" fill="#ff980e" stroke="none" /><path d="M 82.7489923806493 88.02491185347247 l -10.569347568196907 -7.336897158312661 a33.86628026777772,33.86628026777772 0 0,0 0.3365459669557212,-0.4760204032087868 l 10.441488981437308 7.517744061853234" fill="#ff930d" stroke="none" /><path d="M 83.17141714833178 87.43820079747576 l -2.0442738736215884 -1.5259608097573805 a23.55100216842072,23.55100216842072 0 0,0 0.24529384790799028,-0.32277795082525895 l 2.0177040854894894 1.560923536463666" fill="#ff0000" stroke="none" /><path d="M 83.84228863543731 86.58626213691792 l -42.51453242287852 -35.294527821727236 a76.25567085191045,76.25567085191045 0 0,0 0.847125651008094,-1.0027295736087125 l 41.9006961583833 36.021116344965066" fill="#43ffe0" stroke="none" /><path d="M 84.80347519578584 85.50635884689758 l -4.762649897855835 -4.542363431555094 a27.581481565261363,27.581481565261363 0 0,0 0.3306306938090446,-0.34074399322871507 l 4.683754940343672 4.6236716203339325" fill="#ff3b05" stroke="none" /><path d="M 86.10567301691215 84.25364557470407 l -5.164130575227817 -5.852477089032279 a28.805109395495396,28.805109395495396 0 0,0 0.3746120955508515,-0.32485991777280826 l 5.062624681030191 5.940502000224767" fill="#ff4d07" stroke="none" /><path d="M 87.51073957382395 83.11751280151077 l -17.70082152148737 -23.927268912811844 a50.762951469260614,50.762951469260614 0 0,0 0.706945852994807,-0.5136262271977547 l 17.28633035213878 24.228414374826265" fill="#99ff23" stroke="none" /><line stroke="#e1ed5e" stroke-width="0.3" x1="56.762969772571076" x2="54.21961505331055" y1="26.818313649435495" y2="22.513508569990535" /><path d="M 56.25429882871897 25.957352633546506 a86.0,86.0 0 0,1 42.265352541879196,-11.944610805530505" fill="none" id="id48" stroke="none" /><text fill="#e1ed5e" style="font-size:6.75px; font-family:Arial;" text-anchor="middle"><textPath startOffset="22.20632615414155" xlink:href="#id48">December</textPath></text><path d="M 89.63071344664047 81.73862282372117 l -1.3346667361487552 -2.3504850163050923 a23.702982631919177,23.702982631919177 0 0,0 0.35653339193175965,-0.19841044659951249 l 1.29400925514495 2.3731108604647893" fill="#ff0200" stroke="none" /><path d="M 91.90106846888425 80.62456947434976 l -21.47253458733397 -51.36969000270028 a76.67687843780197,76.67687843780197 0 0,0 1.2221422877496773,-0.49854252533843224 l 20.585108429995913 51.73169341422229" fill="#44ffe5" stroke="none" /><path d="M 92.57280143429618 80.3572730644239 l -5.493415118657959 -14.528445976634313 a36.532332476543296,36.532332476543296 0 0,0 0.5901148979426784,-0.2173442970967753 l 5.2425178949427105 14.62085354153741" fill="#ffb711" stroke="none" /><path d="M 93.25333710446033 80.11325718540243 l -4.693802046849788 -13.835645203207795 a35.61016275898589,35.61016275898589 0 0,0 0.5821705037096901,-0.19193246196248273 l 4.454948720897688 13.914391389429511" fill="#ffab0f" stroke="none" /><path d="M 93.59665428221793 80.00007090966166 l -4.338541683229088 -13.550810754930401 a35.228401739234585,35.228401739234585 0 0,0 0.5791123607812658,-0.17993302946926262 l 4.104643949737093 13.62348391928219" fill="#ffa60f" stroke="none" /><path d="M 93.94186890950719 79.89281104454417 l -3.0236863629886397 -10.035740748175503 a31.481353518812046,31.481353518812046 0 0,0 0.5202065538254749,-0.15186255806461244 l 2.8504895914397435 10.086301635158813" fill="#ff730a" stroke="none" /><path d="M 94.28887869178378 79.79150937346287 l -4.200322058975469 -14.862610050871846 a36.44473641482407,36.44473641482407 0 0,0 0.6051598340254389,-0.16541304268432092 l 3.9438643357263077 14.932709634382462" fill="#ffb610" stroke="none" /><path d="M 94.63758080256005 79.69619591428918 l -3.2725179163584426 -12.390781137073624 a33.815647884510035,33.815647884510035 0 0,0 0.5640628989191319,-0.14379219231883172 l 3.0587461287543114 12.44527632556132" fill="#ff930d" stroke="none" /><path d="M 95.33964822691252 79.52364482259891 l -2.871601278821115 -12.617057805073236 a33.9397156677064,33.9397156677064 0 0,0 0.5707646442005361,-0.12474704419100531 l 2.653993910467058 12.66461834736011" fill="#ff940d" stroke="none" /><path d="M 96.75951476605007 79.25152402106235 l -8.467344962219233 -54.2154927025659 a75.8727216355376,75.8727216355376 0 0,0 1.2921161331509825,-0.19042433009105814 l 7.5328598486396015 54.353211516817936" fill="#43ffdc" stroke="none" /><path d="M 97.47563105711357 79.15227682838746 l -1.0264563025027702 -8.477079748044384 a29.53899839534192,29.53899839534192 0 0,0 0.5053043699323728,-0.05677683360292847 l 0.8803852290606794 8.49349253511791" fill="#ff5708" stroke="none" /><path d="M 97.83486435360386 79.11191278185805 l -0.3163583679791558 -3.0520587444656546 a24.06841085851613,24.06841085851613 0 0,0 0.4124579189927842,-0.03916784930831927 l 0.26377532189613523 3.0570521382891545" fill="#ff0801" stroke="none" /><path d="M 98.19473922651362 79.07773832637324 l -1.3418115946279978 -15.55106814030885 a36.6088493701492,36.6088493701492 0 0,0 0.6282946890075384,-0.04876776012914309 l 1.0739267162581252 15.571861162626455" fill="#ffb811" stroke="none" /><path d="M 98.55514903715128 79.0497635885617 l -1.1181892778586775 -16.21366516425103 a37.25217786389152,37.25217786389152 0 0,0 0.6400952160318364,-0.038612291455249484 l 0.8389320129872181 16.230510725086585" fill="#ffc111" stroke="none" /><path d="M 98.91598698831166 79.02799685794201 l -0.7452052644156842 -14.417213611174981 a35.436460064585155,35.436460064585155 0 0,0 0.6094382104759302,-0.02624369133042675 l 0.49692622155043004 14.427905029029601" fill="#ffa90f" stroke="none" /><path d="M 99.63851952072746 79.00311137660856 l -0.13379492799550288 -7.7715875754889 a28.772739190674724,28.772739190674724 0 0,0 0.4952754072680367,-0.004262991794382399 l 1.903772034093398e-15 7.772739190674724" fill="#ff4c07" stroke="none" /></svg>