<?xml version="1.0" encoding="utf-8" ?>
<svg baseProfile="full" height="200mm" version="1.1" viewBox="0,0,200,200" width="200mm" xmlns="http://www.w3.org/2000/svg" xmlns:ev="http://www.w3.org/2001/xml-events" xmlns:xlink="http://www.w3.org/1999/xlink"><defs /><rect fill="#1a1a1a" height="200" width="200" x="0" y="0" /><text alignment-baseline="middle" fill="#e1ed5e" style="dominant-baseline: central; font-size:9.0px; font-family:Arial;" text-anchor="middle" x="100.0" y="100.0">2016</text><line stroke="#e1ed5e" stroke-width="0.3" x1="100.0" x2="100.0" y1="15.0" y2="10.0" /><path d="M 100.0 14.0 a86.0,86.0 0 0,1 42.35913384403234,11.155469271406648" fill="none" id="id13" stroke="none" /><text fill="#e1ed5e" style="font-size:6.75px; font-family:Arial;" text-anchor="middle"><textPath startOffset="22.145653131862478" xlink:href="#id13">January</textPath></text><path d="M 100.36049292484886 79.00309439819443 l 0.961176175545934 -55.98369353047397 a76.99194407193298,76.99194407193298 0 0,0 1.3212795984445123,0.0340314755545334 l -1.9220690880611877 55.95894433756939" fill="#44ffe8" stroke="none" /><path d="M 102.15924093988457 79.11130261209362 l 1.7785710122313463 -17.20606115378168 a38.29774133444088,38.29774133444088 0 0,0 0.6533669414242554,0.07321112857961315 l -2.0736738552563985 17.172994264695095" fill="#ffd113" stroke="none" /><path d="M 103.23170211078529 79.25015418208739 l 3.6291927872901524 -23.30202110164547 a44.58294357600106,44.58294357600106 0 0,0 0.7551979052428174,0.12426752792119897 l -4.02866819558604 23.2362875752286" fill="#deff1b" stroke="none" /><path d="M 105.3480935250658 79.69241777938227 l 3.756021050665922 -14.262223716035463 a35.74851583920531,35.74851583920531 0 0,0 0.592095176088397,0.16137817317318925 l -4.000297627689012 14.19564504871813" fill="#ffb010" stroke="none" /><path d="M 106.04205211174951 79.88797359093562 l 2.543279529458192 -8.465750396728227 a29.83952490491798,29.83952490491798 0 0,0 0.4893104719842279,0.15158963500405698 l -2.68823063431405 8.420844173917523" fill="#ff6008" stroke="none" /><path d="M 107.06938296918511 80.22567764915836 l 3.251924172366244 -9.096210677107567 a30.66002378388095,30.66002378388095 0 0,0 0.49408022185751743,0.1814331011902514 l -3.4075935458778863 9.039046726908595" fill="#ff6b09" stroke="none" /><path d="M 110.02825361518725 81.54914285379988 l 7.064423623931627 -12.997743785418804 a35.793492645408534,35.793492645408534 0 0,0 0.5373384086979487,0.2980525573984628 l -7.286506220785676 12.874558312587196" fill="#ffb110" stroke="none" /><line stroke="#e1ed5e" stroke-width="0.3" x1="143.13028292997686" x2="145.6673583964461" y1="26.7553504044142" y2="22.446841604673864" /><path d="M 143.63769802327073 25.89364864446614 a86.0,86.0 0 0,1 29.32050498858742,28.57503671076993" fill="none" id="id14" stroke="none" /><text fill="#e1ed5e" style="font-size:6.75px; font-family:Arial;" text-anchor="middle"><textPath startOffset="20.669276256404974" xlink:href="#id14">February</textPath></text><path d="M 111.27062007382361 82.28071324371311 l 7.941856586991421 -12.485917662067523 a35.797676368682644,35.797676368682644 0 0,0 0.5156814968257286,0.3342585159553454 l -8.155023716074158 12.347745304408283" fill="#ffb110" stroke="none" /><path d="M 112.45986205192187 83.09580414077388 l 7.834322507965449 -10.628763107258026 a34.20406052504393,34.20406052504393 0 0,0 0.4696494580719839,0.35243370894902454 l -8.0156249549482 10.492710371044987" fill="#ff9b0e" stroke="none" /><path d="M 114.13192950727249 84.46653392183569 l 1.9734910130933678 -2.1692123281305897 a23.932601047410646,23.932601047410646 0 0,0 0.3015168443888132,0.2790794897811716 l -2.010437628796146 2.135015092217043" fill="#ff0a01" stroke="none" /><path d="M 115.16444852881244 85.47280134310134 l 6.72960289532683 -6.446807343946931 a30.31927465303815,30.31927465303815 0 0,0 0.3568205645641171,0.37893107433229883 l -6.839279293627207 6.330334809670137" fill="#ff6609" stroke="none" /><path d="M 117.62189284568427 88.57770195909679 l 6.092119299112762 -3.9488381267876407 a28.25997521388289,28.25997521388289 0 0,0 0.26037167804653316,0.4093475244753737 l -6.1590086687851855 3.843676927633595" fill="#ff4906" stroke="none" /><line stroke="#e1ed5e" stroke-width="0.3" x1="172.87174338648825" x2="177.1583165268699" y1="56.24261187166439" y2="53.66864786411523" /><path d="M 173.72905801456457 55.72781907015455 a86.0,86.0 0 0,1 12.242430191666344,42.057860355516425" fill="none" id="id15" stroke="none" /><text fill="#e1ed5e" style="font-size:6.75px; font-family:Arial;" text-anchor="middle"><textPath startOffset="22.145653131862474" xlink:href="#id15">March</textPath></text><path d="M 118.00360718960297 89.18935116829356 l 8.60334377638237 -5.1660607435730235 a31.035223352815997,31.035223352815997 0 0,0 0.2703408696773629,0.45909789887146774 l -8.690758356189502 5.017611676407999" fill="#ff700a" stroke="none" /><path d="M 118.36410011445183 89.81374322990088 l 8.916687288611362 -4.945936130515669 a31.196548259583913,31.196548259583913 0 0,0 0.2557443266112763,0.47054075588092764 l -9.00027696483798 4.792140541160138" fill="#ff720a" stroke="none" /><path d="M 119.0197475246899 91.09779779509293 l 11.982392483053655 -5.608364708534236 a34.2299464973171,34.2299464973171 0 0,0 0.24452494008466588,0.5343311238105917 l -12.076901887993372 5.40184460250896" fill="#ff9c0e" stroke="none" /><path d="M 120.05942366710727 93.78553927170692 l 13.358195153551419 -4.138403005004754 a34.984554236449476,34.984554236449476 0 0,0 0.17279650992558235,0.5751833825231835 l -13.427267983480627 3.908482018890847" fill="#ffa60f" stroke="none" /><path d="M 120.35273937422433 94.82641323984039 l 10.867732636654958 -2.7625351382998007 a32.21334976945589,32.21334976945589 0 0,0 0.13163367728156525,0.5371103234112927 l -10.913553840452813 2.575568990280413" fill="#ff800b" stroke="none" /><path d="M 120.86939407059847 97.66154086499901 l 2.4931927764524913 -0.27936745090398307 a23.508795805397376,23.508795805397376 0 0,0 0.0414959436258631,0.40143561249473764 l -2.4976211125600205 0.23652731612631406" fill="#ff0400" stroke="none" /><path d="M 120.96210409425399 98.7389718711861 l 9.871117500524146 -0.5938219166844191 a30.88896279585927,30.88896279585927 0 0,0 0.027297621563152817,0.5295665657069573 l -9.879856711543871 0.4242835576007312" fill="#ff6e0a" stroke="none" /><path d="M 120.99303781780057 99.45929381324524 l 9.409555663441093 -0.2423567758984275 a30.41267627140232,30.41267627140232 0 0,0 0.008962425113009516,0.5220163312219696 l -9.41232952015277 0.08079352870739151" fill="#ff6809" stroke="none" /><line stroke="#e1ed5e" stroke-width="0.3" x1="184.99686870605535" x2="189.99668451229388" y1="99.2704041080226" y2="99.22748670261217" /><path d="M 185.99683186730306 99.26182062694052 a86.0,86.0 0 0,1 -10.086455211305974,41.156179273409016" fill="none" id="id16" stroke="none" /><text fill="#e1ed5e" style="font-size:6.75px; font-family:Arial;" text-anchor="middle"><textPath startOffset="21.40746469413373" xlink:href="#id16">April</textPath></text><path d="M 120.99303781780057 100.54070618675476 l 14.67526158635748 0.37798268172791905 a35.68012852585786,35.68012852585786 0 0,0 -0.0210263218333458,0.6121584184482838 l -14.666610577527289 -0.6298473647403136" fill="#ffaf10" stroke="none" /><path d="M 120.96210409425399 101.26102812881392 l 7.892741208082104 0.47480771167282243 a28.907009936810585,28.907009936810585 0 0,0 -0.03404975811422701,0.4950760100861744 l -7.883427488802811 -0.6102271459133403" fill="#ff5207" stroke="none" /><path d="M 120.9064616781168 101.97986365728391 l 16.86246122605901 1.5968926099426224 a37.93790614592113,37.93790614592113 0 0,0 -0.06696511500401874,0.647826741808662 l -16.832563718573326 -1.8861238740342159" fill="#ffcd13" stroke="none" /><path d="M 120.77682067341334 103.0534771498775 l 30.049006542808623 4.41616916742206 a51.37178533318456,51.37178533318456 0 0,0 -0.1357157141180149,0.8713922405219483 l -29.96876933655234 -4.93134958987546" fill="#90ff24" stroke="none" /><path d="M 120.592083275326 104.11899336999214 l 7.295455909245653 1.4592955030081602 a28.4399744817336,28.4399744817336 0 0,0 -0.09986803916093781,0.4779047200222172 l -7.269330159260351 -1.5843166743157864" fill="#ff4c07" stroke="none" /><path d="M 120.26092885502905 105.52220625578681 l 2.8485692648512733 0.7763902201600797 a23.952478387832084,23.952478387832084 0 0,0 -0.11152902168158386,0.39577715254581786 l -2.83482175109511 -0.8251752966089061" fill="#ff0b01" stroke="none" /><path d="M 120.16314734710363 105.8691983318838 l 6.9571927194641665 2.0251374054229045 a28.24594452411887,28.24594452411887 0 0,0 -0.13951301481023498,0.46439345215432204 l -6.921403384650302 -2.1442684611679503" fill="#ff4906" stroke="none" /><path d="M 120.05942366710727 106.21446072829308 l 10.88625354070653 3.372589174528271 a32.3967045189691,32.3967045189691 0 0,0 -0.16913437656273667,0.5298110256268705 l -10.82675444836654 -3.558969233846525" fill="#ff830c" stroke="none" /><path d="M 119.16976305983485 108.57439118712176 l 7.989216364890214 3.5734748612857286 a29.75198838603381,29.75198838603381 0 0,0 -0.2125362123503342,0.4644299806648809 l -7.926695687684823 -3.7100938241652983" fill="#ff5e08" stroke="none" /><path d="M 119.0197475246899 108.90220220490707 l 3.9129804615045907 1.831472433950324 a25.320382780314333,25.320382780314333 0 0,0 -0.18763698842912302,0.39208913919448835 l -3.8809642151155557 -1.8983740752099159" fill="#ff1f03" stroke="none" /><line stroke="#e1ed5e" stroke-width="0.3" x1="174.33088141563837" x2="178.70328620479359" y1="141.23008692659167" y2="143.65538615756765" /><path d="M 175.20536237346943 141.71514677278685 a86.0,86.0 0 0,1 -30.301960400862466,31.631185727798858" fill="none" id="id17" stroke="none" /><text fill="#e1ed5e" style="font-size:6.75px; font-family:Arial;" text-anchor="middle"><textPath startOffset="22.145653131862474" xlink:href="#id17">May</textPath></text><path d="M 117.81537515405839 111.11811171558189 l 11.966121367595857 7.467744743889679 a35.10515055374901,35.10515055374901 0 0,0 -0.32343931261714415,0.5085003212760427 l -11.836164363352824 -7.6720587398443945" fill="#ffa70f" stroke="none" /><path d="M 117.423217284605 111.72311816256416 l 6.478978060007024 4.359345586376585 a28.809036473439818,28.809036473439818 0 0,0 -0.27959891932137165,0.4079431792048188 l -6.403189403870332 -4.469923500651447" fill="#ff5107" stroke="none" /><path d="M 116.1254893667686 113.45245675266167 l 5.582646280028356 4.657242080494977 a28.27020242388392,28.27020242388392 0 0,0 -0.31407580553554604,0.3699805091884933 l -5.501875910985695 -4.7523893721330275" fill="#ff4906" stroke="none" /><path d="M 115.89218393027572 113.72728997021213 l 7.22235166667648 6.238495352827997 a30.543646465811747,30.543646465811747 0 0,0 -0.3461452345344594,0.3938497358959195 l -7.114195368183435 -6.3615573665352105" fill="#ff6909" stroke="none" /><path d="M 114.13192950727249 115.5334660781643 l 5.033344612584037 5.532527441426162 a28.479533266131135,28.479533266131135 0 0,0 -0.3644498384931651,0.3258932928898141 l -4.937629747267494 -5.618116264199363" fill="#ff4c07" stroke="none" /><path d="M 113.59037401385872 116.0094264158162 l 6.572983033272802 7.742957485664613 a31.156647900784087,31.156647900784087 0 0,0 -0.41071237144847383,0.3426308677539948 l -6.439096327662433 -7.854650537330477" fill="#ff720a" stroke="none" /><path d="M 113.31354834802062 116.24036423190432 l 5.544237182271999 6.763067882015906 a29.745150262290665,29.745150262290665 0 0,0 -0.3976632391335887,0.32032935634231535 l -5.427323172783158 -6.857245532151626" fill="#ff5e08" stroke="none" /><path d="M 112.7482090630111 116.68781488649013 l 5.1482631502909495 6.739241725198167 a29.480683492224884,29.480683492224884 0 0,0 -0.4047936652309884,0.3037647129033009 l -5.031816496149195 -6.826625465365483" fill="#ff5a08" stroke="none" /><path d="M 112.45986205192187 116.90419585922612 l 7.256197043900662 9.844424883043919 a33.22968097776091,33.22968097776091 0 0,0 -0.4620808507010057,0.3345109012484472 l -7.086135182825688 -9.967536555665443" fill="#ff8e0d" stroke="none" /><path d="M 112.16784306229584 117.11559508785304 l 1.8522557970334996 2.605429742876075 a24.19673515992606,24.19673515992606 0 0,0 -0.34060350908774556,0.2377677019448201 l -1.8072571967719957 -2.636842260626017" fill="#ff0e01" stroke="none" /><path d="M 111.8722381534696 117.32195027204791 l 5.2541854166279975 7.666013546093795 a30.293773618998898,30.293773618998898 0 0,0 -0.4314752446186499,0.2903158007077768 l -5.121813883912344 -7.755079020858693" fill="#ff6609" stroke="none" /><line stroke="#e1ed5e" stroke-width="0.3" x1="143.1302829299769" x2="145.66735839644613" y1="173.24464959558577" y2="177.55315839532614" /><path d="M 143.63769802327073 174.10635135553383 a86.0,86.0 0 0,1 -40.68552437913181,11.842963189579606" fill="none" id="id18" stroke="none" /><text fill="#e1ed5e" style="font-size:6.75px; font-family:Arial;" text-anchor="middle"><textPath startOffset="21.407464694133747" xlink:href="#id18">June</textPath></text><path d="M 110.34350942703117 118.27599006163325 l 4.11299500256883 7.267268069969801 a29.350443885923596,29.350443885923596 0 0,0 -0.44061419120170653,0.24440126443212246 l -3.987636623211029 -7.336802249835068" fill="#ff5908" stroke="none" /><path d="M 110.02825361518725 118.45085714620011 l 5.176749759019025 9.524636487118036 a31.84054603233821,31.84054603233821 0 0,0 -0.48247704090252813,0.2568918486531948 l -5.012483902329943 -9.612098803493799" fill="#ff7b0b" stroke="none" /><path d="M 109.3889696526874 118.78422872680471 l 3.5798938702798515 7.162185816393099 a29.007031022233505,29.007031022233505 0 0,0 -0.4473156998041675,0.21880452404978626 l -3.4564179212136144 -7.222584090540108" fill="#ff5407" stroke="none" /><line stroke="#e1ed5e" stroke-width="0.3" x1="101.45913802915013" x2="101.54496967792366" y1="184.9874750549273" y2="189.98673829345242" /><path d="M 101.47630435890484 185.9873277026323 a86.0,86.0 0 0,1 -42.54439059252881,-10.42667462771756" fill="none" id="id19" stroke="none" /><text fill="#e1ed5e" style="font-size:6.75px; font-family:Arial;" text-anchor="middle"><textPath startOffset="22.145653131862474" xlink:href="#id19">July</textPath></text><line stroke="#e1ed5e" stroke-width="0.3" x1="58.13341422392154" x2="55.67067388415222" y1="173.97424548756322" y2="178.32567169271397" /><path d="M 57.64086615596768 174.84453072859336 a86.0,86.0 0 0,1 -31.369924170532247,-30.572349798747897" fill="none" id="id20" stroke="none" /><text fill="#e1ed5e" style="font-size:6.75px; font-family:Arial;" text-anchor="middle"><textPath startOffset="22.145653131862474" xlink:href="#id20">August</textPath></text><line stroke="#e1ed5e" stroke-width="0.3" x1="26.387840678322732" x2="22.057713659400548" y1="142.50000000000003" y2="145.00000000000006" /><path d="M 25.521815274538298 143.00000000000003 a86.0,86.0 0 0,1 -11.493303480769221,-40.785679425670985" fill="none" id="id21" stroke="none" /><text fill="#e1ed5e" style="font-size:6.75px; font-family:Arial;" text-anchor="middle"><textPath startOffset="21.40746469413373" xlink:href="#id21">September</textPath></text><path d="M 80.41425534168474 107.57618678355246 l -12.349904903397123 4.777208522808107 a34.24167181262784,34.24167181262784 0 0,0 -0.20735666616487552,-0.5500381924562582 l 12.430092253376435 -4.564502050157704" fill="#ff9c0e" stroke="none" /><line stroke="#e1ed5e" stroke-width="0.3" x1="15.003131293944662" x2="10.003315487706104" y1="100.72959589197737" y2="100.7725132973878" /><path d="M 14.003168132696942 100.73817937305945 a86.0,86.0 0 0,1 10.791469493833604,-42.45332614584628" fill="none" id="id22" stroke="none" /><text fill="#e1ed5e" style="font-size:6.75px; font-family:Arial;" text-anchor="middle"><textPath startOffset="22.145653131862435" xlink:href="#id22">October</textPath></text><path d="M 79.64726062577567 94.8264132398404 l -61.05821812267299 -15.520760280478791 a84.0,84.0 0 0,0 0.36724207678109755,-1.3944779825088616 l 60.782786565087164 16.56661876736044" fill="#4dd2ff" stroke="none" /><path d="M 79.94057633289273 93.78553927170692 l -16.572801675114377 -5.134296322614146 a38.349892048398544,38.349892048398544 0 0,0 0.20021434831607998,-0.6271685944767774 l 16.48222261102104 5.4180339507823145" fill="#ffd213" stroke="none" /><path d="M 80.05021161711548 93.44210830539832 l -4.125665635436033 -1.3561882404999017 a25.34285199829421,25.34285199829421 0 0,0 0.13940327927318588,-0.4121210248317438 l 4.101776934590482 1.426810939805807" fill="#ff1f03" stroke="none" /><path d="M 80.41425534168474 92.42381321644754 l -30.244854288632926 -11.699359372314051 a53.42878691322249,53.42878691322249 0 0,0 0.3382330346283816,-0.8525681974349093 l 30.03956257903841 12.216828586962542" fill="#79ff26" stroke="none" /><path d="M 80.68587082218212 91.75594674310238 l -9.916055492594547 -4.232574444681098 a31.78159742162459,31.78159742162459 0 0,0 0.21848504014567546,-0.4999365291179102 l 9.841936570431894 4.402173043574876" fill="#ff7b0b" stroke="none" /><path d="M 80.83023694016515 91.42560881287825 l -4.100369099178614 -1.8340429434732048 a25.49185265430676,25.49185265430676 0 0,0 0.18210351989391074,-0.3979290554210443 l 4.068281114429657 1.9041609811089206" fill="#ff2103" stroke="none" /><path d="M 81.29705330413844 90.45014215332179 l -11.696996315708635 -5.972569663199299 a34.13359475511065,34.13359475511065 0 0,0 0.270942610597917,-0.5195681809438149 l 11.592745636135778 6.1724840872476" fill="#ff9a0e" stroke="none" /><path d="M 81.46374523516351 90.13048839642627 l -9.350480242264657 -4.9786040611118 a31.593298785472854,31.593298785472854 0 0,0 0.25899682413861175,-0.47652498499479506 l 9.263638068510694 5.138383879581215" fill="#ff780b" stroke="none" /><line stroke="#e1ed5e" stroke-width="0.3" x1="26.387840678322718" x2="22.05771365940052" y1="57.49999999999999" y2="54.99999999999999" /><path d="M 25.521815274538284 56.99999999999999 a86.0,86.0 0 0,1 29.574782752854787,-30.34633250058573" fill="none" id="id23" stroke="none" /><text fill="#e1ed5e" style="font-size:6.75px; font-family:Arial;" text-anchor="middle"><textPath startOffset="21.40746469413373" xlink:href="#id23">November</textPath></text><path d="M 81.99639281039701 89.18935116829357 l -12.94067151810061 -7.770501430926631 a36.09442519036128,36.09442519036128 0 0,0 0.32352986311401155,-0.5284617171835914 l 12.805373690531205 7.991500264234765" fill="#ffb510" stroke="none" /><path d="M 82.37810715431573 88.57770195909679 l -12.228620081179612 -7.926443794624251 a35.57283981656172,35.57283981656172 0 0,0 0.33654542427325856,-0.50957266673539 l 12.090750217985624 8.135196339698702" fill="#ffae10" stroke="none" /><path d="M 82.576782715395 88.27688183743585 l -26.132967002893377 -17.583426476808384 a52.49775946062894,52.49775946062894 0 0,0 0.509503912965579,-0.7433814357256913 l 25.827273353112485 18.02944264760411" fill="#84ff25" stroke="none" /><path d="M 82.98947788004972 87.6856937992154 l -11.790104263007214 -8.535126259503137 a35.55523750401349,35.55523750401349 0 0,0 0.3621520712060072,-0.4913288379100858 l 11.641850172217389 8.736261406682086" fill="#ffad10" stroke="none" /><path d="M 83.2033758604659 87.39550010848427 l -4.663578250074129 -3.4996360613189834 a26.830644446049572,26.830644446049572 0 0,0 0.2796111182536953,-0.3660199294315629 l 4.602815154466127 3.5791769039914305" fill="#ff3505" stroke="none" /><path d="M 83.64595745247003 86.82634096563983 l -1.7429154523695694 -1.4039693139175646 a23.23805364290733,23.23805364290733 0 0,0 0.2529110035614197,-0.3085103015909805 l 1.7185576295695197 1.4336818972070378" fill="#ff0000" stroke="none" /><path d="M 84.58840730492382 85.73525988315684 l -6.394053512477416 -5.91824047347286 a29.712605271804584,29.712605271804584 0 0,0 0.34968081225825737,-0.3713489048039454 l 6.291516866482886 6.027130838221317" fill="#ff5e08" stroke="none" /><path d="M 84.83555147118756 85.47280134310135 l -7.3714429666959065 -7.061675613308694 a31.208106282697553,31.208106282697553 0 0,0 0.3739224500864414,-0.38367737455861933 l 7.249133715458663 7.187175679935043" fill="#ff730a" stroke="none" /><path d="M 85.34317274990677 84.96080404539775 l -17.276210047845787 -17.726913460126124 a45.75299768593874,45.75299768593874 0 0,0 0.5671792453233854,-0.5433448869062151 l 16.9693583166571 18.02087047733791" fill="#d1ff1d" stroke="none" /><path d="M 85.86807049272753 84.46653392183569 l -12.074703369358485 -13.272214179621006 a38.94296883706066,38.94296883706066 0 0,0 0.4983494136116658,-0.4456271186265282 l 11.845088928923426 13.477536828130935" fill="#ffda14" stroke="none" /><path d="M 86.96720088162412 83.53348406188908 l -9.861300610641115 -12.459431178270206 a36.8897034276755,36.8897034276755 0 0,0 0.49992584480340835,-0.38874536069357046 l 9.645964821202462 12.62687759058458" fill="#ffbf11" stroke="none" /><path d="M 87.25179093698888 83.31218511350988 l -8.832088622167229 -11.56148752027049 a35.5490131318652,35.5490131318652 0 0,0 0.48811674684503553,-0.3662919067275142 l 8.63231888641144 11.711398454262005" fill="#ffad10" stroke="none" /><path d="M 88.12776184653039 82.6780497279521 l -11.85243953179664 -17.29306349133807 a41.96497955568632,41.96497955568632 0 0,0 0.5977086264304635,-0.4021650387508861 l 11.553834617269185 17.493978204146064" fill="#feff18" stroke="none" /><path d="M 88.4268655584334 82.4767994020092 l -5.61315388459359 -8.49903040561328 a31.185333296837523,31.185333296837523 0 0,0 0.449238637387939,-0.2911910572076249 l 5.466429614948625 8.59413530452481" fill="#ff720a" stroke="none" /><path d="M 88.72937992617638 82.28071324371311 l -4.0519323685437785 -6.370310691428558 a28.549769150416573,28.549769150416573 0 0,0 0.41578778671288763,-0.2594823304405884 l 3.941980453041192 6.438928818710682" fill="#ff4d07" stroke="none" /><line stroke="#e1ed5e" stroke-width="0.3" x1="56.869717070023135" x2="54.33264160355391" y1="26.7553504044142" y2="22.446841604673864" /><path d="M 56.362301976729285 25.89364864446614 a86.0,86.0 0 0,1 42.16139366436587,-11.88097634709845" fill="none" id="id24" stroke="none" /><text fill="#e1ed5e" style="font-size:6.75px; font-family:Arial;" text-anchor="middle"><textPath startOffset="22.145653131862474" xlink:href="#id24">December</textPath></text><path d="M 89.34428304082924 81.90426304109057 l -3.6632765706153405 -6.221044485658878 a28.21948680484742,28.21948680484742 0 0,0 0.4195398254089251,-0.2422214311356102 l 3.5559442773460157 6.283012814070662" fill="#ff4906" stroke="none" /><path d="M 89.97174638481275 81.54914285379989 l -15.07783344472915 -27.74151528652789 a52.574241586769006,52.574241586769006 0 0,0 0.796652936878531,-0.42417281723269495 l 14.599391692064057 27.99625857148316" fill="#83ff25" stroke="none" /><path d="M 90.28995756902619 81.37971332152246 l -3.442467581780956 -6.601385494429622 a28.445056984179413,28.445056984179413 0 0,0 0.4349015940202835,-0.22206385270330165 l 3.3286387660470904 6.6595072988057575" fill="#ff4c07" stroke="none" /><path d="M 90.61103034731259 81.2157712731953 l -6.531801128687091 -13.067977737486938 a35.60946501868471,35.60946501868471 0 0,0 0.5491314416934522,-0.2686077054597277 l 6.306509437731586 13.17817919304388" fill="#ffae10" stroke="none" /><path d="M 90.93487009805054 81.0573650232925 l -7.605565881044339 -15.892707532513295 a38.618819060450974,38.618819060450974 0 0,0 0.6004514419138479,-0.2810415933863554 l 7.331625725258969 16.020925357470194" fill="#ffd513" stroke="none" /><path d="M 91.5904679813234 80.7573450057729 l -2.9050351365515423 -6.647288904378985 a28.25435585857759,28.25435585857759 0 0,0 0.44610254173129366,-0.1904146481682413 l 2.7904975196498176 6.69617820220663" fill="#ff4906" stroke="none" /><path d="M 92.592206182469 80.34994680014964 l -22.160024538285505 -58.78209785709625 a83.82039251722847,83.82039251722847 0 0,0 1.3507490543066358,-0.49601376256531726 l 21.147686332324742 59.153842468670284" fill="#4dd4ff" stroke="none" /><path d="M 93.27111125876988 80.10723608172694 l -2.3702864665433623 -7.007330766031482 a28.397360502101407,28.397360502101407 0 0,0 0.4631166801328234,-0.15223565142576212 l 2.2496470487627778 7.046987338859273" fill="#ff4b07" stroke="none" /><path d="M 93.61358852112211 79.99465700312896 l -2.2261533244872416 -6.973393582183794 a28.320107695667307,28.320107695667307 0 0,0 0.46439496967084126,-0.1438707486979602 l 2.106117721944784 7.0105809186883965" fill="#ff4a06" stroke="none" /><path d="M 93.95794788825049 79.88797359093562 l -6.358335816956451 -21.16483199799813 a43.0992884017716,43.0992884017716 0 0,0 0.7103993882738108,-0.2067869084548918 l 5.9940764163010165 21.270862600755542" fill="#f0ff19" stroke="none" /><path d="M 94.6519064749342 79.69241777938228 l -5.7205988929986145 -21.722045776922837 a43.46269183400129,43.46269183400129 0 0,0 0.7231254509036492,-0.1838156618596301 l 5.3468681488695875 21.81704667061773" fill="#ecff1a" stroke="none" /><path d="M 95.70440661134978 79.44403061299748 l -1.4577701575353073 -6.975957922543895 a28.126645969129058,28.126645969129058 0 0,0 0.47346991430062424,-0.09470724315843237 l 1.3378037577037063 6.999954562365193" fill="#ff4706" stroke="none" /><path d="M 97.48249496171623 79.15144685158666 l -3.92937441107577 -32.54085692125403 a53.77723832832692,53.77723832832692 0 0,0 0.9174501811474755,-0.10280220641552677 l 3.370188328327495 32.603514888176534" fill="#76ff27" stroke="none" /><path d="M 98.9189461498227 79.02784411241856 l -0.22692468702131824 -4.402278304796028 a25.408123079776416,25.408123079776416 0 0,0 0.43577863832472474,-0.018714209769741287 l 0.15132028809577341 4.405525082991598" fill="#ff2003" stroke="none" /><path d="M 99.27912038922189 79.0123766808444 l -0.0989471441759037 -2.8807381418771265 a23.882436951505834,23.882436951505834 0 0,0 0.40985296689845685,-0.010556358578743064 l 0.04948086320670296 2.8820122178059147" fill="#ff0a01" stroke="none" /></svg>